<?xml version="1.0" encoding="UTF-8" standalone="no"?><!DOCTYPE svg PUBLIC "-//W3C//DTD SVG 1.1//EN" "http://www.w3.org/Graphics/SVG/1.1/DTD/svg11.dtd"><svg width="100%" height="100%" viewBox="0 0 298 105" version="1.1" xmlns="http://www.w3.org/2000/svg" xmlns:xlink="http://www.w3.org/1999/xlink" xml:space="preserve" style="fill-rule:evenodd;clip-rule:evenodd;stroke-linejoin:round;stroke-miterlimit:1.41421;"><g><rect x="0" y="0.18" width="297.815" height="104.38" style="fill:#fff;fill-rule:nonzero;"/><path d="M144.09,81.639c-0.064,0.102 -0.201,0.174 -0.413,0.213c-0.169,0 -0.31,-0.057 -0.423,-0.172c-0.084,-0.115 -0.143,-0.266 -0.177,-0.447l-0.035,-0.246c0,-0.144 0.04,-0.266 0.117,-0.366c0.107,-0.145 0.24,-0.216 0.404,-0.216c0.166,0 0.308,0.054 0.419,0.162c0.093,0.111 0.16,0.236 0.202,0.378l0.021,0.236c0,0.177 -0.038,0.329 -0.115,0.458Zm-1.44,2.385l-0.294,0.368l-0.305,0.417c-0.155,0.218 -0.316,0.49 -0.482,0.822c-0.166,0.328 -0.301,0.697 -0.407,1.105l-0.136,0.561l-0.138,0.55c-0.043,0.162 -0.142,0.279 -0.294,0.347c-0.087,0.019 -0.185,0 -0.296,-0.063c-0.143,-0.115 -0.213,-0.279 -0.213,-0.498l0.022,-0.571c0.125,-0.583 0.277,-1.138 0.459,-1.661c0.18,-0.524 0.391,-1.006 0.639,-1.448c0.043,-0.082 0.098,-0.179 0.164,-0.291c0.065,-0.111 0.136,-0.213 0.207,-0.299c0.111,-0.152 0.245,-0.24 0.4,-0.266c0.211,0 0.38,0.071 0.508,0.214c0.069,0.087 0.137,0.214 0.201,0.377l0.01,0.162c0,0.082 -0.014,0.14 -0.045,0.174Z" style="fill:#939598;fill-rule:nonzero;"/><path d="M146.635,84.533l-0.126,0.235l-0.169,0.316c-0.113,0.19 -0.169,0.348 -0.169,0.471c0,0.045 0.002,0.08 0.011,0.099c0.091,0.063 0.179,0.086 0.263,0.073c0.219,-0.08 0.437,-0.217 0.655,-0.407l0.603,-0.521c0.422,-0.388 0.911,-0.652 1.468,-0.794c0.192,0 0.338,0.017 0.444,0.05c0.078,0.014 0.142,0.031 0.195,0.055c0.053,0.024 0.118,0.065 0.196,0.119c0.161,0.115 0.243,0.278 0.243,0.49c0,0.121 0.006,0.215 0.021,0.279c0.015,0.065 0.041,0.122 0.08,0.174c0.038,0.049 0.093,0.082 0.162,0.095c0.071,0 0.137,-0.026 0.202,-0.081l0.358,-0.276c0.065,-0.041 0.132,-0.081 0.202,-0.121c0.141,-0.074 0.289,-0.152 0.442,-0.235c0.121,-0.041 0.244,-0.061 0.371,-0.061l0.126,0l0.224,0.04c0.189,0.063 0.348,0.25 0.474,0.561c0.105,0.32 0.16,0.568 0.16,0.744c0,0.179 -0.009,0.327 -0.023,0.449c-0.013,0.122 -0.045,0.262 -0.094,0.419c-0.07,0.251 -0.19,0.513 -0.36,0.784l-0.19,0.204c-0.056,0.041 -0.112,0.062 -0.171,0.062c-0.062,0 -0.104,-0.008 -0.125,-0.021c-0.092,-0.021 -0.138,-0.079 -0.138,-0.173c0,-0.279 0.015,-0.476 0.043,-0.592l0.01,-0.234l0,-0.236l0,-0.14l-0.053,-0.389c-0.021,-0.184 -0.093,-0.295 -0.222,-0.336l-0.136,-0.01c-0.135,0 -0.265,0.039 -0.391,0.121l-0.412,0.317c-0.24,0.211 -0.43,0.451 -0.571,0.724c-0.17,0.272 -0.38,0.479 -0.634,0.621l-0.179,0.041c-0.086,0 -0.165,-0.037 -0.244,-0.113c-0.147,-0.135 -0.221,-0.308 -0.221,-0.519l0.032,-0.254l0.074,-0.459l0.074,-0.469l0.031,-0.256l-0.031,-0.255c-0.063,-0.061 -0.134,-0.091 -0.211,-0.091l-0.17,0.041l-0.708,0.49c-0.112,0.089 -0.224,0.176 -0.333,0.27c-0.109,0.092 -0.23,0.201 -0.364,0.331l-0.655,0.622l-0.633,0.602c-0.128,0.122 -0.272,0.234 -0.434,0.335c-0.162,0.103 -0.311,0.167 -0.444,0.195l-0.307,0.03c-0.083,0 -0.169,-0.021 -0.252,-0.061c-0.129,-0.041 -0.191,-0.18 -0.191,-0.417l0.01,-0.205c0,-0.062 0.004,-0.129 0.011,-0.204c0.007,-0.075 0.021,-0.148 0.041,-0.224c0.023,-0.076 0.048,-0.151 0.074,-0.229c0.03,-0.08 0.065,-0.162 0.107,-0.249l0.158,-0.399l0.105,-0.266l0.381,-0.886c0.148,-0.354 0.342,-0.649 0.581,-0.887c0.107,-0.102 0.225,-0.152 0.36,-0.152c0.084,0 0.165,0.014 0.243,0.041c0.133,0.067 0.201,0.179 0.201,0.336c0,0.162 -0.025,0.292 -0.075,0.386Z" style="fill:#939598;fill-rule:nonzero;"/><path d="M158.901,85.422c-0.062,0.08 -0.143,0.135 -0.243,0.162l-0.285,0.041c-0.112,0 -0.214,-0.053 -0.307,-0.159c-0.062,-0.101 -0.155,-0.173 -0.274,-0.22l-0.232,-0.019c-0.218,0 -0.423,0.068 -0.612,0.205l-0.37,0.285l-0.351,0.275l-0.452,0.468c-0.134,0.144 -0.201,0.264 -0.201,0.357c0,0.054 0.022,0.102 0.068,0.142c0.045,0.042 0.107,0.053 0.186,0.031l0.19,-0.102c0.246,-0.081 0.495,-0.219 0.748,-0.417l0.339,-0.225l0.423,-0.193l0.211,-0.041c0.135,0 0.272,0.058 0.412,0.174l0.497,0.451c0.105,0.115 0.221,0.219 0.344,0.307c0.122,0.088 0.272,0.177 0.447,0.266l0.434,0.174l0.486,0.153c0.086,0.022 0.156,0.114 0.213,0.277l0.021,0.216c0,0.087 -0.008,0.146 -0.021,0.174c-0.043,0.054 -0.094,0.086 -0.148,0.091l-0.16,0l-0.105,0c-0.254,0 -0.475,-0.048 -0.666,-0.142c-0.26,-0.123 -0.531,-0.268 -0.813,-0.439c-0.115,-0.055 -0.276,-0.172 -0.487,-0.356c-0.211,-0.184 -0.386,-0.275 -0.529,-0.275l-0.125,-0.01c-0.367,0 -0.743,0.169 -1.13,0.509c-0.389,0.341 -0.789,0.547 -1.206,0.622c-0.147,0.04 -0.288,0.061 -0.421,0.061c-0.17,0 -0.339,-0.04 -0.509,-0.123c-0.09,-0.062 -0.136,-0.146 -0.136,-0.255l0,-0.317c0.212,-0.708 0.613,-1.369 1.206,-1.982c0.547,-0.551 1.18,-1.035 1.9,-1.451c0.154,-0.082 0.437,-0.16 0.845,-0.236l0.18,0c0.275,0 0.481,0.089 0.617,0.269c0.137,0.179 0.207,0.387 0.207,0.623c0,0.217 -0.064,0.428 -0.191,0.629Z" style="fill:#939598;fill-rule:nonzero;"/><path d="M163.478,86.94l0.528,-0.276c0.147,-0.082 0.375,-0.255 0.686,-0.52c0.421,-0.38 0.633,-0.73 0.633,-1.05l-0.022,-0.184c-0.04,-0.107 -0.129,-0.173 -0.263,-0.203l-0.379,-0.02c-0.488,0.096 -0.914,0.336 -1.279,0.723l-0.496,0.592l-0.181,0.295l-0.126,0.315l-0.032,0.246c0,0.175 0.088,0.265 0.265,0.265c0.231,-0.019 0.454,-0.082 0.666,-0.183Zm1.457,3.013c-0.269,0.518 -0.628,1.072 -1.078,1.664c-0.416,0.571 -0.948,0.996 -1.596,1.276c-0.275,0.101 -0.631,0.179 -1.067,0.234l-0.137,0l-0.106,0c-0.267,0 -0.539,-0.049 -0.813,-0.142c-0.141,-0.075 -0.212,-0.184 -0.212,-0.327l0.021,-0.164c0.044,-0.134 0.125,-0.215 0.243,-0.244l0.286,-0.029l0.126,0.01l0.128,0.009l0.116,0c0.141,0 0.286,-0.013 0.432,-0.04c0.15,-0.028 0.3,-0.071 0.456,-0.133c0.422,-0.163 0.845,-0.534 1.268,-1.111c0.394,-0.538 0.749,-1.112 1.065,-1.723l0.382,-0.795l0.338,-0.775l0.137,-0.409l0.085,-0.253l-0.351,0.225l-0.339,0.193c-0.439,0.305 -0.955,0.507 -1.549,0.602l-0.223,0.02c-0.181,0 -0.375,-0.045 -0.576,-0.132c-0.271,-0.102 -0.428,-0.253 -0.471,-0.45l-0.041,-0.458l0.032,-0.306c0.126,-0.537 0.394,-1.006 0.803,-1.407c0.373,-0.401 0.803,-0.75 1.288,-1.05c0.289,-0.183 0.602,-0.32 0.941,-0.408l0.273,-0.06l0.296,-0.022c0.064,0 0.136,0.004 0.211,0.012c0.079,0.006 0.158,0.019 0.244,0.041c0.085,0 0.159,-0.023 0.222,-0.068c0.063,-0.043 0.165,-0.082 0.306,-0.116c0.191,0.054 0.339,0.179 0.445,0.377l0.137,0.296c0.021,0.06 0.038,0.149 0.052,0.265c-0.035,0.389 -0.117,0.829 -0.248,1.322c-0.131,0.492 -0.28,0.979 -0.45,1.453l-0.274,0.756c-0.014,0.049 -0.033,0.108 -0.057,0.179c-0.025,0.072 -0.053,0.135 -0.08,0.188l-0.139,0.348l-0.283,0.633l-0.243,0.519Z" style="fill:#939598;fill-rule:nonzero;"/><path d="M172.088,81.639c-0.065,0.102 -0.202,0.174 -0.413,0.213c-0.169,0 -0.311,-0.057 -0.423,-0.172c-0.085,-0.115 -0.143,-0.266 -0.18,-0.447l-0.03,-0.246c0,-0.144 0.037,-0.266 0.115,-0.366c0.105,-0.145 0.239,-0.216 0.401,-0.216c0.17,0 0.311,0.054 0.423,0.162c0.091,0.111 0.158,0.236 0.2,0.378l0.021,0.236c0,0.177 -0.038,0.329 -0.114,0.458Zm-1.439,2.385l-0.294,0.368l-0.307,0.417c-0.154,0.218 -0.315,0.49 -0.481,0.822c-0.164,0.328 -0.3,0.697 -0.406,1.105l-0.139,0.561l-0.136,0.55c-0.042,0.162 -0.141,0.279 -0.297,0.347c-0.084,0.019 -0.184,0 -0.295,-0.063c-0.141,-0.115 -0.211,-0.279 -0.211,-0.498l0.021,-0.571c0.127,-0.583 0.279,-1.138 0.46,-1.661c0.179,-0.524 0.392,-1.006 0.639,-1.448c0.043,-0.082 0.096,-0.179 0.163,-0.291c0.067,-0.111 0.136,-0.213 0.207,-0.299c0.113,-0.152 0.246,-0.24 0.4,-0.266c0.213,0 0.382,0.071 0.507,0.214c0.071,0.087 0.14,0.214 0.203,0.377l0.009,0.162c0,0.082 -0.015,0.14 -0.043,0.174Z" style="fill:#939598;fill-rule:nonzero;"/><path d="M174.495,85.176l0.139,0.01c0.281,0 0.595,-0.116 0.94,-0.346c0.211,-0.15 0.468,-0.225 0.771,-0.225c0.203,0 0.411,0.03 0.621,0.092c0.214,0.061 0.425,0.177 0.636,0.346c0.176,0.151 0.295,0.334 0.359,0.552l0.074,0.518l0.107,0.715l0,0.388l0.008,0.345l-0.008,0.205c-0.023,0.109 -0.121,0.175 -0.298,0.205c-0.177,0.019 -0.321,-0.032 -0.432,-0.154c-0.085,-0.122 -0.145,-0.268 -0.181,-0.438l-0.106,-0.836c0,-0.096 -0.023,-0.215 -0.074,-0.358l-0.103,-0.357c-0.086,-0.258 -0.258,-0.387 -0.518,-0.387c-0.122,0 -0.227,0.017 -0.318,0.051c-0.402,0.123 -0.733,0.256 -0.994,0.399c-0.429,0.251 -0.766,0.533 -1.013,0.845l-0.836,1.02c-0.112,0.128 -0.249,0.193 -0.411,0.193l-0.232,-0.031c-0.183,-0.04 -0.275,-0.135 -0.275,-0.285c0,-0.053 0.018,-0.129 0.053,-0.224c0.275,-0.632 0.517,-1.224 0.729,-1.772l0.296,-0.838l0.295,-0.916c0.021,-0.145 0.163,-0.239 0.422,-0.287l0.254,0.03c0.072,0.021 0.131,0.11 0.179,0.265c0.022,0.082 0.008,0.212 -0.04,0.388l-0.097,0.286l-0.073,0.254l-0.033,0.144c0,0.094 0.055,0.163 0.159,0.203Z" style="fill:#939598;fill-rule:nonzero;"/><path d="M183.011,84.91l0.115,-0.132l0.192,-0.224c0.04,-0.041 0.067,-0.085 0.074,-0.131c0,-0.054 -0.102,-0.083 -0.307,-0.083l-0.338,0.112l-0.169,0.061l-0.147,0.062c-0.099,0.054 -0.2,0.115 -0.303,0.183c-0.101,0.068 -0.204,0.146 -0.311,0.235c-0.196,0.156 -0.344,0.337 -0.443,0.54c-0.037,0.075 -0.021,0.115 0.041,0.121l0.169,0c0.514,-0.162 0.99,-0.41 1.427,-0.744Zm0.422,0.76c-0.415,0.324 -0.873,0.584 -1.372,0.781c-0.475,0.176 -0.954,0.264 -1.448,0.264c-0.12,0.096 -0.18,0.207 -0.18,0.337c0,0.075 0.014,0.143 0.043,0.202c0.055,0.104 0.132,0.182 0.227,0.236c0.094,0.055 0.216,0.081 0.364,0.081l0.244,0c0.048,-0.012 0.099,-0.022 0.151,-0.024c0.054,-0.004 0.1,-0.01 0.137,-0.015c0.04,-0.008 0.106,-0.027 0.196,-0.059c0.255,-0.061 0.492,-0.131 0.709,-0.211l0.275,-0.109l0.338,-0.122c0.154,-0.019 0.261,0.007 0.316,0.081l0.021,0.111c0,0.096 -0.058,0.18 -0.178,0.254c-0.776,0.464 -1.579,0.696 -2.409,0.696l-0.201,0l-0.202,0c-0.211,-0.02 -0.429,-0.093 -0.654,-0.214c-0.211,-0.103 -0.363,-0.269 -0.454,-0.501l-0.085,-0.235l-0.022,-0.297c0,-0.122 0.007,-0.211 0.022,-0.266c0.008,-0.073 0.04,-0.169 0.095,-0.285c0.169,-0.511 0.499,-0.984 0.993,-1.42c0.493,-0.437 0.994,-0.791 1.501,-1.062l0.633,-0.266l0.392,-0.102l0.317,-0.032c0.317,0 0.63,0.066 0.939,0.195c0.211,0.099 0.317,0.273 0.317,0.518l-0.041,0.294c-0.101,0.257 -0.244,0.473 -0.434,0.651l-0.296,0.285l-0.254,0.234Z" style="fill:#939598;fill-rule:nonzero;"/><path d="M187.63,87.768c-0.062,0.113 -0.204,0.183 -0.424,0.213c-0.163,0 -0.307,-0.065 -0.434,-0.194c-0.098,-0.115 -0.159,-0.23 -0.179,-0.344l-0.032,-0.233l0,-0.102c0,-0.167 0.039,-0.3 0.116,-0.395c0.113,-0.147 0.251,-0.222 0.411,-0.222c0.17,0 0.314,0.053 0.435,0.162c0.072,0.087 0.14,0.22 0.212,0.394l0,0.203c0,0.209 -0.035,0.381 -0.105,0.518Z" style="fill:#939598;fill-rule:nonzero;"/><path d="M195.235,87.602l0.19,0.031c0.219,0 0.518,-0.085 0.899,-0.256c0.526,-0.238 1.004,-0.506 1.425,-0.806c0.423,-0.297 0.73,-0.596 0.919,-0.895c0.037,-0.061 0.061,-0.133 0.074,-0.215c0,-0.148 -0.158,-0.255 -0.474,-0.315l-0.203,-0.01c-0.492,0 -0.987,0.189 -1.488,0.57c-0.585,0.443 -1.011,0.857 -1.277,1.244l-0.171,0.367l-0.022,0.082l0,0.041c0,0.068 0.045,0.122 0.128,0.162Zm2.852,-6.626c-0.541,0.632 -1.045,1.319 -1.51,2.067c-0.226,0.365 -0.417,0.731 -0.577,1.094c-0.158,0.363 -0.289,0.754 -0.396,1.176l0.581,-0.316l0.762,-0.438c0.239,-0.135 0.542,-0.244 0.907,-0.326c0.163,-0.027 0.351,-0.051 0.567,-0.071c0.214,-0.021 0.424,-0.031 0.628,-0.031c0.253,0.041 0.455,0.174 0.602,0.398c0.1,0.149 0.149,0.319 0.149,0.509l-0.011,0.183c-0.085,0.359 -0.3,0.758 -0.645,1.192c-0.346,0.433 -0.802,0.831 -1.375,1.19c-0.385,0.238 -0.803,0.432 -1.245,0.581l-0.613,0.174l-0.634,0.152l-0.559,0.051l-0.159,0l-0.223,0c-0.261,0 -0.495,-0.069 -0.707,-0.203c-0.134,-0.089 -0.2,-0.213 -0.2,-0.368c0,-0.088 0.017,-0.183 0.053,-0.285c0.359,-0.619 0.693,-1.343 1.002,-2.172c0.276,-0.796 0.574,-1.525 0.899,-2.191l0.528,-0.999c0.281,-0.564 0.616,-1.088 1.003,-1.571c0.276,-0.346 0.565,-0.618 0.867,-0.815l0.127,-0.062l0.179,-0.039c0.141,0 0.279,0.084 0.412,0.254c0.043,0.101 0.007,0.24 -0.105,0.417l-0.169,0.243l-0.138,0.206Z" style="fill:#939598;fill-rule:nonzero;"/><path d="M206.814,85.305l-0.042,0.348l0,0.981l0.042,1.356c0,0.116 -0.06,0.188 -0.179,0.214l-0.159,0.04l-0.126,-0.029c-0.084,-0.041 -0.162,-0.096 -0.233,-0.163c-0.191,-0.183 -0.286,-0.433 -0.286,-0.751l-0.032,-0.456l0,-0.385l0,-0.468l0,-0.214c0,-0.089 0.012,-0.188 0.032,-0.296c-0.02,-0.062 -0.052,-0.091 -0.095,-0.091l-0.093,0.029c-0.506,0.408 -0.952,0.799 -1.336,1.173c-0.514,0.493 -0.952,0.878 -1.316,1.155c-0.281,0.228 -0.592,0.344 -0.937,0.344l-0.221,-0.012l-0.252,-0.059c-0.23,-0.062 -0.426,-0.199 -0.578,-0.409c-0.077,-0.088 -0.139,-0.184 -0.187,-0.29c-0.043,-0.106 -0.066,-0.225 -0.066,-0.363c0,-0.312 0.016,-0.566 0.049,-0.764c0.03,-0.195 0.099,-0.421 0.204,-0.677c0.106,-0.256 0.21,-0.484 0.312,-0.683c0.102,-0.2 0.214,-0.391 0.333,-0.577c0.161,-0.217 0.358,-0.326 0.591,-0.326l0.171,0.021c0.175,0.063 0.295,0.184 0.358,0.367c0.014,0.089 0.006,0.163 -0.021,0.224l-0.106,0.193l-0.231,0.357l-0.265,0.47c-0.127,0.245 -0.219,0.544 -0.275,0.896c0,0.204 0.077,0.339 0.233,0.409c0.084,0.04 0.175,0.061 0.274,0.061l0.211,-0.031c0.275,-0.163 0.522,-0.381 0.741,-0.655c0.209,-0.244 0.443,-0.491 0.695,-0.736c0.374,-0.362 0.678,-0.642 0.911,-0.84c0.294,-0.264 0.612,-0.521 0.95,-0.767c0.106,-0.033 0.213,-0.051 0.327,-0.051c0.191,0 0.366,0.065 0.529,0.197c0.127,0.121 0.19,0.275 0.19,0.459l-0.011,0.154l-0.067,0.368l-0.039,0.277Z" style="fill:#939598;fill-rule:nonzero;"/><path d="M212.414,81.639c-0.063,0.102 -0.202,0.174 -0.413,0.213c-0.169,0 -0.31,-0.057 -0.423,-0.172c-0.084,-0.115 -0.142,-0.266 -0.179,-0.447l-0.032,-0.246c0,-0.144 0.039,-0.266 0.116,-0.366c0.105,-0.145 0.239,-0.216 0.401,-0.216c0.171,0 0.311,0.054 0.423,0.162c0.092,0.111 0.16,0.236 0.202,0.378l0.02,0.236c0,0.177 -0.038,0.329 -0.115,0.458Zm-1.437,2.385l-0.296,0.368l-0.306,0.417c-0.155,0.218 -0.315,0.49 -0.482,0.822c-0.165,0.328 -0.301,0.697 -0.405,1.105l-0.14,0.561l-0.137,0.55c-0.04,0.162 -0.139,0.279 -0.294,0.347c-0.084,0.019 -0.185,0 -0.296,-0.063c-0.142,-0.115 -0.212,-0.279 -0.212,-0.498l0.021,-0.571c0.127,-0.583 0.28,-1.138 0.459,-1.661c0.181,-0.524 0.393,-1.006 0.64,-1.448c0.043,-0.082 0.096,-0.179 0.164,-0.291c0.067,-0.111 0.135,-0.213 0.206,-0.299c0.113,-0.152 0.247,-0.24 0.402,-0.266c0.211,0 0.38,0.071 0.507,0.214c0.07,0.087 0.136,0.214 0.201,0.377l0.01,0.162c0,0.082 -0.014,0.14 -0.042,0.174Z" style="fill:#939598;fill-rule:nonzero;"/><path d="M215.879,80.16l-1.395,3.059c-0.232,0.523 -0.415,1.101 -0.55,1.732c-0.133,0.633 -0.2,1.299 -0.2,1.999c0,0.204 0.042,0.335 0.127,0.397c0.056,0.061 0.14,0.1 0.253,0.112l0.118,-0.01c0.125,-0.041 0.231,0.01 0.316,0.153c0,0.082 -0.005,0.144 -0.017,0.189c-0.01,0.043 -0.045,0.103 -0.099,0.178c-0.183,0.101 -0.402,0.153 -0.656,0.153c-0.233,0 -0.439,-0.072 -0.623,-0.213c-0.105,-0.068 -0.198,-0.19 -0.275,-0.367l-0.052,-0.225l0,-0.234l0,-0.368l0,-0.184c0,-0.093 0.007,-0.156 0.02,-0.182c0.121,-1.108 0.328,-2.111 0.623,-3.007c0.076,-0.252 0.166,-0.529 0.265,-0.831c0.099,-0.304 0.198,-0.58 0.296,-0.837c0.098,-0.255 0.203,-0.5 0.312,-0.736c0.11,-0.241 0.234,-0.494 0.374,-0.768l0.201,-0.377c0.069,-0.107 0.216,-0.185 0.433,-0.233c0.218,-0.021 0.373,0.019 0.466,0.122c0.063,0.115 0.095,0.221 0.095,0.316l-0.032,0.162Z" style="fill:#939598;fill-rule:nonzero;"/><path d="M221.552,84.934l0.063,-0.237c0.022,-0.053 -0.017,-0.115 -0.116,-0.184l-0.252,0c-0.114,0 -0.234,0.02 -0.36,0.062l-0.57,0.162c-0.6,0.251 -1.135,0.588 -1.607,1.009l-0.485,0.5c-0.135,0.151 -0.251,0.332 -0.35,0.552c-0.006,0.019 -0.031,0.09 -0.073,0.208c-0.041,0.119 -0.063,0.205 -0.063,0.26c0,0.075 0.008,0.131 0.026,0.168c0.018,0.039 0.089,0.056 0.216,0.056c0.098,0 0.236,-0.019 0.413,-0.056c0.176,-0.037 0.376,-0.117 0.602,-0.24l0.622,-0.35c0.423,-0.26 0.799,-0.539 1.127,-0.837c0.327,-0.297 0.597,-0.656 0.807,-1.073Zm2.536,-3.459l-0.359,0.817l-0.328,0.805c-0.188,0.462 -0.383,1.005 -0.582,1.63c-0.273,0.87 -0.473,1.797 -0.601,2.773l-0.074,0.296l-0.032,0.296c0,0.21 -0.11,0.356 -0.327,0.438c-0.148,0.021 -0.271,-0.006 -0.37,-0.082c-0.126,-0.135 -0.19,-0.36 -0.19,-0.672l0,-0.164l0.022,-0.193c0,-0.252 0.009,-0.449 0.031,-0.591c0.02,-0.143 0.06,-0.304 0.116,-0.49c-0.028,-0.035 -0.052,-0.051 -0.074,-0.051c-0.522,0.502 -1.057,0.949 -1.606,1.336c-0.305,0.211 -0.606,0.373 -0.909,0.489c-0.303,0.115 -0.617,0.173 -0.94,0.173c-0.212,0 -0.392,-0.033 -0.544,-0.101c-0.152,-0.07 -0.302,-0.196 -0.449,-0.38c-0.12,-0.19 -0.179,-0.388 -0.179,-0.593c0,-0.121 0.017,-0.233 0.053,-0.334c0.062,-0.314 0.21,-0.605 0.443,-0.87c0.316,-0.45 0.732,-0.861 1.246,-1.236c0.459,-0.333 0.959,-0.633 1.501,-0.898l0.349,-0.123l0.527,-0.144l0.245,-0.031l0.147,0c0.169,0 0.346,0.031 0.529,0.092l0.201,0.122l0.116,0.073c0.253,-0.728 0.431,-1.301 0.533,-1.719c0.102,-0.418 0.371,-0.858 0.808,-1.319c0.07,-0.089 0.161,-0.133 0.275,-0.133c0.077,0 0.159,0.021 0.243,0.061c0.057,0.049 0.112,0.15 0.167,0.306l0.012,0.132l0,0.285Z" style="fill:#939598;fill-rule:nonzero;"/><path d="M227.27,87.768c-0.062,0.113 -0.203,0.183 -0.424,0.213c-0.162,0 -0.307,-0.065 -0.434,-0.194c-0.098,-0.115 -0.158,-0.23 -0.18,-0.344l-0.032,-0.233l0,-0.102c0,-0.167 0.04,-0.3 0.117,-0.395c0.113,-0.147 0.249,-0.222 0.412,-0.222c0.169,0 0.314,0.053 0.433,0.162c0.071,0.087 0.142,0.22 0.212,0.394l0,0.203c0,0.209 -0.035,0.381 -0.104,0.518Z" style="fill:#939598;fill-rule:nonzero;"/><path d="M237.991,84.641c-0.682,0.08 -1.303,0.303 -1.86,0.66c-0.556,0.359 -1.071,0.764 -1.542,1.215l-0.168,0.215l-0.158,0.215c-0.064,0.095 -0.096,0.181 -0.096,0.255c0,0.064 0.024,0.138 0.073,0.227c0.162,0.143 0.346,0.215 0.55,0.215l0.115,-0.01l0.7,-0.122l0.422,-0.122l0.453,-0.174c0.268,-0.102 0.541,-0.258 0.813,-0.469l0.191,-0.01l0.19,0.01c0.058,0.053 0.085,0.153 0.085,0.295c-0.508,0.461 -1.191,0.819 -2.05,1.071c-0.669,0.196 -1.253,0.294 -1.754,0.294l-0.306,0l-0.297,-0.04c-0.033,-0.006 -0.084,-0.021 -0.146,-0.046c-0.064,-0.023 -0.124,-0.055 -0.18,-0.096c-0.127,-0.061 -0.2,-0.148 -0.221,-0.256l-0.034,-0.337c0,-0.266 0.097,-0.511 0.286,-0.734l0.37,-0.42l0.349,-0.399c0.45,-0.422 1.01,-0.886 1.681,-1.389c0.584,-0.437 1.26,-0.715 2.027,-0.839l0.148,0l0.306,0.032c0.232,0.019 0.35,0.099 0.35,0.234c0,0.043 -0.005,0.079 -0.012,0.103c-0.007,0.029 -0.029,0.092 -0.068,0.19c-0.039,0.099 -0.112,0.177 -0.217,0.232Z" style="fill:#939598;fill-rule:nonzero;"/><path d="M241.519,84.606c0.056,0.019 0.29,-0.073 0.702,-0.277c0.409,-0.202 0.699,-0.324 0.868,-0.366l0.411,-0.092l0.359,-0.101l0.379,-0.041l0.42,0.031c0.05,0.019 0.097,0.071 0.137,0.153l0.022,0.225c-0.022,0.121 -0.074,0.21 -0.159,0.265c-0.317,0.101 -0.597,0.173 -0.84,0.215c-0.243,0.041 -0.509,0.143 -0.797,0.307l-0.359,0.214l-0.349,0.204c-0.24,0.13 -0.451,0.3 -0.635,0.511l-0.411,0.47l-0.38,0.469c-0.24,0.307 -0.466,0.635 -0.678,0.983c-0.07,0.087 -0.171,0.144 -0.305,0.173l-0.36,0.032c-0.071,0.011 -0.122,-0.005 -0.158,-0.053l-0.084,-0.145l-0.053,-0.224l0.041,-0.217l0.065,-0.193l0.073,-0.227l0.243,-0.594l0.253,-0.606c0.064,-0.179 0.128,-0.374 0.191,-0.585c0.099,-0.315 0.166,-0.54 0.201,-0.677c0.064,-0.157 0.105,-0.329 0.127,-0.513c0,-0.158 0.075,-0.314 0.224,-0.472c0.063,-0.063 0.201,-0.112 0.416,-0.155l0.117,0c0.128,0 0.226,0.04 0.299,0.115c0.078,0.14 0.116,0.282 0.116,0.427l-0.041,0.181l-0.055,0.266l0,0.297Z" style="fill:#939598;fill-rule:nonzero;"/><path d="M249.624,84.91l0.117,-0.132l0.189,-0.224c0.043,-0.041 0.068,-0.085 0.074,-0.131c0,-0.054 -0.101,-0.083 -0.306,-0.083l-0.338,0.112l-0.17,0.061l-0.148,0.062c-0.099,0.054 -0.197,0.115 -0.3,0.183c-0.102,0.068 -0.205,0.146 -0.313,0.235c-0.197,0.156 -0.344,0.337 -0.442,0.54c-0.036,0.075 -0.022,0.115 0.042,0.121l0.169,0c0.513,-0.162 0.989,-0.41 1.426,-0.744Zm0.423,0.76c-0.416,0.324 -0.874,0.584 -1.374,0.781c-0.472,0.176 -0.955,0.264 -1.447,0.264c-0.12,0.096 -0.18,0.207 -0.18,0.337c0,0.075 0.013,0.143 0.042,0.202c0.057,0.104 0.132,0.182 0.228,0.236c0.096,0.055 0.217,0.081 0.364,0.081l0.243,0c0.049,-0.012 0.101,-0.022 0.152,-0.024c0.053,-0.004 0.098,-0.01 0.137,-0.015c0.04,-0.008 0.104,-0.027 0.197,-0.059c0.254,-0.061 0.489,-0.131 0.708,-0.211l0.274,-0.109l0.339,-0.122c0.154,-0.019 0.26,0.007 0.317,0.081l0.021,0.111c0,0.096 -0.06,0.18 -0.179,0.254c-0.776,0.464 -1.579,0.696 -2.41,0.696l-0.202,0l-0.2,0c-0.21,-0.02 -0.429,-0.093 -0.655,-0.214c-0.212,-0.103 -0.362,-0.269 -0.453,-0.501l-0.086,-0.235l-0.021,-0.297c0,-0.122 0.008,-0.211 0.021,-0.266c0.007,-0.073 0.038,-0.169 0.096,-0.285c0.168,-0.511 0.5,-0.984 0.994,-1.42c0.493,-0.437 0.992,-0.791 1.499,-1.062l0.634,-0.266l0.393,-0.102l0.316,-0.032c0.316,0 0.629,0.066 0.939,0.195c0.211,0.099 0.317,0.273 0.317,0.518l-0.041,0.294c-0.099,0.257 -0.243,0.473 -0.434,0.651l-0.297,0.285l-0.252,0.234Z" style="fill:#939598;fill-rule:nonzero;"/><path d="M256.851,85.422c-0.065,0.08 -0.147,0.135 -0.244,0.162l-0.286,0.041c-0.113,0 -0.216,-0.053 -0.306,-0.159c-0.062,-0.101 -0.155,-0.173 -0.276,-0.22l-0.231,-0.019c-0.217,0 -0.422,0.068 -0.612,0.205l-0.37,0.285l-0.349,0.275l-0.455,0.468c-0.133,0.144 -0.2,0.264 -0.2,0.357c0,0.054 0.023,0.102 0.069,0.142c0.046,0.042 0.108,0.053 0.184,0.031l0.191,-0.102c0.246,-0.081 0.497,-0.219 0.75,-0.417l0.338,-0.225l0.422,-0.193l0.213,-0.041c0.132,0 0.27,0.058 0.411,0.174l0.496,0.451c0.107,0.115 0.22,0.219 0.344,0.307c0.121,0.088 0.273,0.177 0.449,0.266l0.432,0.174l0.486,0.153c0.086,0.022 0.156,0.114 0.212,0.277l0.021,0.216c0,0.087 -0.006,0.146 -0.021,0.174c-0.043,0.054 -0.091,0.086 -0.148,0.091l-0.158,0l-0.108,0c-0.251,0 -0.474,-0.048 -0.664,-0.142c-0.26,-0.123 -0.532,-0.268 -0.812,-0.439c-0.114,-0.055 -0.276,-0.172 -0.486,-0.356c-0.211,-0.184 -0.388,-0.275 -0.528,-0.275l-0.127,-0.01c-0.367,0 -0.744,0.169 -1.132,0.509c-0.388,0.341 -0.789,0.547 -1.204,0.622c-0.147,0.04 -0.288,0.061 -0.422,0.061c-0.171,0 -0.339,-0.04 -0.508,-0.123c-0.09,-0.062 -0.137,-0.146 -0.137,-0.255l0,-0.317c0.212,-0.708 0.613,-1.369 1.205,-1.982c0.549,-0.551 1.183,-1.035 1.902,-1.451c0.154,-0.082 0.437,-0.16 0.844,-0.236l0.181,0c0.274,0 0.479,0.089 0.616,0.269c0.138,0.179 0.205,0.387 0.205,0.623c0,0.217 -0.062,0.428 -0.187,0.629Z" style="fill:#939598;fill-rule:nonzero;"/><path d="M264.151,80.955l-0.233,0.327l-0.211,0.265l-0.19,0.266l-0.189,0.263l-0.148,0.225l-0.084,0.154l0.03,0.051l0.698,-0.092l0.348,-0.031l0.349,0.031c0.083,0.13 0.137,0.229 0.157,0.297c-0.04,0.115 -0.122,0.204 -0.243,0.265l-0.368,0.103l-0.688,0.154l-0.686,0.154c-0.106,0.059 -0.19,0.153 -0.255,0.275l-0.073,0.123l-0.105,0.154c-0.099,0.13 -0.224,0.358 -0.375,0.686c-0.152,0.327 -0.271,0.635 -0.355,0.922c-0.037,0.129 -0.063,0.262 -0.084,0.398c-0.022,0.137 -0.032,0.267 -0.032,0.389l0.01,0.226c0,0.286 0.131,0.505 0.391,0.655l0.255,0c0.259,0 0.497,-0.069 0.706,-0.203c0.162,-0.109 0.313,-0.214 0.45,-0.317c0.138,-0.102 0.245,-0.189 0.323,-0.26c0.076,-0.072 0.143,-0.107 0.199,-0.107c0.049,0 0.102,0.025 0.161,0.073c0.04,0.059 0.051,0.134 0.031,0.223c-0.065,0.204 -0.192,0.377 -0.381,0.521l-0.539,0.397c-0.472,0.331 -0.955,0.499 -1.449,0.499c-0.681,0 -1.112,-0.338 -1.287,-1.02c0,-0.102 -0.007,-0.177 -0.022,-0.223l0,-0.164c0,-0.237 0.015,-0.443 0.043,-0.617c0.029,-0.173 0.085,-0.382 0.169,-0.626c0.19,-0.551 0.403,-1.069 0.644,-1.55c-0.049,-0.028 -0.289,0.009 -0.718,0.112l-0.804,0.184l-0.189,0.019l-0.233,-0.019c-0.099,-0.022 -0.179,-0.096 -0.242,-0.226l-0.023,-0.151c0,-0.082 0.008,-0.148 0.023,-0.199c0.014,-0.052 0.059,-0.121 0.137,-0.21c0.19,-0.197 0.63,-0.349 1.321,-0.458l0.823,-0.122l0.487,-0.082l0.073,-0.091l0.213,-0.276l0.57,-0.835c0.218,-0.348 0.436,-0.661 0.655,-0.938c0.106,-0.137 0.183,-0.232 0.23,-0.286c0.135,-0.151 0.264,-0.269 0.386,-0.352c0.125,-0.085 0.246,-0.128 0.365,-0.128c0.092,0 0.177,0.014 0.254,0.041c0.085,0.061 0.141,0.12 0.169,0.174c0.023,0.217 -0.025,0.395 -0.137,0.53c-0.077,0.075 -0.187,0.216 -0.327,0.427Z" style="fill:#939598;fill-rule:nonzero;"/><path d="M269.466,84.91l0.117,-0.132l0.189,-0.224c0.041,-0.041 0.065,-0.085 0.073,-0.131c0,-0.054 -0.103,-0.083 -0.306,-0.083l-0.338,0.112l-0.17,0.061l-0.146,0.062c-0.1,0.054 -0.199,0.115 -0.302,0.183c-0.103,0.068 -0.207,0.146 -0.312,0.235c-0.197,0.156 -0.344,0.337 -0.443,0.54c-0.037,0.075 -0.021,0.115 0.041,0.121l0.17,0c0.513,-0.162 0.987,-0.41 1.427,-0.744Zm0.422,0.76c-0.417,0.324 -0.874,0.584 -1.373,0.781c-0.473,0.176 -0.955,0.264 -1.447,0.264c-0.12,0.096 -0.181,0.207 -0.181,0.337c0,0.075 0.014,0.143 0.042,0.202c0.056,0.104 0.133,0.182 0.227,0.236c0.096,0.055 0.217,0.081 0.365,0.081l0.243,0c0.049,-0.012 0.099,-0.022 0.153,-0.024c0.053,-0.004 0.098,-0.01 0.137,-0.015c0.039,-0.008 0.104,-0.027 0.196,-0.059c0.253,-0.061 0.489,-0.131 0.708,-0.211l0.274,-0.109l0.338,-0.122c0.155,-0.019 0.261,0.007 0.318,0.081l0.021,0.111c0,0.096 -0.06,0.18 -0.18,0.254c-0.775,0.464 -1.577,0.696 -2.41,0.696l-0.198,0l-0.202,0c-0.211,-0.02 -0.429,-0.093 -0.656,-0.214c-0.211,-0.103 -0.363,-0.269 -0.453,-0.501l-0.085,-0.235l-0.022,-0.297c0,-0.122 0.008,-0.211 0.022,-0.266c0.007,-0.073 0.038,-0.169 0.094,-0.285c0.169,-0.511 0.502,-0.984 0.994,-1.42c0.493,-0.437 0.994,-0.791 1.5,-1.062l0.635,-0.266l0.391,-0.102l0.317,-0.032c0.317,0 0.63,0.066 0.94,0.195c0.21,0.099 0.318,0.273 0.318,0.518l-0.042,0.294c-0.101,0.257 -0.245,0.473 -0.435,0.651l-0.295,0.285l-0.254,0.234Z" style="fill:#939598;fill-rule:nonzero;"/><path d="M274.083,87.768c-0.062,0.113 -0.204,0.183 -0.425,0.213c-0.161,0 -0.305,-0.065 -0.431,-0.194c-0.1,-0.115 -0.161,-0.23 -0.181,-0.344l-0.032,-0.233l0,-0.102c0,-0.167 0.039,-0.3 0.117,-0.395c0.112,-0.147 0.249,-0.222 0.412,-0.222c0.17,0 0.313,0.053 0.432,0.162c0.071,0.087 0.141,0.22 0.212,0.394l0,0.203c0,0.209 -0.033,0.381 -0.104,0.518Z" style="fill:#939598;fill-rule:nonzero;"/><path d="M119.917,84.51c-2.185,-1.357 -5.432,-4.588 -3.679,-6.432c1.75,-1.839 6.566,-0.154 9.615,2.492c3.048,2.654 4.643,4.151 4.182,5.38c-0.927,2.477 -7.93,-0.081 -10.118,-1.44Zm-1.447,-15.3c-0.344,-0.766 0.613,-1.785 2.452,-3.6c1.837,-1.817 4.841,-3.084 6.033,-1.979c1.192,1.102 -0.749,3.297 -2.088,4.252c-1.341,0.955 -5.705,2.867 -6.397,1.327Zm8.494,8.302c-2.216,-1.692 -4.613,-2.389 -6.657,-2.598c0.045,-0.719 0.048,-1.728 -0.189,-2.517c3.156,-0.418 6.961,-2.1 8.958,-4.282c3.245,-3.545 2.519,-6.441 1.749,-7.071l0.373,-0.374l1.049,-0.965c0.097,-0.088 0.167,-0.256 0.209,-0.502l0.051,-0.498c-0.103,-0.523 -0.234,-0.935 -0.394,-1.236c-0.298,-0.492 -0.753,-0.791 -1.371,-0.894c-0.463,0.005 -0.899,0.208 -1.302,0.605c-0.25,0.232 -0.502,0.502 -0.752,0.807c-0.254,0.306 -0.461,0.572 -0.625,0.797c-0.46,0.595 -0.893,1.24 -1.314,1.906c-1.788,-0.098 -4.731,0.275 -7.222,2.445c-3.222,2.801 -5.49,5.297 -4.337,7.81c0.32,0.7 0.998,1.13 1.874,1.358c0.344,0.463 0.749,1.303 0.79,2.58c-0.902,0.069 -1.629,0.219 -2.074,0.368c-1.607,0.54 -2.46,-0.16 -3.486,0.339c-1.024,0.499 -2.156,4.551 2.663,9.187c4.819,4.637 16.609,6.902 18.289,2.534c1.291,-3.364 -1.86,-6.419 -6.282,-9.799Z" style="fill:#231f20;fill-rule:nonzero;"/><path d="M142.241,56.031c-0.296,0.51 -0.948,0.875 -1.957,1.097c-0.811,0.011 -1.492,-0.263 -2.04,-0.827c-0.415,-0.566 -0.717,-1.306 -0.897,-2.215l-0.175,-1.213c-0.012,-0.711 0.165,-1.321 0.527,-1.834c0.497,-0.716 1.131,-1.083 1.907,-1.096c0.811,-0.011 1.493,0.248 2.041,0.779c0.446,0.532 0.779,1.149 0.993,1.859l0.121,1.159c0.015,0.881 -0.158,1.645 -0.52,2.291Z" style="fill:#231f20;fill-rule:nonzero;"/><path d="M137.485,57.735c1.804,-0.004 2.833,2.025 1.681,3.817c-1.15,1.788 -2.844,3.587 -3.523,6.368c-0.683,2.782 -0.713,6.285 -2.856,5.776c-2.142,-0.51 -0.339,-6.584 0.439,-9.004c0.778,-2.419 2.232,-6.954 4.259,-6.957Z" style="fill:#231f20;fill-rule:nonzero;"/><path d="M155.971,60.475c-2.523,-2.912 -7.556,1.353 -8.856,2.779c0.262,-1.947 0.333,-4.125 -0.735,-4.697c-1.319,-0.706 -2.866,0.376 -2.722,2.135c0.142,1.758 0.681,3.738 0.092,6.039c-0.588,2.3 -2.293,5.834 -0.526,6.298c1.054,0.277 1.98,-1.787 2.636,-3.936c0.761,-2.263 3.036,-3.692 5.172,-4.868c2.632,-1.455 7.616,-0.659 4.939,-3.75Z" style="fill:#231f20;fill-rule:nonzero;"/><path d="M53.428,46.864c1.902,0.269 1.008,3.19 -1.17,7.665c-2.18,4.475 -3.606,9.07 -3.781,10.782c-0.178,1.712 -0.719,6.09 0.443,6.207c1.164,0.117 2.536,0.029 1.834,1.199c-0.702,1.171 -5.187,2.406 -5.131,-2.441c0.056,-4.85 2.076,-14.711 3.045,-18.006c0.97,-3.293 2.159,-5.775 4.76,-5.406Z" style="fill:#231f20;fill-rule:nonzero;"/><path d="M166.115,46.864c1.904,0.269 1.008,3.19 -1.17,7.665c-2.179,4.475 -3.606,9.07 -3.78,10.782c-0.178,1.712 -0.719,6.09 0.444,6.207c1.162,0.117 2.535,0.029 1.832,1.199c-0.7,1.171 -5.186,2.406 -5.13,-2.441c0.055,-4.85 2.076,-14.711 3.044,-18.006c0.971,-3.293 2.16,-5.775 4.76,-5.406Z" style="fill:#231f20;fill-rule:nonzero;"/><path d="M178.131,63.272c0.742,1.756 -0.777,2.315 -3.974,2.785c-3.195,0.471 -4.985,1.492 -4.752,2.842c0.231,1.351 4.851,2.579 4.697,5.089c-0.156,2.506 -11.387,6.914 -11.558,4.018c-0.171,-2.895 9.88,-1.4 8.049,-4.817c-1.753,-3.274 -5.004,-1.833 -4.988,-5.326c0.019,-4.23 11.062,-8.056 12.526,-4.591Z" style="fill:#231f20;fill-rule:nonzero;"/><path d="M106.881,60.328c3.462,-1.685 3.989,-3.47 2.098,-4.377c-0.938,-0.45 -2.787,0.358 -5.008,1.946c-1.346,0.963 -3.903,1.881 -5.315,2.347c1.193,-2.473 2.288,-4.601 2.721,-5.277c1.082,-1.682 0.114,-3.594 -1.584,-3.589c-1.906,0.005 -6.857,13.286 -7.588,15.564c-0.731,2.275 -2.582,9.138 -0.565,9.617c2.015,0.481 2.197,-3.965 2.837,-6.58c0.155,-0.634 0.578,-1.742 1.141,-3.082c1.405,1.382 5.509,4.422 8.911,5.959c4.143,1.87 3.291,-2.693 1.423,-3.05c-1.866,-0.357 -7.501,-3.443 -7.481,-5.226c0.02,-1.783 4.948,-2.564 8.41,-4.252Z" style="fill:#231f20;fill-rule:nonzero;"/><path d="M89.577,60.754c1.031,1.654 -0.454,1.618 -2.314,2.23c-1.858,0.608 -10.223,5.195 -9.567,7.891c0.657,2.695 7.95,-1.146 9.128,-1.675c1.178,-0.528 2.359,0.744 -0.291,2.236c-2.648,1.494 -11.374,5.079 -13.013,1.759c-1.64,-3.32 4.781,-8.55 6.98,-10.003c2.198,-1.455 7.687,-4.67 9.077,-2.438Z" style="fill:#231f20;fill-rule:nonzero;"/><path d="M64.626,64.785c2.043,-0.153 2.136,-3.144 0.895,-4.544c-1.242,-1.398 -4.675,-0.623 -7.91,2.816c-3.234,3.439 -7.264,9.14 -4.09,10.512c3.173,1.372 5.475,-3.749 8.068,-3.67c2.591,0.075 7.093,6.261 9.746,4.004c2.655,-2.254 -1.571,-2.192 -2.346,-2.442c-2.116,-0.687 -2.626,-2.67 -3.674,-3.754c-1.047,-1.088 -2.136,-2.389 -3.898,-1.144c-1.766,1.246 -3.991,3.939 -4.856,2.642c-0.865,-1.297 3.385,-5.727 5.729,-5.508c2.345,0.221 0.12,1.256 2.336,1.088Z" style="fill:#231f20;fill-rule:nonzero;"/><path d="M38.657,68.29c-1.756,2.22 -5.166,5.984 -6.74,4.405c-1.577,-1.578 2.771,-6.578 3.75,-7.589c0.979,-1.014 2.846,-2.487 4.046,-2.209c2.17,0.506 0.701,3.173 -1.056,5.393Zm2.933,-8.898c-4.36,-2.185 -10.111,6.589 -10.111,6.589c0,0 0.517,-6.994 1.85,-11.622c1.333,-4.628 3.081,-6.824 -0.681,-6.945c-3.855,-0.125 -4.291,13.326 -4.289,19.061c0.002,5.735 -2.303,8.498 -0.491,10.065c1.815,1.57 7.968,-1.356 10.927,-4.319c2.959,-2.961 7.155,-10.646 2.795,-12.829Z" style="fill:#231f20;fill-rule:nonzero;"/><path d="M207.792,67.641l0,0.572c0,2.131 -0.026,4.055 -1.793,5.536c-1.768,1.454 -3.925,1.429 -6.186,1.429c-5.301,0 -9.174,-0.26 -9.174,-7.381l0,-5.042c0,-6.445 3.456,-7.382 9.174,-7.382c5.354,0 7.85,0.546 7.953,6.395l0,0.754l-5.354,0l0,-0.754c-0.182,-1.742 -1.403,-1.871 -3.172,-1.871c-2.961,0 -3.247,0.908 -3.247,3.69l0,3.04c0,2.911 0.13,4.029 3.247,4.029c2.159,0 3.198,-0.156 3.198,-2.443l0,-0.572l5.354,0Z" style="fill:#ee287c;fill-rule:nonzero;"/><path d="M222.191,67.459l0,-4.392c0,-2.885 -0.962,-3.17 -3.665,-3.17c-2.702,0 -3.586,0.285 -3.665,3.17l0,4.392c0.079,2.911 0.963,3.197 3.665,3.197c2.703,0 3.665,-0.286 3.665,-3.197Zm-12.683,0.572l0,-5.509c0,-6.004 3.742,-7.149 9.018,-7.149c5.276,0 9.018,1.145 9.018,7.149l0,5.509c0,6.004 -3.742,7.147 -9.018,7.147c-5.276,0 -9.018,-1.143 -9.018,-7.147Z" style="fill:#ee287c;fill-rule:nonzero;"/><path d="M234.952,70.5l4.548,0c1.924,0 2.626,-1.273 2.626,-3.326l0,-4.081c0,-2.522 -0.807,-3.041 -2.626,-3.041l-4.548,0l0,10.448Zm-5.198,-14.97l9.875,0c5.434,0 7.85,2.027 7.85,7.563l0,4.081c0,5.328 -1.715,7.848 -7.147,7.848l-10.578,0l0,-19.492Z" style="fill:#ee287c;fill-rule:nonzero;"/><path d="M255.406,63.352l4.167,0l0,3.613l-4.167,0l0,3.795l9.045,0l0,4.262l-14.243,0l0,-19.492l14.061,0l-1.02,4.261l-7.843,0l0,3.561Z" style="fill:#ee287c;fill-rule:nonzero;"/><path d="M243.497,30.998c1.226,-1.51 1.052,-1.666 1.312,-3.478c0.269,-1.876 0.639,-4.446 2.907,-7.513c2.522,-3.407 4.997,-4.038 6.628,-3.97c2.289,0.098 4.084,1.619 4.675,3.073l0.237,0.817l-0.599,0.309c-0.694,0.364 -1.444,0.647 -2.328,0.655l-0.146,-0.147l-0.328,-0.597c-0.326,-0.532 -0.879,-0.902 -1.375,-0.923c-0.92,-0.038 -1.653,1.128 -1.962,3.122c-1.105,7.111 -10.263,10.115 -10.576,10.216l1.555,-1.564Zm13.645,19.26c0.674,-0.104 2.157,-0.329 3.894,-0.568l0.015,-0.801l1.804,-0.256c-2.162,-1.768 -5.961,-5.08 -6.146,-5.241l-0.072,-0.064l-0.053,-0.084c0,0 -0.35,-0.582 -0.841,-1.429c-0.373,0.399 -0.838,2.872 -1.063,5.047l2.462,3.396Zm21.268,26.221c-1.189,-0.297 -2.329,-1.311 -2.19,-2.908c0.053,-0.62 -0.134,-1.016 -0.396,-1.565c-0.145,-0.305 -0.31,-0.652 -0.435,-1.066c-0.355,-1.174 0.29,-2.049 0.558,-2.348c0.66,-1.627 -0.499,-3.288 -2.745,-6.275c-0.265,-0.352 -0.539,-0.718 -0.822,-1.099c-1.221,-1.648 -2.046,-3.308 -2.588,-4.661c-0.843,2.509 -2.575,5.319 -4.258,7.855c-1.763,2.655 -5.159,6.179 -6.727,6.983c-1.19,0.608 -1.479,1.324 -1.491,1.353l-0.47,1.205l-0.65,-1.108c-0.333,-0.579 -0.642,-2.165 0.615,-3.116c0.816,-0.617 1.047,-1.161 1.652,-2.789c0.284,-0.766 0.689,-1.543 1.536,-1.508c0.235,0.011 0.44,0.083 0.636,0.152c0.116,0.041 0.241,0.09 0.382,0.113c0.166,0.008 0.439,-0.386 0.554,-0.712l0.034,-0.095l0.064,-0.082c1.171,-1.497 2.105,-5.661 2.639,-9.351c-2.772,0.574 -6.282,1.153 -8.786,1.045c-1.105,-0.047 -1.939,-0.219 -2.549,-0.522c-5.237,-2.613 -4.713,-12.394 -3.639,-16.723c1.073,-4.326 2.796,-6.165 4.055,-7.507c0.135,-0.146 0.266,-0.285 0.39,-0.42c0.017,-0.02 0.13,-0.17 0.13,-0.17l0.342,-0.418l0.332,0.201c0.268,-0.298 0.466,-0.585 0.601,-0.802c-1.642,-1.507 -1.544,-3.228 -1.413,-3.934c-0.189,-1.081 0.474,-2.496 2.136,-4.562c0.121,-0.155 0.193,-0.325 0.215,-0.523l0.054,-0.493l0.492,-0.055c0.652,-0.076 1.295,-0.271 1.971,-0.597l0.526,-0.252l0.285,0.508c0.649,1.159 1.795,1.248 1.806,1.25l0.049,0.003l0.048,0.01c5.038,1.135 5.422,4.59 5.355,6.024l-0.155,1.031c-0.336,1.195 -0.854,2.3 -1.235,3.113c-0.184,0.397 -0.407,0.871 -0.485,1.119l-0.051,0.723l-0.674,0.154c-0.01,-0.001 -0.073,-0.011 -0.164,-0.015c-0.256,-0.012 -0.465,0.044 -0.559,0.146l-0.102,0.113c-0.471,0.524 -1.262,1.403 -2.277,1.36c-0.205,-0.01 -0.406,-0.056 -0.599,-0.14c-0.959,-0.425 -1.977,-1.036 -2.019,-1.06l-0.033,-0.021l-0.03,-0.023c-0.131,-0.102 -0.276,-0.156 -0.441,-0.162c-0.245,-0.011 -0.543,0.079 -0.857,0.255c0.025,0.313 0.057,0.836 0.069,1.502c1.216,3.227 2.184,5.493 2.733,6.396c1.479,1.767 3.895,4.495 4.814,5.17c0.616,0.061 2.815,0.285 3.662,0.499l-0.011,0.183l3.013,-0.425l6.919,-10.514l1.961,0.335l-7.313,11.206l-0.145,0.849l-1.056,0.131c1.208,0.653 1.585,1.79 1.954,2.901l0.23,0.696c0.912,2.764 3.335,10.103 4.212,11.972c1.074,2.281 1.508,5.379 1.034,7.363c-0.41,1.722 0.048,3.309 0.054,3.322l0.307,1.043l-1.054,-0.263Z" style="fill:#fff;fill-rule:nonzero;"/><path d="M256.384,19.822c0.742,-0.004 1.419,-0.142 2.06,-0.478c-0.934,-2.297 -5.667,-5.13 -10.229,1.033c-4.176,5.643 -1.612,9.354 -4.698,11.024c0,0 7.329,-2.338 8.387,-9.151c0.739,-4.76 3.489,-4.04 4.48,-2.428Zm22.116,52.411c0.454,-1.905 -0.006,-4.856 -0.992,-6.957c-0.988,-2.1 -3.86,-10.895 -4.47,-12.735c-0.611,-1.842 -1.074,-3.193 -4.751,-3.013c-3.678,0.18 -11.424,1.402 -11.424,1.402l-2.824,-3.895c0,0 0.475,-4.949 1.296,-5.69c0.184,-0.165 0.338,-0.396 0.47,-0.667c0.72,1.267 1.312,2.246 1.312,2.246c0,0 5.185,4.522 6.969,5.897c2.074,-0.282 4.067,-0.54 4.067,-0.54c-0.934,-0.236 -3.729,-0.498 -3.729,-0.498c-1.204,-0.752 -5.1,-5.409 -5.1,-5.409c-0.754,-1.214 -2.032,-4.472 -2.848,-6.641c-0.013,-0.799 -0.056,-1.477 -0.092,-1.85c-0.003,-0.029 0,-0.063 -0.003,-0.095c0.776,-0.548 1.653,-0.784 2.327,-0.257c0,0 1.016,0.612 1.949,1.024c0.933,0.409 1.82,-0.691 2.271,-1.184c0.453,-0.494 1.305,-0.318 1.305,-0.318c-0.328,-0.349 1.101,-2.379 1.751,-4.772c0.015,-0.053 0.018,-0.111 0.029,-0.167c0,0 0.002,-0.002 0.004,-0.002c-0.14,-0.163 -0.313,-0.297 -0.514,-0.374c-0.291,-0.112 -0.626,-0.128 -0.924,-0.062l-0.041,0.01l-0.029,-0.033c-0.124,-0.143 -0.278,-0.258 -0.449,-0.323c-0.172,-0.064 -0.372,-0.079 -0.539,-0.043l-0.057,0.013l-0.037,-0.046c-0.181,-0.225 -0.43,-0.383 -0.713,-0.422c-0.279,-0.044 -0.583,0.01 -0.839,0.11l-0.069,0.027l-0.055,-0.043c-0.172,-0.135 -0.39,-0.168 -0.607,-0.106c-0.216,0.058 -0.428,0.19 -0.6,0.336l-0.018,0.016l-0.014,0.008c-0.291,0.133 -0.618,0.184 -0.93,0.148c-0.246,-0.028 -0.475,-0.105 -0.701,-0.211l-0.326,2.469l-0.002,0l0,0.002c0,0 -0.323,-0.967 -0.495,-1.412c-0.164,-0.428 -0.377,-0.844 -0.625,-1.231c-0.655,0.282 -1.406,0.215 -2.032,-0.05c-0.362,-0.151 -0.702,-0.348 -1.02,-0.574c-0.129,0.703 -0.184,2.314 1.59,3.669c0,0 -0.388,0.9 -1.306,1.754c-0.09,-0.066 -0.18,-0.134 -0.275,-0.191c-0.053,0.064 -0.095,0.131 -0.152,0.193c-1.228,1.356 -3.15,3.019 -4.302,7.66c-1.152,4.643 -1.397,13.668 3.314,16.019c2.119,1.056 7.754,0.121 11.792,-0.759c-0.244,1.884 -1.189,8.358 -2.884,10.524c0,0 -0.437,1.257 -1.247,1.119c-0.81,-0.139 -1.247,-0.824 -1.866,0.846c-0.621,1.67 -0.901,2.345 -1.859,3.069c-0.96,0.724 -0.667,1.94 -0.452,2.31c0,0 0.328,-0.943 1.789,-1.692c1.461,-0.748 4.771,-4.181 6.494,-6.773c1.659,-2.499 4.381,-6.72 4.655,-9.793c0.34,1.232 1.245,3.926 3.207,6.573c2.659,3.588 4.632,5.776 3.595,8.09c0,0 -0.815,0.749 -0.492,1.821c0.324,1.072 0.96,1.663 0.856,2.865c-0.104,1.202 0.748,2.008 1.724,2.252c0,0 -0.516,-1.741 -0.062,-3.644Zm-16.849,-22.165l10.543,-1.312l0.089,-0.521l6.868,-10.522l-0.63,-0.109l-6.849,10.408l-10.011,1.416l-0.01,0.64Zm-5.261,-28.035c-1.762,2.194 -2.165,3.371 -1.995,4.13c0,0 2.064,0.913 3.07,0.153c0,0 0.974,1.906 0.965,2.206l0.235,-2.013c0,0 0.986,0.87 2.332,-0.106c0,0 0.725,-0.182 0.857,0.121c0,0 0.958,-0.408 1.694,0.404c0,0 0.742,-0.065 1.05,0.428c0,0 0.067,-0.233 0.633,-0.298c0.566,-0.067 0.819,0.316 0.856,0.43c0.062,-1.314 -0.306,-4.359 -4.87,-5.387c0,0 -1.487,-0.097 -2.308,-1.564c-0.69,0.332 -1.408,0.565 -2.17,0.653c-0.033,0.297 -0.143,0.586 -0.349,0.843Z" style="fill:#231f20;fill-rule:nonzero;"/><path d="M254.389,25.666c-0.07,0.632 -0.163,1.123 0,1.849c0.164,0.725 2.645,2.972 3.861,2.925c1.217,-0.047 7.639,-1.352 7.763,-2.326c0.124,-0.974 0.125,-1.559 -0.18,-2.377c-0.304,-0.82 -5.57,-1.803 -5.57,-1.803l-5.874,1.732Z" style="fill:#231f20;fill-rule:nonzero;"/><path d="M203.855,49.736c-0.678,-0.133 -1.986,-0.388 -3.51,-0.665l0.019,-0.789l-1.478,-0.272c2.238,-1.696 5.712,-4.474 5.89,-4.616l0.099,-0.079l0.071,-0.106c0.171,-0.259 0.414,-0.628 0.694,-1.059c0.261,0.754 0.53,2.596 0.649,4.512l-2.434,3.074Zm8.409,-10.292c-0.884,-4.344 -2.52,-6.248 -3.714,-7.636c-0.127,-0.146 -0.248,-0.287 -0.398,-0.477l-0.079,-0.112l-0.422,-0.565l-0.343,0.188c-0.141,-0.184 -0.259,-0.358 -0.349,-0.509c1.4,-1.253 1.571,-2.692 1.528,-3.524c0.273,-0.373 0.389,-0.831 0.298,-1.284c-0.074,-0.377 -0.278,-0.711 -0.566,-0.954c-0.004,-0.055 -0.012,-0.112 -0.023,-0.168c-0.095,-0.483 -0.395,-0.883 -0.806,-1.118c-0.105,-0.303 -0.294,-0.564 -0.541,-0.758c-0.003,-0.019 -0.006,-0.039 -0.01,-0.056c-0.007,-0.038 -0.027,-0.072 -0.038,-0.11c0.121,-0.047 0.24,-0.104 0.345,-0.179c0.064,0.007 0.128,0.012 0.191,0.012c0.102,0 0.205,-0.011 0.309,-0.031c0.759,-0.151 1.297,-0.795 1.348,-1.519c0.362,-0.382 0.53,-0.918 0.426,-1.452c-0.038,-0.19 -0.107,-0.369 -0.204,-0.531c0.046,-0.218 0.049,-0.444 0.007,-0.666c-0.132,-0.663 -0.652,-1.169 -1.295,-1.304c-0.183,-0.216 -0.42,-0.381 -0.688,-0.481c-0.309,-0.421 -0.8,-0.682 -1.334,-0.682c-0.105,0 -0.211,0.008 -0.321,0.031c-0.211,0.042 -0.409,0.124 -0.586,0.241c-0.069,-0.011 -0.139,-0.015 -0.208,-0.015c-0.1,0 -0.201,0.009 -0.307,0.03c-0.251,0.05 -0.482,0.156 -0.679,0.304c-0.092,0.002 -0.184,0.01 -0.279,0.029c-0.905,0.179 -1.496,1.06 -1.318,1.966c0.052,0.259 0.162,0.496 0.319,0.698c-0.323,0.375 -0.471,0.884 -0.37,1.391c0.012,0.065 0.032,0.121 0.051,0.173l-0.375,0.29c-0.335,0.261 -0.594,0.456 -0.892,0.613c-0.217,-0.103 -0.455,-0.157 -0.699,-0.157c-0.104,0 -0.208,0.008 -0.314,0.03c-0.437,0.085 -0.813,0.345 -1.055,0.718c-0.004,0.003 -0.006,0.004 -0.01,0.006c-0.057,-0.006 -0.115,-0.009 -0.173,-0.009c-0.096,0 -0.194,0.009 -0.297,0.03c-0.428,0.084 -0.795,0.332 -1.037,0.681c-0.564,0.205 -0.968,0.697 -1.074,1.273c-0.453,0.338 -0.72,0.894 -0.674,1.479c-0.118,0.189 -0.197,0.397 -0.233,0.616c-0.382,0.383 -0.557,0.93 -0.448,1.482c0.026,0.135 0.074,0.26 0.133,0.383l-0.252,0.267l0.619,0.313c0.286,1.166 0.736,2.247 1.071,3.048c0.139,0.336 0.305,0.732 0.387,0.981l0.015,1.063l0.915,0.089c0.016,-0.002 0.067,-0.006 0.137,-0.006c0.226,0 0.356,0.055 0.387,0.093l0.095,0.116c0.465,0.561 1.241,1.503 2.335,1.503c0.227,0 0.452,-0.043 0.669,-0.127c0.972,-0.381 2.007,-0.944 2.051,-0.967l0.043,-0.025l0.04,-0.028c0.099,-0.071 0.203,-0.105 0.326,-0.105c0.176,0 0.388,0.078 0.608,0.198c-0.036,0.321 -0.084,0.783 -0.12,1.328c-0.868,2.037 -2.163,4.956 -2.904,6.071c-1.444,1.581 -3.913,4.147 -4.848,4.801c-0.703,0.039 -2.753,0.165 -3.592,0.338l0.004,0.165l-2.773,-0.512l-6.376,-10.648l-2.378,0.304l6.85,11.539l0.121,0.947l0.624,0.104c-0.901,0.649 -1.277,1.625 -1.641,2.587l-0.255,0.675c-0.915,2.417 -3.693,9.77 -4.628,11.557c-1.167,2.234 -1.732,5.313 -1.341,7.32c0.314,1.625 -0.173,3.12 -0.185,3.16l-0.461,1.345l1.394,-0.285c1.498,-0.307 2.5,-1.531 2.435,-2.974c-0.024,-0.556 0.167,-0.917 0.431,-1.416c0.158,-0.301 0.339,-0.642 0.484,-1.057c0.377,-1.078 -0.065,-2.018 -0.464,-2.503c-0.511,-1.51 0.612,-2.978 2.938,-5.811c0.274,-0.335 0.559,-0.684 0.853,-1.045c1.136,-1.405 1.953,-2.82 2.537,-4.037c0.784,2.384 2.261,5.019 3.72,7.437c1.666,2.753 4.83,6.324 6.388,7.207c1.028,0.584 1.288,1.212 1.314,1.278l0.507,1.69l0.954,-1.501c0.492,-0.773 0.668,-2.374 -0.516,-3.351c-0.733,-0.605 -0.93,-1.133 -1.441,-2.714c-0.163,-0.505 -0.546,-1.685 -1.639,-1.685c-0.262,0 -0.491,0.071 -0.69,0.131c-0.106,0.033 -0.22,0.072 -0.292,0.096c-0.097,-0.05 -0.275,-0.348 -0.349,-0.587l-0.039,-0.128l-0.079,-0.111c-1.142,-1.595 -1.831,-6.065 -2.134,-8.903c2.743,0.681 5.969,1.326 8.352,1.326c1.117,0 1.97,-0.139 2.608,-0.423c5.172,-2.311 5.438,-11.345 4.389,-16.495Z" style="fill:#fff;fill-rule:nonzero;"/><path d="M211.467,39.606c-0.938,-4.608 -2.755,-6.322 -3.904,-7.702c-0.054,-0.065 -0.092,-0.132 -0.141,-0.198c-0.097,0.052 -0.187,0.116 -0.278,0.178c-0.866,-0.878 -1.21,-1.776 -1.21,-1.776c1.799,-1.258 1.813,-2.843 1.714,-3.538c0,0 0.123,-0.089 0.181,-0.232c0.138,-0.184 0.206,-0.414 0.158,-0.658c-0.067,-0.338 -0.325,-0.584 -0.642,-0.663c0.055,-0.145 0.084,-0.295 0.052,-0.457c-0.073,-0.377 -0.384,-0.635 -0.745,-0.677c0.003,-0.071 0.016,-0.142 0.001,-0.215c-0.066,-0.335 -0.321,-0.578 -0.629,-0.658c0.031,-0.121 0.042,-0.249 0.017,-0.38c-0.029,-0.141 -0.101,-0.253 -0.186,-0.355c-0.036,0.014 -0.063,0.022 -0.063,0.022c-1.202,0.221 -3.459,-0.968 -3.459,-0.968c0,-0.007 0,-0.01 -0.001,-0.018c-0.463,0.358 -0.864,0.663 -1.471,0.897c-0.196,-0.202 -0.478,-0.317 -0.776,-0.259c-0.3,0.06 -0.519,0.276 -0.621,0.543c-0.163,0.053 -0.301,0.148 -0.404,0.275c-0.154,-0.07 -0.327,-0.109 -0.508,-0.072c-0.328,0.065 -0.567,0.313 -0.652,0.613c-0.048,0.002 -0.093,-0.008 -0.141,0c-0.465,0.094 -0.768,0.544 -0.676,1.011c0.003,0.012 0.012,0.023 0.016,0.036c-0.46,0.096 -0.758,0.544 -0.666,1.006c0.013,0.065 0.045,0.118 0.071,0.174c-0.244,0.188 -0.38,0.497 -0.326,0.82c-0.33,0.17 -0.53,0.532 -0.454,0.916c0.033,0.169 0.127,0.299 0.24,0.41l-0.007,0.007c0.198,0.162 0.252,0.541 0.359,0.882c0.002,0.004 0.008,0.007 0.01,0.01c0.596,2.125 1.676,3.886 1.367,4.188c0,0 0.845,-0.137 1.268,0.368c0.424,0.503 1.247,1.62 2.181,1.258c0.934,-0.367 1.957,-0.925 1.957,-0.925c0.684,-0.49 1.534,-0.222 2.273,0.351c-0.003,0.029 -0.002,0.063 -0.006,0.091c-0.051,0.366 -0.124,1.03 -0.169,1.814c-0.891,2.095 -2.282,5.241 -3.072,6.402c0,0 -4.021,4.41 -5.236,5.1c0,0 -2.754,0.141 -3.681,0.332c0,0 1.946,0.337 3.97,0.699c1.809,-1.275 7.091,-5.498 7.091,-5.498c0,0 0.621,-0.939 1.381,-2.151c0.119,0.271 0.261,0.503 0.434,0.673c0.776,0.763 1.035,5.642 1.035,5.642l-2.935,3.706c0,0 -7.556,-1.522 -11.159,-1.853c-3.604,-0.33 -4.115,0.978 -4.792,2.76c-0.677,1.783 -3.864,10.298 -4.921,12.321c-1.057,2.02 -1.632,4.899 -1.266,6.788c0.366,1.888 -0.213,3.576 -0.213,3.576c0.968,-0.197 1.839,-0.954 1.786,-2.139c-0.051,-1.184 0.598,-1.74 0.961,-2.778c0.363,-1.04 -0.407,-1.81 -0.407,-1.81c-0.921,-2.314 1.109,-4.381 3.868,-7.794c2.038,-2.516 3.039,-5.123 3.425,-6.319c0.14,3.029 2.637,7.287 4.161,9.811c1.583,2.617 4.691,6.126 6.094,6.921c1.404,0.797 1.687,1.738 1.687,1.738c0.225,-0.356 0.563,-1.536 -0.348,-2.288c-0.91,-0.751 -1.158,-1.425 -1.698,-3.09c-0.538,-1.668 -0.995,-1.012 -1.797,-0.91c-0.801,0.102 -1.177,-1.151 -1.177,-1.151c-1.574,-2.199 -2.232,-8.595 -2.394,-10.455c3.931,1.033 9.425,2.188 11.549,1.238c4.725,-2.111 4.861,-10.984 3.924,-15.59Z" style="fill:#231f20;fill-rule:nonzero;"/><path d="M189.22,47.856l10.299,1.728l0.015,-0.628l-9.77,-1.808l-6.291,-10.507l-0.623,0.079l6.304,10.619l0.066,0.517Z" style="fill:#231f20;fill-rule:nonzero;"/><path d="M203.435,20.526c0.013,0.067 0.047,0.123 0.075,0.184l3.354,1.418c0.23,-0.054 0.414,-0.196 0.53,-0.383c0.17,0.095 0.369,0.141 0.574,0.099c0.468,-0.092 0.769,-0.543 0.678,-1.008c-0.005,-0.028 -0.024,-0.049 -0.033,-0.077c0.35,-0.165 0.567,-0.536 0.489,-0.93c-0.044,-0.225 -0.175,-0.407 -0.347,-0.53c0.135,-0.188 0.196,-0.423 0.149,-0.665c-0.089,-0.452 -0.516,-0.741 -0.966,-0.677c-0.117,-0.325 -0.41,-0.538 -0.751,-0.555c-0.141,-0.397 -0.54,-0.648 -0.963,-0.565c-0.227,0.045 -0.412,0.177 -0.535,0.351c-0.168,-0.088 -0.362,-0.135 -0.564,-0.096c-0.232,0.047 -0.425,0.183 -0.547,0.367c-0.133,-0.04 -0.27,-0.061 -0.414,-0.033c-0.467,0.092 -0.769,0.544 -0.678,1.01c0.048,0.238 0.191,0.431 0.381,0.553c-0.024,0.111 -0.027,0.228 -0.004,0.347c0.018,0.089 0.059,0.166 0.101,0.24c-0.374,0.151 -0.611,0.538 -0.529,0.95Z" style="fill:#231f20;fill-rule:nonzero;"/></g></svg>