<?xml version="1.0" encoding="UTF-8" standalone="no"?>
<svg
   xmlns:dc="http://purl.org/dc/elements/1.1/"
   xmlns:cc="http://creativecommons.org/ns#"
   xmlns:rdf="http://www.w3.org/1999/02/22-rdf-syntax-ns#"
   xmlns:svg="http://www.w3.org/2000/svg"
   xmlns="http://www.w3.org/2000/svg"
   id="svg3404"
   style="fill-rule:evenodd;clip-rule:evenodd;stroke-linejoin:round;stroke-miterlimit:1.41421;"
   xml:space="preserve"
   version="1.1"
   viewBox="0 0 400 60"
   height="100%"
   width="100%"><metadata
     id="metadata3432"><rdf:RDF><cc:Work
         rdf:about=""><dc:format>image/svg+xml</dc:format><dc:type
           rdf:resource="http://purl.org/dc/dcmitype/StillImage" /><dc:title></dc:title></cc:Work></rdf:RDF></metadata><defs
     id="defs3430" /><path
     id="path3406"
     style="fill:#4e4e4e;fill-rule:nonzero"
     d="m 54.146,26.013 14.1,0 0,17.6 c -3.8,1.3 -8,2 -12.6,2 -5,0 -8.9,-1.5 -11.6,-4.4 -2.7,-2.9 -4.1,-7.1 -4.1,-12.5 0,-5.3 1.5,-9.4 4.5,-12.3 3,-2.9 7.2,-4.4 12.6,-4.4 2.1,0 4,0.2 5.8,0.6 1.8,0.4 3.4,0.9 4.8,1.5 l -2.8,6.9 c -2.3,-1.2 -4.9,-1.7 -7.7,-1.7 -2.6,0 -4.6,0.8 -6,2.5 -1.4,1.7 -2.1,4.1 -2.1,7.2 0,3 0.6,5.4 1.9,7 1.3,1.6 3.1,2.4 5.5,2.4 1.3,0 2.5,-0.1 3.6,-0.4 l 0,-5.1 -5.8,0 -0.1,-6.9 z m 45.6,2.1 c 0,5.4 -1.5,9.6 -4.5,12.6 -3,3 -7.2,4.4 -12.6,4.4 l -10.5,0 0,-32.6 11.3,0 c 5.2,0 9.3,1.3 12.1,4 2.8,2.7 4.2,6.6 4.2,11.6 z m -9.1,0.3 c 0,-3 -0.6,-5.2 -1.8,-6.6 -1.2,-1.4 -3,-2.2 -5.4,-2.2 l -2.6,0 0,18.3 2,0 c 2.7,0 4.6,-0.8 5.9,-2.3 1.3,-1.5 1.9,-4 1.9,-7.2 z m 25.4,-2.4 14.1,0 0,17.6 c -3.8,1.3 -8,2 -12.6,2 -5,0 -8.9,-1.5 -11.6,-4.4 -2.7,-2.9 -4.1,-7.1 -4.1,-12.5 0,-5.3 1.5,-9.4 4.5,-12.3 3,-2.9 7.2,-4.4 12.6,-4.4 2.1,0 4,0.2 5.8,0.6 1.8,0.4 3.4,0.9 4.8,1.5 l -2.8,6.9 c -2.3,-1.2 -4.9,-1.7 -7.7,-1.7 -2.6,0 -4.6,0.8 -6,2.5 -1.4,1.7 -2.1,4.1 -2.1,7.2 0,3 0.6,5.4 1.9,7 1.3,1.6 3.1,2.4 5.5,2.4 1.3,0 2.5,-0.1 3.6,-0.4 l 0,-5.1 -5.8,0 -0.1,-6.9 z" /><text
     id="text3408"
     style="font-style:normal;font-variant:normal;font-weight:normal;font-stretch:normal;font-size:36px;line-height:125%;font-family:ProductSans-Regular, 'Product Sans', sans-serif;-inkscape-font-specification:'ProductSans-Regular, Product Sans, sans-serif, Normal';text-align:start;writing-mode:lr-tb;text-anchor:start;fill:#4e4e4e"
     y="44.334"
     x="135.63699"><tspan
       y="44.334"
       x="135.63699"
       id="tspan3455">Central Florida</tspan></text>
<g
     id="g3414"><path
       id="path3416"
       style="fill:#f6c25b;fill-rule:nonzero;"
       d="M9.95,59.8l6.8,0c1.6,0 3.6,-1.1 4.4,-2.5l5.7,-9.5c0.7,-1.4 0.7,-3.4 -0.1,-4.7l-3.4,-5.6l-13.4,22.3Z" /><path
       id="path3418"
       style="fill:#0a985c;fill-rule:nonzero;"
       d="M17.25,32.3l-15.1,25.3c-0.6,1.2 0,2.2 1.5,2.2l6.3,0l13.4,-22.3l-6.1,-10.2c0.8,1.4 0.8,3.6 0,5" /><path
       id="path3420"
       style="fill:#5586c5;fill-rule:nonzero;"
       d="M3.65,-0.2c-1.6,0 -2.3,1.1 -1.4,2.5l24.5,40.7c0.8,1.3 0.8,3.3 0.1,4.7l6,-9.9l-22.9,-38l-6.3,0Z" /><path
       id="path3422"
       style="fill:#d9423e;fill-rule:nonzero;"
       d="M9.95,-0.2l22.9,38l3.3,-5.5c0.8,-1.4 0.8,-3.6 0,-5l-15,-25c-0.8,-1.4 -2.8,-2.5 -4.4,-2.5l-6.8,0Z" /></g><path
     id="path3424"
     style="fill:#168b58;fill-rule:nonzero;"
     d="M17.25,32.3l-3.6,6l6.5,4.6l3.3,-5.5l-6.1,-10.2c0.7,1.5 0.7,3.7 -0.1,5.1Z" /><path
     id="path3426"
     style="fill:#d7ab56;fill-rule:nonzero;"
     d="M23.35,37.5l-3.3,5.5l6.8,4.8c0.7,-1.4 0.7,-3.4 -0.1,-4.7l-3.4,-5.6Z" /></svg>