<?xml version="1.0" encoding="UTF-8" standalone="no"?>
<!DOCTYPE svg PUBLIC "-//W3C//DTD SVG 1.1//EN" "http://www.w3.org/Graphics/SVG/1.1/DTD/svg11.dtd">
<svg width="100%" height="100%" viewBox="0 0 836 248" version="1.1" xmlns="http://www.w3.org/2000/svg" xmlns:xlink="http://www.w3.org/1999/xlink" xml:space="preserve" style="fill-rule:evenodd;clip-rule:evenodd;stroke-linejoin:round;stroke-miterlimit:1.41421;">
    <g transform="matrix(4.16667,0,0,4.16667,-0.000384952,-2.97705)">
        <path d="M37.099,35.925C36.652,33.566 34.321,31.292 31.108,31.901C27.372,32.61 26.248,37.78 21.726,38.638C17.008,39.534 14.733,35.416 13.887,30.96C13.191,27.289 13.566,22.465 19.071,21.421C23.856,20.513 26.269,25.011 29.744,24.353C32.432,23.842 34.234,21.531 33.649,18.451C32.754,13.732 25.669,10.391 16.232,12.182C5.483,14.222 -1.913,21.397 0.437,33.784C2.799,46.235 12.311,50.202 23.059,48.161C35.052,45.888 37.623,38.679 37.099,35.925Z" style="fill:rgb(0,135,195);fill-rule:nonzero;"/>
        <path d="M107.912,25.222C104.254,27.289 103.796,32.45 99.44,34.911C95.548,37.108 91.931,35.859 89.476,32.189L106.435,22.609C107.87,21.798 108.902,20.979 109.526,20.081C109.53,20.18 109.529,20.279 109.538,20.379C109.657,21.755 110.028,23.034 110.765,24.864C109.81,24.651 108.801,24.719 107.912,25.222ZM88.548,17.391C91.509,15.717 94.976,15.75 97.339,19.932L86.129,26.264C83.907,21.927 85.876,18.9 88.548,17.391ZM165.627,15.508C165.367,12.517 162.809,10.06 158.757,10.413C154.901,10.747 153.595,12.668 153.224,15.312L150.667,35.22L150.533,35.231L145.044,18.3C143.391,13.153 142.34,11.838 137.09,12.294C131.841,12.75 130.894,14.171 130.292,19.581L128.203,37.17L128.07,37.182L121.722,18.048C120.897,15.508 119.28,13.842 115.425,14.175C112.859,14.398 111.08,15.628 110.185,17.259C110.071,16.459 109.748,15.588 109.197,14.613C106.636,10.083 97.386,3.203 84.029,10.748C79.336,13.4 75.817,16.973 74.193,21.228C72.372,18.083 68.989,15.915 63.657,15.427C59.008,15.001 55.654,16.503 52.868,19.866L52.735,19.853L53.806,8.161C54.233,3.512 51.57,1.124 47.585,0.759C43.597,0.394 40.548,2.259 40.12,6.909L36.823,42.913C36.4,47.563 39.06,49.95 43.047,50.315C47.031,50.681 50.083,48.817 50.51,44.167L51.622,32.01C52,27.891 53.903,25.387 57.292,25.696C60.679,26.007 62.151,28.218 61.804,32.004L60.605,45.091C60.18,49.741 62.843,52.128 66.828,52.493C70.815,52.858 73.865,50.995 74.291,46.345L75.33,34.999C75.54,35.422 75.76,35.848 76.002,36.277C82.236,47.311 92.517,48.017 102.043,42.634C108.987,38.712 112.511,35.085 113.826,32.092L118.97,44.2C121.244,49.561 122.781,50.298 127.5,49.888C132.617,49.442 135.5,48.724 136.366,42.489L138.351,27.585L138.486,27.574L143.011,41.912C144.937,47.905 147.902,48.116 153.019,47.671C157.738,47.261 159.126,46.27 160.439,40.598L164.828,21.737C165.516,18.865 165.777,17.235 165.627,15.508Z" style="fill:rgb(0,135,195);fill-rule:nonzero;"/>
        <path d="M194.865,13.863C191.361,13.391 189.357,15.275 187.277,20.716L181.086,36.711L180.953,36.693L178.578,16.853C178.191,13.233 176.552,11.396 173.445,10.979C169.611,10.462 166.429,12.592 165.984,15.898C165.841,16.956 166.028,19.066 167.056,23.916L171.545,45.589C171.796,46.7 171.929,47.728 171.849,48.323C171.715,49.315 170.898,49.878 168.121,49.503C165.014,49.085 162.766,49.792 162.33,53.03C161.858,56.536 164.21,59.073 169.63,59.804C175.316,60.568 181.532,59.386 185.672,51.128L196.732,28.99C198.933,24.642 200.343,21.668 200.494,20.544C201.019,16.644 198.17,14.307 194.865,13.863Z" style="fill:rgb(0,135,195);fill-rule:nonzero;"/>
    </g>
</svg>
