<?xml version="1.0" encoding="UTF-8" standalone="no"?><!DOCTYPE svg PUBLIC "-//W3C//DTD SVG 1.1//EN" "http://www.w3.org/Graphics/SVG/1.1/DTD/svg11.dtd"><svg width="100%" height="100%" viewBox="0 0 155 46" version="1.1" xmlns="http://www.w3.org/2000/svg" xmlns:xlink="http://www.w3.org/1999/xlink" xml:space="preserve" style="fill-rule:evenodd;clip-rule:evenodd;stroke-linejoin:round;stroke-miterlimit:1.41421;"><path id="Logo" d="M127.622,11.398c-0.199,-2.305 -2.17,-4.198 -5.293,-3.926c-2.971,0.258 -3.977,1.738 -4.263,3.775l-1.971,15.339l-0.103,0.009l-4.23,-13.046c-1.273,-3.966 -2.083,-4.978 -6.129,-4.628c-4.044,0.352 -4.773,1.447 -5.238,5.616l-1.61,13.552l-0.101,0.008l-4.892,-14.741c-0.635,-1.958 -1.882,-3.242 -4.852,-2.985c-1.977,0.172 -3.348,1.12 -4.038,2.376c-0.087,-0.616 -0.337,-1.288 -0.762,-2.039c-1.972,-3.49 -9.1,-8.791 -19.392,-2.978c-3.616,2.044 -6.328,4.797 -7.579,8.076c-1.403,-2.424 -4.01,-4.094 -8.118,-4.47c-3.583,-0.328 -6.167,0.829 -8.314,3.42l-0.102,-0.01l0.825,-9.008c0.329,-3.582 -1.723,-5.423 -4.794,-5.704c-3.072,-0.282 -5.422,1.155 -5.752,4.738l-2.539,27.742c-0.327,3.583 1.723,5.422 4.795,5.703c3.07,0.281 5.421,-1.154 5.75,-4.738l0.857,-9.367c0.291,-3.173 1.758,-5.103 4.369,-4.864c2.61,0.239 3.744,1.944 3.477,4.861l-0.924,10.082c-0.328,3.584 1.724,5.422 4.795,5.704c3.072,0.282 5.422,-1.154 5.751,-4.737l0.8,-8.743c0.162,0.327 0.332,0.655 0.518,0.985c4.804,8.503 12.726,9.046 20.065,4.899c5.351,-3.023 8.067,-5.817 9.079,-8.123l3.965,9.33c1.751,4.13 2.936,4.697 6.572,4.381c3.943,-0.342 6.164,-0.896 6.831,-5.7l1.531,-11.484l0.104,-0.008l3.486,11.048c1.484,4.617 3.769,4.78 7.712,4.436c3.636,-0.316 4.705,-1.078 5.717,-5.449l3.382,-14.533c0.531,-2.213 0.732,-3.469 0.615,-4.799Zm-59.392,1.451c2.282,-1.289 4.953,-1.264 6.774,1.958l-8.638,4.879c-1.712,-3.342 -0.195,-5.675 1.864,-6.837Zm14.92,6.034c-2.818,1.592 -3.17,5.569 -6.527,7.465c-2.999,1.693 -5.786,0.73 -7.678,-2.098l13.068,-7.381c1.106,-0.624 1.901,-1.256 2.382,-1.947c0.002,0.076 0.002,0.153 0.008,0.229c0.092,1.06 0.379,2.046 0.946,3.456c-0.735,-0.165 -1.513,-0.111 -2.199,0.276Zm67.002,-8.752c-2.7,-0.364 -4.244,1.087 -5.847,5.28l-4.771,12.324l-0.102,-0.014l-1.83,-15.287c-0.298,-2.789 -1.561,-4.204 -3.955,-4.526c-2.954,-0.398 -5.406,1.243 -5.749,3.79c-0.11,0.816 0.034,2.442 0.826,6.179l3.458,16.698c0.195,0.857 0.297,1.648 0.235,2.107c-0.104,0.765 -0.732,1.198 -2.873,0.909c-2.393,-0.322 -4.125,0.222 -4.462,2.718c-0.363,2.701 1.448,4.656 5.626,5.219c4.381,0.59 9.17,-0.322 12.361,-6.685l8.522,-17.057c1.696,-3.351 2.782,-5.641 2.898,-6.507c0.405,-3.005 -1.791,-4.806 -4.337,-5.148Zm-121.565,16.999c-0.345,-1.818 -2.141,-3.571 -4.617,-3.102c-2.879,0.548 -3.745,4.531 -7.229,5.192c-3.635,0.69 -5.388,-2.483 -6.04,-5.917c-0.537,-2.828 -0.248,-6.545 3.994,-7.349c3.687,-0.699 5.547,2.766 8.224,2.259c2.071,-0.393 3.46,-2.174 3.009,-4.547c-0.689,-3.637 -6.149,-6.21 -13.42,-4.83c-8.283,1.571 -13.983,7.099 -12.171,16.643c1.82,9.595 9.149,12.651 17.431,11.079c9.242,-1.753 11.222,-7.307 10.819,-9.428Z" style="fill:#128ced;"/></svg>