<?xml version="1.0" encoding="UTF-8" standalone="no"?>
<!DOCTYPE svg PUBLIC "-//W3C//DTD SVG 1.1//EN" "http://www.w3.org/Graphics/SVG/1.1/DTD/svg11.dtd">
<svg width="100%" height="100%" viewBox="0 0 2256 309" version="1.1" xmlns="http://www.w3.org/2000/svg" xmlns:xlink="http://www.w3.org/1999/xlink" xml:space="preserve" style="fill-rule:evenodd;clip-rule:evenodd;stroke-linejoin:round;stroke-miterlimit:1.41421;">
    <g id="text2985" transform="matrix(8.26616,0,0,8.26616,0,267.545)">
        <path d="M38.16,-8.2C38.16,-6.92 37.86,-5.773 37.26,-4.76C36.66,-3.747 35.827,-2.887 34.76,-2.18C33.693,-1.473 32.42,-0.933 30.94,-0.56C29.46,-0.187 27.84,0 26.08,0L2.2,0L2.2,-29.56L26.16,-29.56C30.027,-29.56 32.993,-28.913 35.06,-27.62C37.127,-26.327 38.16,-24.387 38.16,-21.8L38.16,-8.2ZM31.8,-21.8C31.8,-22.12 31.647,-22.42 31.34,-22.7C31.033,-22.98 30.62,-23.22 30.1,-23.42C29.58,-23.62 28.973,-23.78 28.28,-23.9C27.587,-24.02 26.84,-24.08 26.04,-24.08L8.6,-24.08L8.6,-5.56L25.96,-5.56C27.72,-5.56 29.133,-5.793 30.2,-6.26C31.267,-6.727 31.8,-7.373 31.8,-8.2L31.8,-21.8Z" style="fill:rgb(51,102,255);fill-rule:nonzero;"/>
        <path d="M48,-8.8C48,-7.733 48.733,-6.9 50.2,-6.3C51.667,-5.7 53.933,-5.4 57,-5.4L59.52,-5.4L59.52,0L55.04,0C52.8,0 50.84,-0.207 49.16,-0.62C47.48,-1.033 46.08,-1.587 44.96,-2.28C43.84,-2.973 43,-3.78 42.44,-4.7C41.88,-5.62 41.6,-6.587 41.6,-7.6L41.6,-15.88C41.6,-17.053 41.893,-18.113 42.48,-19.06C43.067,-20.007 43.893,-20.807 44.96,-21.46C46.027,-22.113 47.307,-22.613 48.8,-22.96C50.293,-23.307 51.96,-23.48 53.8,-23.48L62.8,-23.48C64.293,-23.48 65.68,-23.32 66.96,-23C68.24,-22.68 69.34,-22.233 70.26,-21.66C71.18,-21.087 71.9,-20.38 72.42,-19.54C72.94,-18.7 73.2,-17.76 73.2,-16.72L73.2,-8.8L48,-8.8ZM67.12,-16.16C67.12,-17.493 65.44,-18.16 62.08,-18.16L53.08,-18.16C49.533,-18.16 47.76,-17.507 47.76,-16.2L47.76,-13.72L67.12,-13.72L67.12,-16.16Z" style="fill:rgb(51,102,255);fill-rule:nonzero;"/>
        <path d="M97.68,-0.88C96.987,-0.08 96.2,0.32 95.32,0.32C94.787,0.32 94.353,0.233 94.02,0.06C93.687,-0.113 93.36,-0.413 93.04,-0.84L74.2,-23.48L81.84,-23.48L95.36,-7.24L108.76,-23.48L116.36,-23.48L97.68,-0.88Z" style="fill:rgb(51,102,255);fill-rule:nonzero;"/>
        <g transform="matrix(1,0,0,1,115.96,0)">
            <rect x="1.72" y="-29.56" width="6.44" height="29.56" style="fill:rgb(119,119,119);fill-rule:nonzero;"/>
        </g>
        <g transform="matrix(1,0,0,1,115.96,0)">
            <path d="M36.72,0L36.72,-16.2C36.72,-16.733 36.213,-17.173 35.2,-17.52C34.187,-17.867 32.907,-18.04 31.36,-18.04L23.04,-18.04C21.573,-18.04 20.353,-17.86 19.38,-17.5C18.407,-17.14 17.92,-16.693 17.92,-16.16L17.92,0L11.72,0L11.72,-16.56C11.72,-21.173 15.627,-23.48 23.44,-23.48L31.36,-23.48C39.067,-23.48 42.92,-21.187 42.92,-16.6L42.92,0L36.72,0Z" style="fill:rgb(119,119,119);fill-rule:nonzero;"/>
        </g>
        <g transform="matrix(1,0,0,1,115.96,0)">
            <path d="M55.4,-18L55.4,0L49.2,0L49.2,-18L45.64,-18L45.64,-23.04L49.2,-23.04L49.2,-29.2L55.4,-29.2L55.4,-23.08L64.84,-23.08L64.84,-18L55.4,-18Z" style="fill:rgb(119,119,119);fill-rule:nonzero;"/>
        </g>
        <g transform="matrix(1,0,0,1,182.68,0)">
            <path d="M8,-8.8C8,-7.733 8.733,-6.9 10.2,-6.3C11.667,-5.7 13.933,-5.4 17,-5.4L19.52,-5.4L19.52,0L15.04,0C12.8,0 10.84,-0.207 9.16,-0.62C7.48,-1.033 6.08,-1.587 4.96,-2.28C3.84,-2.973 3,-3.78 2.44,-4.7C1.88,-5.62 1.6,-6.587 1.6,-7.6L1.6,-15.88C1.6,-17.053 1.893,-18.113 2.48,-19.06C3.067,-20.007 3.893,-20.807 4.96,-21.46C6.027,-22.113 7.307,-22.613 8.8,-22.96C10.293,-23.307 11.96,-23.48 13.8,-23.48L22.8,-23.48C24.293,-23.48 25.68,-23.32 26.96,-23C28.24,-22.68 29.34,-22.233 30.26,-21.66C31.18,-21.087 31.9,-20.38 32.42,-19.54C32.94,-18.7 33.2,-17.76 33.2,-16.72L33.2,-8.8L8,-8.8ZM27.12,-16.16C27.12,-17.493 25.44,-18.16 22.08,-18.16L13.08,-18.16C9.533,-18.16 7.76,-17.507 7.76,-16.2L7.76,-13.72L27.12,-13.72L27.12,-16.16Z" style="fill:rgb(119,119,119);fill-rule:nonzero;"/>
        </g>
        <g transform="matrix(1,0,0,1,182.68,0)">
            <path d="M61.28,0L61.28,-16.2C61.28,-16.733 60.773,-17.173 59.76,-17.52C58.747,-17.867 57.467,-18.04 55.92,-18.04L47.6,-18.04C46.133,-18.04 44.913,-17.86 43.94,-17.5C42.967,-17.14 42.48,-16.693 42.48,-16.16L42.48,0L36.28,0L36.28,-16.56C36.28,-21.173 40.187,-23.48 48,-23.48L55.92,-23.48C63.627,-23.48 67.48,-21.187 67.48,-16.6L67.48,0L61.28,0Z" style="fill:rgb(119,119,119);fill-rule:nonzero;"/>
        </g>
        <g transform="matrix(1,0,0,1,182.68,0)">
            <path d="M79.96,-18L79.96,0L73.76,0L73.76,-18L70.2,-18L70.2,-23.04L73.76,-23.04L73.76,-29.2L79.96,-29.2L79.96,-23.08L89.4,-23.08L89.4,-18L79.96,-18Z" style="fill:rgb(119,119,119);fill-rule:nonzero;"/>
        </g>
    </g>
</svg>
