<?xml version="1.0" encoding="UTF-8" standalone="no"?>
<!DOCTYPE svg PUBLIC "-//W3C//DTD SVG 1.1//EN" "http://www.w3.org/Graphics/SVG/1.1/DTD/svg11.dtd">
<svg width="100%" height="100%" viewBox="0 0 569 188" version="1.1" xmlns="http://www.w3.org/2000/svg" xmlns:xlink="http://www.w3.org/1999/xlink" xml:space="preserve" style="fill-rule:evenodd;clip-rule:evenodd;stroke-linejoin:round;stroke-miterlimit:1.41421;">
    <g transform="matrix(7.77421,0,0,7.77421,-2643.23,-2813.42)">
        <g id="g4000">
            <g id="g4429">
                <path id="path4431" d="M357.965,370.417L349.438,370.417L349.438,372.947L355.486,372.947C355.187,376.495 352.235,378.008 349.449,378.008C345.884,378.008 342.773,375.204 342.773,371.272C342.773,367.443 345.738,364.493 349.456,364.493C352.325,364.493 354.015,366.322 354.015,366.322L355.787,364.487C355.787,364.487 353.513,361.956 349.366,361.956C344.085,361.956 340,366.413 340,371.227C340,375.945 343.843,380.545 349.501,380.545C354.477,380.545 358.12,377.136 358.12,372.095C358.12,371.032 357.965,370.417 357.965,370.417Z" style="fill:rgb(72,133,237);fill-rule:nonzero;"/>
                <path id="path4433" d="M364.95,368.585C361.451,368.585 358.944,371.32 358.944,374.51C358.944,377.748 361.376,380.534 364.991,380.534C368.264,380.534 370.945,378.032 370.945,374.58C370.945,370.623 367.826,368.585 364.95,368.585L364.95,368.585ZM364.985,370.932C366.705,370.932 368.336,372.323 368.336,374.564C368.336,376.758 366.712,378.189 364.977,378.189C363.07,378.189 361.566,376.662 361.566,374.547C361.566,372.477 363.052,370.932 364.985,370.932L364.985,370.932Z" style="fill:rgb(219,50,54);fill-rule:nonzero;"/>
                <path id="path4435" d="M378.013,368.585C374.514,368.585 372.007,371.32 372.007,374.51C372.007,377.748 374.439,380.534 378.054,380.534C381.327,380.534 384.008,378.032 384.008,374.58C384.008,370.623 380.889,368.585 378.013,368.585L378.013,368.585ZM378.048,370.932C379.768,370.932 381.399,372.323 381.399,374.564C381.399,376.758 379.775,378.189 378.04,378.189C376.133,378.189 374.629,376.662 374.629,374.547C374.629,372.477 376.114,370.932 378.048,370.932L378.048,370.932Z" style="fill:rgb(244,194,13);fill-rule:nonzero;"/>
                <path id="path4437" d="M390.825,368.591C387.613,368.591 385.089,371.404 385.089,374.561C385.089,378.157 388.015,380.542 390.769,380.542C392.472,380.542 393.378,379.866 394.046,379.09L394.046,380.268C394.046,382.329 392.794,383.564 390.905,383.564C389.08,383.564 388.165,382.207 387.847,381.437L385.551,382.397C386.365,384.119 388.005,385.915 390.924,385.915C394.117,385.915 396.551,383.904 396.551,379.686L396.551,368.95L394.046,368.95L394.046,369.962C393.276,369.132 392.223,368.591 390.825,368.591L390.825,368.591ZM391.057,370.933C392.632,370.933 394.248,372.278 394.248,374.574C394.248,376.907 392.635,378.193 391.022,378.193C389.31,378.193 387.717,376.803 387.717,374.596C387.717,372.302 389.372,370.933 391.057,370.933Z" style="fill:rgb(72,133,237);fill-rule:nonzero;"/>
                <path id="path4439" d="M407.689,368.577C404.659,368.577 402.116,370.987 402.116,374.544C402.116,378.307 404.951,380.539 407.98,380.539C410.507,380.539 412.059,379.156 412.985,377.917L410.919,376.542C410.383,377.374 409.487,378.187 407.992,378.187C406.313,378.187 405.54,377.267 405.062,376.376L413.073,373.052L412.657,372.078C411.883,370.17 410.078,368.577 407.689,368.577L407.689,368.577ZM407.793,370.875C408.884,370.875 409.67,371.455 410.004,372.151L404.654,374.387C404.423,372.656 406.063,370.875 407.793,370.875Z" style="fill:rgb(219,50,54);fill-rule:nonzero;"/>
                <path id="path4441" d="M398.297,380.184L400.928,380.184L400.928,362.573L398.297,362.573L398.297,380.184Z" style="fill:rgb(60,186,84);fill-rule:nonzero;"/>
            </g>
        </g>
    </g>
</svg>
