<?xml version="1.0" encoding="UTF-8" standalone="no"?><!DOCTYPE svg PUBLIC "-//W3C//DTD SVG 1.1//EN" "http://www.w3.org/Graphics/SVG/1.1/DTD/svg11.dtd"><svg width="100%" height="100%" viewBox="0 0 2484 2112" version="1.1" xmlns="http://www.w3.org/2000/svg" xmlns:xlink="http://www.w3.org/1999/xlink" xml:space="preserve" style="fill-rule:evenodd;clip-rule:evenodd;stroke-linejoin:round;stroke-miterlimit:1.41421;"><path d="M1975.12,179.792l-179.752,179.778l-179.805,-179.778l179.805,-179.792l179.752,179.792Z" style="fill:#d2de33;fill-rule:nonzero;"/><path d="M2229.45,434.102l-179.805,179.778l-179.804,-179.778l179.804,-179.779l179.805,179.779Z" style="fill:#d2de33;fill-rule:nonzero;"/><path d="M2483.75,688.425l-179.753,179.778l-179.804,-179.778l179.804,-179.792l179.753,179.792Z" style="fill:#d2de33;fill-rule:nonzero;"/><path d="M1977.42,686.159l-179.805,179.765l-179.752,-179.765l179.752,-179.792l179.805,179.792Z" style="fill:#d2de33;fill-rule:nonzero;"/><path d="M1471.06,683.906l-179.844,179.766l-179.779,-179.766l179.779,-179.791l179.844,179.791Z" style="fill:#d2de33;fill-rule:nonzero;"/><path d="M1725.34,938.203l-179.804,179.779l-179.753,-179.779l179.753,-179.778l179.804,179.778Z" style="fill:#d2de33;fill-rule:nonzero;"/><path d="M1979.69,1192.54l-179.804,179.766l-179.753,-179.766l179.753,-179.779l179.804,179.779Z" style="fill:#d2de33;fill-rule:nonzero;"/><path d="M1832.38,1723.1l0,-1.55l0.742,0.769l-0.742,0.781Zm164.505,-166.107l-164.505,164.505l0,-162.252l-70.899,0l0,328.528l70.899,0l0,-164.622l164.583,164.622l96.537,0l-165.495,-165.455l165.377,-165.326l-96.497,0Z" style="fill:#6b6f72;fill-rule:nonzero;"/><rect x="1320.42" y="1688.1" width="306.406" height="70.911" style="fill:#6b6f72;fill-rule:nonzero;"/><rect x="1320.6" y="1817.06" width="306.406" height="70.898" style="fill:#6b6f72;fill-rule:nonzero;"/><path d="M251.979,1559.26l0,128.815l-181.107,0l0,-128.815l-70.872,0l0,328.581l70.872,0.026l0,-131.954l181.107,0l0,131.954l70.873,0l0,-328.581l-70.873,-0.026Z" style="fill:#6b6f72;fill-rule:nonzero;"/><path d="M511.419,1688.1l0,-58.086l181.068,0l0,58.086l-181.068,0Zm251.979,-92.8c0,-19.752 -15.885,-35.755 -35.572,-36.015l-0.014,-0.013l-0.364,0l-0.078,-0.013l-0.091,0.013l-19.909,0l0,-0.013l-195.951,0l-43.359,0l-27.552,0l0,328.581l70.911,0.026l0,-131.941l181.068,0l0,131.941l70.911,0l0,-292.227l-0.013,0c0,-0.117 0.013,-0.234 0.013,-0.339Z" style="fill:#6b6f72;fill-rule:nonzero;"/><path d="M1202.68,1592.79c-1.276,-18.463 -16.432,-33.085 -35.117,-33.476l-0.039,-0.039l-0.651,0l-0.091,-0.013l-0.078,0.013l-19.896,0l0,-0.039l-239.31,0l0,0.026l-27.513,0l0,328.581l70.846,0.026l0,-257.852l181.081,0l0,257.852l70.898,0l0,-294.961l-0.13,-0.118Z" style="fill:#6b6f72;fill-rule:nonzero;"/><path d="M1591.18,1559.1l-0.013,-0.013l-270.573,0l0,70.924l306.406,0l0,-34.896c0,-19.831 -16.015,-35.898 -35.82,-36.015Z" style="fill:#6b6f72;fill-rule:nonzero;"/><rect x="2177.15" y="1688.1" width="306.419" height="70.911" style="fill:#6b6f72;fill-rule:nonzero;"/><rect x="2177.33" y="1817.06" width="306.419" height="70.898" style="fill:#6b6f72;fill-rule:nonzero;"/><path d="M2447.92,1559.1l-0.013,-0.013l-270.573,0l0,70.924l306.419,0l0,-34.896c0,-19.831 -16.029,-35.898 -35.833,-36.015Z" style="fill:#6b6f72;fill-rule:nonzero;"/><path d="M1168.33,2091.94c17.474,0 26.224,-9.961 26.354,-29.583c-0.13,-19.779 -8.88,-29.584 -26.354,-29.584l-18.151,0l0,59.167l18.151,0Zm-37.929,19.622l0,-98.567l37.929,0c30.651,0 45.99,16.406 45.99,49.362c0,32.812 -15.339,49.205 -45.99,49.205l-37.929,0Z" style="fill:#6b6f72;fill-rule:nonzero;"/><path d="M1473.49,2111.58l0,-18.425l-52.448,0l0,-22.331l39.401,0l0,-18.281l-39.401,0l0,-21.12l52.578,0l0,-18.281l-72.344,0l0,98.438l72.214,0Z" style="fill:#6b6f72;fill-rule:nonzero;"/><path d="M1691.54,2013.14c-7.8,0 -15.469,2.552 -22.995,7.799c-7.396,5.378 -11.159,12.37 -11.159,20.977c0,9.675 3.229,16.406 9.818,20.443c6.588,3.893 13.854,6.315 21.653,7.122c8.737,0.938 14.245,3.229 16.406,6.992c2.149,3.633 2.149,7.396 0,11.159c-2.161,3.633 -7.669,5.521 -16.406,5.521c-10.495,-0.807 -17.89,-3.906 -22.331,-9.154l-13.046,13.177c4.309,4.31 9.557,7.8 15.742,10.495c6.041,2.552 13.711,3.907 22.851,3.907c9.688,0 18.164,-2.826 25.287,-8.477c7.265,-5.781 10.898,-12.513 10.898,-20.443c0,-10.078 -3.372,-17.344 -10.091,-21.914c-6.862,-4.713 -14.388,-7.396 -22.721,-8.203c-7.8,-1.354 -12.917,-3.359 -15.065,-5.924c-2.149,-2.683 -2.149,-5.912 0,-9.545c2.148,-3.763 7.265,-5.651 15.065,-5.651c7.929,0 13.984,2.696 18.411,7.943l13.19,-13.177c-4.44,-4.31 -9.153,-7.669 -14.127,-9.818c-5.104,-2.161 -12.24,-3.229 -21.38,-3.229Z" style="fill:#6b6f72;fill-rule:nonzero;"/><rect x="1911.95" y="2013" width="19.635" height="98.581" style="fill:#6b6f72;fill-rule:nonzero;"/><path d="M2161.26,2111.58c14.115,0 26.224,-4.441 36.172,-13.191l0,-45.846l-32.813,0l0,18.281l13.178,0l0,16.81c-3.894,2.826 -9.271,4.31 -16.407,4.31c-8.867,0 -16.002,-2.825 -21.38,-8.203c-5.378,-5.378 -8.203,-12.643 -8.203,-21.784c0,-8.476 2.695,-15.469 8.073,-20.976c5.377,-5.521 12.5,-8.204 21.38,-8.204c8.737,0 16.406,2.553 23.125,7.8l13.047,-14.388c-10.091,-8.75 -22.057,-13.047 -36.172,-13.047c-13.854,0 -25.547,4.701 -34.961,14.115c-9.414,9.414 -14.128,20.976 -14.128,34.83c0,14.115 4.714,25.951 14.128,35.365c9.414,9.414 21.107,14.128 34.961,14.128Z" style="fill:#6b6f72;fill-rule:nonzero;"/><path d="M2403.14,2111.56l0,-61.041l61.055,61.041l7.122,0l0,-98.424l-19.622,0l0,61.719l-61.732,-61.719l-6.589,0l0,98.424l19.766,0Z" style="fill:#6b6f72;fill-rule:nonzero;"/></svg>