<?xml version="1.0" encoding="UTF-8" standalone="no"?>
<!DOCTYPE svg PUBLIC "-//W3C//DTD SVG 1.1//EN" "http://www.w3.org/Graphics/SVG/1.1/DTD/svg11.dtd">
<svg width="100%" height="100%" viewBox="0 0 360 45" version="1.1" xmlns="http://www.w3.org/2000/svg" xmlns:xlink="http://www.w3.org/1999/xlink" xml:space="preserve" style="fill-rule:evenodd;clip-rule:evenodd;stroke-linejoin:round;stroke-miterlimit:1.41421;">
    <g id="Layer-1">
        <path id="path29" d="M281.219,11.625C279.949,11.625 278.902,12.053 278.063,12.906C277.224,13.76 276.813,14.723 276.813,15.813C276.813,17.195 277.427,18.731 278.656,20.438C276.615,21.8 275.222,22.949 274.5,23.844C273.78,24.741 273.437,25.837 273.438,27.156C273.438,28.31 273.734,29.308 274.313,30.188C274.89,31.068 275.611,31.763 276.531,32.25C277.451,32.737 278.428,33 279.438,33C281.496,33 283.463,31.96 285.313,29.906C286.868,31.96 288.67,33 290.719,33C291.664,33 292.499,32.717 293.219,32.188C293.937,31.659 294.403,30.953 294.625,30.094L293.875,30.094C293.34,31.038 292.58,31.531 291.594,31.531C290.869,31.531 290.203,31.307 289.563,30.875C288.923,30.444 288.03,29.421 286.906,27.813C287.378,27.186 287.904,26.213 288.469,24.875C289.14,23.255 289.803,22.148 290.438,21.563C291.073,20.976 291.805,20.573 292.656,20.344L292.656,19.594L285.906,19.594L285.906,20.344C287.559,20.532 288.375,21.204 288.375,22.406C288.375,22.907 288.19,23.608 287.844,24.5C287.498,25.394 287.035,26.257 286.438,27.094C284.777,24.738 283.024,22.306 281.156,19.781C284.172,18.264 285.656,16.707 285.656,15.094C285.656,14.057 285.225,13.201 284.313,12.563C283.399,11.924 282.352,11.625 281.219,11.625ZM309.906,11.719C308.07,11.719 306.38,12.138 304.844,13C303.307,13.862 302.109,15.189 301.25,16.969C300.393,18.747 299.969,20.642 299.969,22.656C299.969,25.724 300.888,28.198 302.75,30.063C304.61,31.927 307.035,32.844 309.969,32.844C312.745,32.844 315.026,31.828 316.813,29.813C317.285,30.435 317.599,31.154 317.781,31.969L318.469,31.969L318.469,24.813L317.781,24.813C317.661,25.995 317.258,27.233 316.594,28.5C315.931,29.768 315.043,30.657 313.906,31.188C312.767,31.718 311.652,31.969 310.563,31.969C308.526,31.969 306.807,31.162 305.438,29.531C304.071,27.899 303.406,25.56 303.406,22.5C303.406,19.268 304.029,16.767 305.281,15.031C306.536,13.293 308.215,12.438 310.344,12.438C312.081,12.438 313.647,12.982 315.031,14.063C316.416,15.143 317.332,17.042 317.781,19.781L318.469,19.781L318.281,12.063L317.594,12.063C317.501,12.974 317.253,13.869 316.813,14.719C316.204,13.961 315.263,13.28 314.031,12.656C312.798,12.033 311.422,11.719 309.906,11.719ZM189.906,11.781C188.07,11.781 186.38,12.201 184.844,13.063C183.306,13.924 182.109,15.252 181.25,17.031C180.391,18.81 179.969,20.703 179.969,22.719C179.969,25.786 180.888,28.259 182.75,30.125C184.609,31.99 187.002,32.906 189.938,32.906C192.711,32.906 194.996,31.923 196.781,29.906C197.256,30.531 197.601,31.247 197.781,32.063L198.469,32.063L198.469,24.875L197.781,24.875C197.661,26.058 197.259,27.296 196.594,28.563C195.931,29.83 195.045,30.72 193.906,31.25C192.767,31.78 191.651,32.063 190.563,32.063C188.526,32.063 186.806,31.223 185.438,29.594C184.069,27.962 183.406,25.624 183.406,22.563C183.406,19.33 184.028,16.861 185.281,15.125C186.535,13.388 188.217,12.5 190.344,12.5C192.083,12.5 193.649,13.044 195.031,14.125C196.415,15.206 197.331,17.105 197.781,19.844L198.469,19.844L198.281,12.156L197.594,12.156C197.502,13.067 197.222,13.931 196.781,14.781C196.173,14.023 195.265,13.341 194.031,12.719C192.801,12.095 191.423,11.781 189.906,11.781ZM41.25,11.844C40.1,11.844 38.492,11.889 36.438,11.969L33.875,12.063L33.875,12.75L34.25,12.75C35.29,12.75 35.968,12.851 36.281,13.031C36.595,13.213 36.784,13.528 36.875,14C36.966,14.473 37.031,15.531 37.031,17.156L37.031,27.156C37.031,28.864 36.966,29.97 36.875,30.438C36.784,30.905 36.588,31.248 36.25,31.469C35.912,31.69 35.285,31.781 34.406,31.781L33.875,31.781L33.875,32.469L43.281,32.469L43.281,31.781L42.594,31.781C41.675,31.781 41.052,31.68 40.719,31.438C40.385,31.196 40.169,30.811 40.094,30.313C40.017,29.814 40,28.768 40,27.156L40,22.844L42.25,22.844C44.593,22.844 46.227,22.628 47.156,22.188C48.087,21.746 48.782,21.103 49.281,20.25C49.779,19.396 50.031,18.396 50.031,17.281C50.031,15.997 49.668,14.937 48.938,14.094C48.207,13.25 47.268,12.675 46.125,12.344C44.982,12.012 43.364,11.844 41.25,11.844ZM21.906,12.063L21.906,12.75L22.375,12.75C23.411,12.75 24.069,12.851 24.375,13.031C24.682,13.212 24.905,13.53 25,14C25.095,14.471 25.125,15.533 25.125,17.156L25.125,24.094C25.125,26.368 25.067,28.013 24.906,29C24.748,29.989 24.249,30.836 23.469,31.563C22.689,32.289 21.733,32.656 20.594,32.656C20.034,32.656 19.568,32.554 19.188,32.375C18.809,32.196 18.625,31.944 18.625,31.625C18.625,31.505 18.671,31.333 18.781,31.094C18.903,30.824 18.969,30.563 18.969,30.313C18.969,29.892 18.83,29.54 18.531,29.25C18.234,28.959 17.85,28.813 17.406,28.813C16.972,28.813 16.611,28.989 16.313,29.313C16.015,29.636 15.875,30.026 15.875,30.5C15.875,31.285 16.295,31.961 17.125,32.531C17.957,33.1 19.115,33.375 20.656,33.375C22.028,33.375 23.245,33.149 24.281,32.688C25.317,32.225 26.161,31.575 26.781,30.719C27.401,29.861 27.77,28.966 27.906,28.063C28.041,27.16 28.094,25.852 28.094,24.125L28.094,17.156C28.094,15.461 28.149,14.389 28.25,13.938C28.35,13.486 28.564,13.164 28.875,13C29.185,12.833 29.842,12.75 30.844,12.75L31.344,12.75L31.344,12.063L21.906,12.063ZM52.781,12.063L52.781,12.75L53.344,12.75C54.384,12.75 55.035,12.851 55.344,13.031C55.652,13.213 55.874,13.528 55.969,14C56.065,14.473 56.094,15.53 56.094,17.156L56.094,26.031C56.094,27.718 56.059,28.877 55.938,29.5C55.817,30.122 55.458,30.669 54.906,31.094C54.356,31.52 53.661,31.732 52.781,31.781L52.781,32.469L60.125,32.469L60.125,31.781C59.181,31.721 58.459,31.477 57.938,31.031C57.414,30.585 57.1,30.062 57,29.469C56.899,28.876 56.844,27.761 56.844,26.125L56.844,14.188L64.969,32.469L65.688,32.469L73.719,14.188L73.719,27.188C73.719,28.895 73.689,29.97 73.594,30.438C73.499,30.905 73.275,31.247 72.938,31.469C72.598,31.69 71.995,31.781 71.125,31.781L70.406,31.781L70.406,32.469L80.219,32.469L80.219,31.781L79.313,31.781C78.387,31.781 77.763,31.679 77.438,31.438C77.109,31.197 76.892,30.84 76.813,30.344C76.732,29.847 76.688,28.763 76.688,27.156L76.688,17.156C76.688,15.46 76.737,14.39 76.844,13.938C76.948,13.486 77.157,13.165 77.469,13C77.78,12.835 78.464,12.75 79.469,12.75L80.219,12.75L80.219,12.063L73.906,12.063L66.5,28.969L59,12.063L52.781,12.063ZM281.281,12.406C282.048,12.406 282.655,12.666 283.125,13.188C283.592,13.71 283.844,14.372 283.844,15.219C283.844,16.638 282.78,17.966 280.688,19.188C279.402,17.423 278.781,16.024 278.781,15C278.781,14.258 279.009,13.657 279.469,13.156C279.927,12.656 280.521,12.406 281.281,12.406ZM41.563,12.563C43.424,12.563 44.765,12.959 45.594,13.75C46.423,14.54 46.844,15.778 46.844,17.469C46.844,18.577 46.607,19.527 46.125,20.281C45.642,21.036 45.035,21.512 44.313,21.75C43.588,21.986 42.645,22.125 41.469,22.125L40,22.125L40,12.625C40.362,12.585 40.88,12.563 41.563,12.563ZM243.625,16.438C242.431,16.438 241.467,16.786 240.688,17.531C239.909,18.276 239.5,19.225 239.5,20.344C239.5,21.078 239.704,21.759 240.063,22.406C240.421,23.055 240.893,23.596 241.531,24C242.17,24.406 243.148,24.867 244.406,25.406C245.817,26.009 246.782,26.57 247.313,27.094C247.844,27.625 248.094,28.276 248.094,29.063C248.094,29.841 247.792,30.559 247.188,31.188C246.582,31.816 245.729,32.125 244.625,32.125C242.172,32.125 240.625,30.475 239.969,27.188L239.375,27.188L239.375,32.25L239.969,32.25C240.092,31.593 240.274,31.081 240.531,30.719C241.684,32.038 243.12,32.688 244.844,32.688C246.343,32.688 247.541,32.277 248.438,31.438C249.334,30.595 249.781,29.499 249.781,28.156C249.781,27.308 249.588,26.555 249.219,25.906C248.846,25.259 248.366,24.773 247.75,24.406C247.135,24.04 246.134,23.542 244.781,22.938C243.367,22.3 242.417,21.724 241.875,21.219C241.323,20.722 241.031,20.125 241.031,19.406C241.031,18.811 241.249,18.252 241.688,17.75C242.127,17.25 242.809,17 243.75,17C244.738,17 245.627,17.352 246.375,18.031C247.126,18.713 247.642,19.627 247.938,20.813L248.438,20.813L248.438,16.719L247.938,16.719C247.893,17.212 247.699,17.67 247.344,18.094C246.725,17.416 246.119,16.965 245.531,16.75C244.942,16.533 244.293,16.438 243.625,16.438ZM89.844,16.469C87.424,16.469 85.43,17.19 83.813,18.656C82.195,20.122 81.375,22.077 81.375,24.5C81.375,26.985 82.187,28.965 83.781,30.469C85.376,31.975 87.417,32.75 89.906,32.75C92.462,32.75 94.525,31.975 96.094,30.469C97.661,28.965 98.438,27.024 98.438,24.594C98.438,22.086 97.605,20.108 95.969,18.656C94.331,17.206 92.285,16.469 89.844,16.469ZM126.125,16.469C123.682,16.469 121.767,17.31 120.344,19C118.921,20.689 118.188,22.662 118.188,24.906C118.188,27.175 118.95,29.054 120.438,30.531C121.924,32.009 123.788,32.75 126.031,32.75C127.148,32.75 128.345,32.491 129.656,32C130.619,31.639 131.407,31.469 132,31.469C132.147,31.469 132.317,31.468 132.5,31.5L132.5,29.844C132.5,28.488 132.54,27.633 132.625,27.281C132.709,26.93 132.889,26.651 133.156,26.5C133.422,26.349 133.939,26.281 134.688,26.281L134.688,25.75L127.906,25.75L127.906,26.281L128.281,26.281C128.904,26.281 129.33,26.34 129.563,26.438C129.795,26.533 129.95,26.719 130.063,27C130.175,27.282 130.25,27.844 130.25,28.688C130.25,29.406 130.115,29.998 129.875,30.469C129.638,30.94 129.215,31.328 128.563,31.656C127.908,31.987 127.173,32.156 126.375,32.156C124.815,32.156 123.49,31.598 122.438,30.438C121.384,29.279 120.875,27.283 120.875,24.5C120.875,21.71 121.436,19.782 122.531,18.688C123.626,17.594 124.901,17.031 126.375,17.031C127.801,17.031 129.001,17.501 130,18.438C131,19.375 131.621,20.645 131.844,22.25L132.375,22.25L132.375,17L131.844,17C131.774,17.633 131.602,18.233 131.344,18.781C129.966,17.242 128.227,16.469 126.125,16.469ZM330.781,16.469C328.362,16.469 326.368,17.19 324.75,18.656C323.132,20.122 322.313,22.077 322.313,24.5C322.313,26.985 323.093,28.965 324.688,30.469C326.282,31.975 328.324,32.75 330.813,32.75C333.371,32.75 335.432,31.975 337,30.469C338.567,28.965 339.375,27.024 339.375,24.594C339.375,22.086 338.543,20.108 336.906,18.656C335.269,17.206 333.221,16.469 330.781,16.469ZM229.094,16.5L224.531,27.375C224.203,28.157 223.986,28.604 223.938,28.719C223.453,29.949 223.06,30.743 222.719,31.125C222.378,31.508 221.855,31.767 221.156,31.875L221.156,32.406L225.875,32.406L225.875,31.875C225.366,31.875 224.947,31.744 224.625,31.5C224.307,31.257 224.156,30.909 224.156,30.438C224.156,29.997 224.461,29.07 225.063,27.625L225.469,26.625L231.406,26.625L232.625,29.531C232.98,30.373 233.156,30.862 233.156,31.031C233.156,31.363 233.015,31.607 232.75,31.719C232.483,31.83 231.972,31.875 231.219,31.875L231.219,32.406L237.375,32.406L237.375,31.875C236.825,31.821 236.43,31.682 236.156,31.469C235.882,31.258 235.662,30.963 235.5,30.594L234.781,28.969L229.563,16.5L229.094,16.5ZM106.344,16.563C105.465,16.563 104.275,16.591 102.781,16.656L100.563,16.75L100.563,17.281L100.813,17.281C101.621,17.281 102.162,17.361 102.406,17.5C102.648,17.639 102.805,17.888 102.875,18.25C102.946,18.612 102.969,19.407 102.969,20.656L102.969,28.375C102.969,29.686 102.945,30.515 102.875,30.875C102.806,31.234 102.634,31.488 102.375,31.656C102.117,31.826 101.641,31.906 100.969,31.906L100.469,31.906L100.469,32.438L108,32.438L108,31.906L107.25,31.906C106.538,31.906 106.032,31.81 105.781,31.625C105.529,31.441 105.369,31.162 105.313,30.781C105.255,30.404 105.25,29.601 105.25,28.375L105.25,24.938L105.875,24.938C106.296,24.938 106.581,25.015 106.781,25.156C106.979,25.298 107.346,25.663 107.875,26.313C108.403,26.959 108.914,27.638 109.406,28.344C110.939,30.551 112.1,31.911 112.844,32.438L117.031,32.438L117.031,31.906C116.114,31.876 115.33,31.618 114.656,31.125C113.985,30.63 113.058,29.588 111.875,28C110.423,26.038 109.342,24.908 108.688,24.594C110.14,24.417 111.252,23.976 112,23.25C112.75,22.524 113.125,21.622 113.125,20.594C113.125,19.713 112.828,18.977 112.25,18.344C111.673,17.708 110.934,17.248 110,16.969C109.064,16.691 107.837,16.563 106.344,16.563ZM143.75,16.563L139.156,27.406C138.827,28.187 138.645,28.635 138.594,28.75C138.113,29.98 137.686,30.806 137.344,31.188C137.001,31.57 136.51,31.798 135.813,31.906L135.813,32.438L140.531,32.438L140.531,31.906C140.02,31.906 139.601,31.806 139.281,31.563C138.961,31.319 138.813,30.94 138.813,30.469C138.813,30.028 139.116,29.101 139.719,27.656L140.125,26.656L146.063,26.656L147.25,29.563C147.604,30.405 147.813,30.924 147.813,31.094C147.813,31.425 147.673,31.638 147.406,31.75C147.14,31.862 146.63,31.906 145.875,31.906L145.875,32.438L152.031,32.438L152.031,31.906C151.483,31.852 151.086,31.745 150.813,31.531C150.539,31.32 150.317,31.026 150.156,30.656L149.438,29L144.219,16.563L143.75,16.563ZM202.125,16.719L202.125,17.25L202.438,17.25C203.238,17.25 203.731,17.331 203.969,17.469C204.205,17.608 204.366,17.856 204.438,18.219C204.512,18.581 204.563,19.377 204.563,20.625L204.563,28.313C204.563,29.625 204.512,30.484 204.438,30.844C204.366,31.203 204.197,31.457 203.938,31.625C203.677,31.795 203.207,31.875 202.531,31.875L202.125,31.875L202.125,32.406L209.25,32.406L209.25,31.875L208.844,31.875C208.133,31.875 207.629,31.779 207.375,31.594C207.121,31.408 206.968,31.132 206.906,30.75C206.844,30.367 206.813,29.551 206.813,28.313L206.813,24.531L215,24.531L215,28.313C215,29.627 214.976,30.453 214.906,30.813C214.837,31.172 214.661,31.454 214.406,31.625C214.149,31.795 213.69,31.875 213.031,31.875L212.5,31.875L212.5,32.406L219.594,32.406L219.594,31.875L219.25,31.875C218.55,31.875 218.067,31.779 217.813,31.594C217.559,31.409 217.402,31.132 217.344,30.75C217.285,30.368 217.25,29.547 217.25,28.313L217.25,20.625C217.25,19.323 217.295,18.503 217.375,18.156C217.457,17.81 217.606,17.563 217.844,17.438C218.083,17.31 218.605,17.25 219.375,17.25L219.594,17.25L219.594,16.719L212.5,16.719L212.5,17.25L212.906,17.25C213.695,17.25 214.203,17.331 214.438,17.469C214.672,17.608 214.837,17.856 214.906,18.219C214.976,18.581 215,19.377 215,20.625L215,23.75L206.813,23.75L206.813,20.625C206.813,19.323 206.855,18.503 206.938,18.156C207.02,17.81 207.195,17.563 207.438,17.438C207.679,17.31 208.164,17.25 208.938,17.25L209.25,17.25L209.25,16.719L202.125,16.719ZM252.75,16.719L252.75,17.25C253.512,17.25 254.012,17.318 254.25,17.469C254.487,17.618 254.653,17.873 254.719,18.25C254.787,18.627 254.813,19.431 254.813,20.625L254.813,28.313C254.813,29.624 254.78,30.461 254.719,30.781C254.656,31.101 254.508,31.354 254.281,31.563C254.055,31.77 253.585,31.875 252.813,31.875L252.469,31.875L252.469,32.406L265.406,32.406L265.75,27.531L265.219,27.531C264.941,28.706 264.543,29.623 264.063,30.281C263.582,30.942 263.091,31.371 262.563,31.563C262.03,31.754 261.355,31.844 260.531,31.844L259.375,31.844C258.327,31.844 257.677,31.671 257.438,31.344C257.199,31.017 257.094,29.92 257.094,28.063L257.094,24.344L258.781,24.344C259.448,24.344 259.938,24.41 260.219,24.5C260.499,24.589 260.698,24.766 260.844,25.063C260.989,25.361 261.062,25.942 261.063,26.813L261.594,26.813L261.594,21.469L261.063,21.469C261.063,22.238 261.002,22.767 260.906,23.031C260.81,23.297 260.613,23.494 260.313,23.625C260.011,23.756 259.477,23.813 258.719,23.813L257.094,23.813L257.094,17.25L259.25,17.25C260.337,17.25 261.103,17.318 261.594,17.438C262.084,17.558 262.518,17.824 262.875,18.281C263.229,18.74 263.536,19.532 263.781,20.625L264.313,20.625L263.938,16.719L252.75,16.719ZM154.063,16.75L154.063,17.281C154.909,17.281 155.443,17.353 155.688,17.469C155.933,17.585 156.106,17.842 156.219,18.25C156.331,18.658 156.406,19.452 156.406,20.656L156.406,29C156.406,29.948 156.353,30.526 156.281,30.781C156.208,31.035 155.985,31.279 155.594,31.5C155.203,31.721 154.649,31.852 153.906,31.906L153.906,32.438L159.719,32.438L159.719,31.906C158.89,31.906 158.29,31.802 157.875,31.563C157.46,31.324 157.183,31.068 157.094,30.781C157.005,30.496 156.969,29.902 156.969,29L156.969,18.094L168.125,32.813L168.594,32.813L168.594,19.813C168.594,19.141 168.647,18.688 168.75,18.406C168.853,18.125 169.093,17.856 169.469,17.656C169.847,17.456 170.375,17.336 171.031,17.281L171.031,16.75L165.375,16.75L165.375,17.281C165.992,17.281 166.499,17.369 166.938,17.531C167.377,17.693 167.67,17.911 167.813,18.188C167.955,18.466 168.031,18.963 168.031,19.656L168.031,29.031L158.75,16.75L154.063,16.75ZM89.875,17.031C91.786,17.031 93.245,17.7 94.25,19C95.255,20.3 95.75,22.154 95.75,24.594C95.75,27.103 95.238,28.983 94.219,30.25C93.197,31.517 91.82,32.156 90.063,32.156C88.058,32.156 86.564,31.517 85.563,30.25C84.561,28.983 84.063,27.118 84.063,24.594C84.063,22.108 84.561,20.207 85.563,18.938C86.564,17.668 87.993,17.031 89.875,17.031ZM330.813,17.031C332.723,17.031 334.182,17.7 335.188,19C336.195,20.3 336.687,22.154 336.688,24.594C336.688,27.103 336.176,28.983 335.156,30.25C334.135,31.517 332.757,32.156 331,32.156C328.995,32.156 327.471,31.517 326.469,30.25C325.467,28.983 324.969,27.118 324.969,24.594C324.969,22.108 325.467,20.207 326.469,18.938C327.471,17.668 328.93,17.031 330.813,17.031ZM106.219,17.125C108.044,17.125 109.237,17.461 109.781,18.125C110.325,18.789 110.594,19.678 110.594,20.781C110.594,21.416 110.503,21.942 110.344,22.375C110.183,22.807 109.965,23.172 109.688,23.438C109.41,23.704 109.043,23.893 108.594,24.031C108.145,24.17 107.609,24.25 107,24.281C106.391,24.312 105.821,24.33 105.25,24.344L105.25,17.156C105.615,17.125 105.937,17.125 106.219,17.125ZM228.438,19.406L231.188,26.031L225.719,26.031L228.438,19.406ZM143.094,19.438L145.844,26.094L140.344,26.094L143.094,19.438ZM279.125,21.094C280.721,23.178 282.637,25.888 284.844,29.25C283.6,30.697 282.245,31.438 280.781,31.438C279.463,31.438 278.262,30.868 277.219,29.719C276.175,28.57 275.656,27.323 275.656,26.031C275.656,25.193 275.958,24.335 276.563,23.438C277.164,22.54 278.025,21.765 279.125,21.094ZM342.406,29.438C341.935,29.438 341.523,29.601 341.188,29.938C340.85,30.274 340.687,30.686 340.688,31.156C340.688,31.618 340.856,32.027 341.188,32.375C341.518,32.723 341.926,32.875 342.406,32.875C342.878,32.875 343.283,32.711 343.625,32.375C343.967,32.037 344.125,31.638 344.125,31.156C344.125,30.686 343.961,30.274 343.625,29.938C343.286,29.601 342.889,29.438 342.406,29.438Z" style="fill:rgb(107,107,107);fill-rule:nonzero;"/>
        <rect id="rect2666" x="0" y="0" width="360" height="45" style="fill:none;"/>
    </g>
</svg>
