<?xml version="1.0" encoding="UTF-8" standalone="no"?>
<!DOCTYPE svg PUBLIC "-//W3C//DTD SVG 1.1//EN" "http://www.w3.org/Graphics/SVG/1.1/DTD/svg11.dtd">
<svg width="100%" height="100%" viewBox="0 0 900 325" version="1.1" xmlns="http://www.w3.org/2000/svg" xmlns:xlink="http://www.w3.org/1999/xlink" xml:space="preserve" style="fill-rule:evenodd;clip-rule:evenodd;stroke-linejoin:round;stroke-miterlimit:1.41421;">
    <g>
        <path id="Rounded.-Rectangle.-2" d="M105.637,27.016L794.363,27.016C811.284,27.016 825,40.732 825,57.653L825,266.538C825,283.459 811.284,297.175 794.363,297.175L105.637,297.175C88.716,297.175 75,283.459 75,266.538L75,57.653C75,40.732 88.716,27.016 105.637,27.016L105.637,27.016Z"/>
        <g id="logo.-SlidesLive">
            <g>
                <g transform="matrix(1,0,0,1,186.406,184.507)">
                    <path d="M45.893,-19.972C45.893,-22.628 45.014,-24.68 43.254,-26.129C41.495,-27.577 38.339,-29.112 33.786,-30.733C24.266,-33.734 17.212,-36.951 12.624,-40.383C8.037,-43.815 5.743,-48.773 5.743,-55.258C5.743,-61.57 8.477,-66.675 13.944,-70.573C19.411,-74.471 26.353,-76.42 34.769,-76.42C43.116,-76.42 49.955,-74.272 55.284,-69.978C60.613,-65.684 63.191,-60.156 63.019,-53.395L62.916,-53.085L45.945,-53.085C45.945,-56.086 44.927,-58.526 42.892,-60.406C40.857,-62.286 38.046,-63.226 34.459,-63.226C30.94,-63.226 28.181,-62.45 26.18,-60.898C24.18,-59.345 23.179,-57.431 23.179,-55.155C23.179,-52.947 24.188,-51.179 26.206,-49.851C28.224,-48.523 32.01,-46.859 37.563,-44.858C46.117,-42.306 52.559,-39.167 56.888,-35.442C61.217,-31.716 63.381,-26.594 63.381,-20.075C63.381,-13.452 60.803,-8.27 55.646,-4.527C50.489,-0.785 43.651,1.087 35.131,1.087C26.577,1.087 19.178,-1.061 12.935,-5.355C6.692,-9.649 3.656,-15.832 3.829,-23.904L3.932,-24.214L20.955,-24.214C20.955,-19.868 22.127,-16.764 24.473,-14.901C26.818,-13.038 30.371,-12.107 35.131,-12.107C38.753,-12.107 41.452,-12.831 43.229,-14.28C45.005,-15.729 45.893,-17.626 45.893,-19.972Z" style="fill:white;fill-rule:nonzero;"/>
                </g>
                <g transform="matrix(1,0,0,1,186.406,184.507)">
                    <rect x="72.643" y="-80.714" width="17.54" height="80.714" style="fill:white;fill-rule:nonzero;"/>
                </g>
                <g transform="matrix(1,0,0,1,186.406,184.507)">
                    <path d="M119.208,0L101.669,0L101.669,-55.982L119.208,-55.982L119.208,0ZM119.208,-68.969L101.669,-68.969L101.669,-80.714L119.208,-80.714L119.208,-68.969Z" style="fill:white;fill-rule:nonzero;"/>
                </g>
                <g transform="matrix(1,0,0,1,186.406,184.507)">
                    <path d="M127.59,-27.888C127.59,-36.614 129.496,-43.651 133.307,-48.998C137.119,-54.344 142.491,-57.017 149.424,-57.017C152.011,-57.017 154.348,-56.422 156.435,-55.232C158.522,-54.042 160.393,-52.343 162.049,-50.136L162.049,-80.714L179.537,-80.714L179.537,0L164.377,0L163.135,-6.881C161.411,-4.294 159.402,-2.32 157.108,-0.957C154.814,0.405 152.218,1.087 149.321,1.087C142.422,1.087 137.076,-1.466 133.282,-6.571C129.487,-11.676 127.59,-18.419 127.59,-26.801L127.59,-27.888ZM145.078,-26.801C145.078,-22.248 145.742,-18.704 147.07,-16.169C148.398,-13.633 150.632,-12.366 153.771,-12.366C155.599,-12.366 157.211,-12.702 158.608,-13.375C160.005,-14.047 161.152,-15.039 162.049,-16.35L162.049,-38.96C161.152,-40.443 160.014,-41.582 158.634,-42.375C157.254,-43.168 155.668,-43.565 153.874,-43.565C150.77,-43.565 148.528,-42.133 147.148,-39.27C145.768,-36.408 145.078,-32.613 145.078,-27.888L145.078,-26.801Z" style="fill:white;fill-rule:nonzero;"/>
                </g>
                <g transform="matrix(1,0,0,1,370.793,184.507)">
                    <path d="M30.526,1.087C22.283,1.087 15.703,-1.5 10.788,-6.674C5.872,-11.848 3.415,-18.333 3.415,-26.129L3.415,-28.095C3.415,-36.614 5.648,-43.573 10.115,-48.972C14.582,-54.37 20.972,-57.052 29.285,-57.017C36.873,-57.017 42.823,-54.741 47.135,-50.188C51.447,-45.634 53.602,-39.46 53.602,-31.665L53.602,-22.507L21.627,-22.507L21.524,-22.196C21.903,-19.333 23.076,-16.979 25.042,-15.134C27.008,-13.288 29.63,-12.366 32.906,-12.366C36.218,-12.366 38.865,-12.624 40.849,-13.142C42.832,-13.659 45.341,-14.556 48.377,-15.832L52.516,-5.174C50.067,-3.38 46.902,-1.889 43.022,-0.698C39.141,0.492 34.976,1.087 30.526,1.087ZM29.285,-43.565C26.767,-43.565 24.878,-42.668 23.619,-40.874C22.36,-39.081 21.593,-36.683 21.317,-33.683L21.472,-33.424L36.528,-33.424L36.528,-34.769C36.528,-37.598 35.942,-39.771 34.769,-41.288C33.596,-42.806 31.768,-43.565 29.285,-43.565Z" style="fill:white;fill-rule:nonzero;"/>
                </g>
                <g transform="matrix(1,0,0,1,370.793,184.507)">
                    <path d="M90.182,-15.729C90.182,-17.109 89.398,-18.342 87.828,-19.428C86.259,-20.515 83.404,-21.489 79.265,-22.352C72.746,-23.628 67.831,-25.611 64.519,-28.302C61.208,-30.992 59.552,-34.666 59.552,-39.322C59.552,-44.255 61.622,-48.437 65.761,-51.869C69.9,-55.301 75.506,-57.017 82.577,-57.017C90.027,-57.017 95.96,-55.353 100.375,-52.024C104.79,-48.696 106.894,-44.393 106.687,-39.115L106.584,-38.805L89.613,-38.805C89.613,-41.012 89.053,-42.685 87.932,-43.824C86.811,-44.962 85.008,-45.531 82.525,-45.531C80.697,-45.531 79.162,-45.031 77.92,-44.031C76.678,-43.03 76.057,-41.754 76.057,-40.202C76.057,-38.719 76.773,-37.46 78.205,-36.425C79.636,-35.39 82.525,-34.459 86.871,-33.631C93.701,-32.286 98.763,-30.276 102.057,-27.603C105.351,-24.93 106.998,-21.144 106.998,-16.246C106.998,-11.21 104.764,-7.062 100.297,-3.803C95.831,-0.543 89.924,1.087 82.577,1.087C74.954,1.087 68.926,-0.845 64.494,-4.708C60.061,-8.572 57.949,-12.883 58.155,-17.643L58.259,-17.954L74.091,-17.954C74.16,-15.298 74.962,-13.383 76.497,-12.211C78.032,-11.038 80.214,-10.451 83.042,-10.451C85.388,-10.451 87.164,-10.908 88.371,-11.823C89.579,-12.737 90.182,-14.039 90.182,-15.729Z" style="fill:white;fill-rule:nonzero;"/>
                </g>
                <g transform="matrix(1,0,0,1,370.793,184.507)">
                    <path d="M133.696,-13.452L166.136,-13.452L166.136,0L116.156,0L116.156,-75.333L133.696,-75.333L133.696,-13.452Z" style="fill:white;fill-rule:nonzero;"/>
                </g>
                <g transform="matrix(1,0,0,1,538.324,184.507)">
                    <path d="M23.283,0L5.743,0L5.743,-55.982L23.283,-55.982L23.283,0ZM23.283,-68.969L5.743,-68.969L5.743,-80.714L23.283,-80.714L23.283,-68.969Z" style="fill:white;fill-rule:nonzero;"/>
                </g>
                <g transform="matrix(1,0,0,1,538.324,184.507)">
                    <path d="M54.948,-23.076L55.982,-17.126L56.293,-17.074L57.431,-23.076L64.83,-55.982L83.198,-55.982L64.985,0L47.238,0L29.026,-55.982L47.445,-55.982L54.948,-23.076Z" style="fill:white;fill-rule:nonzero;"/>
                </g>
                <g transform="matrix(1,0,0,1,538.324,184.507)">
                    <path d="M113.362,1.087C105.118,1.087 98.538,-1.5 93.623,-6.674C88.708,-11.848 86.25,-18.333 86.25,-26.129L86.25,-28.095C86.25,-36.614 88.484,-43.573 92.95,-48.972C97.417,-54.37 103.807,-57.052 112.12,-57.017C119.709,-57.017 125.659,-54.741 129.97,-50.188C134.282,-45.634 136.438,-39.46 136.438,-31.665L136.438,-22.507L104.463,-22.507L104.359,-22.196C104.738,-19.333 105.911,-16.979 107.877,-15.134C109.843,-13.288 112.465,-12.366 115.742,-12.366C119.053,-12.366 121.701,-12.624 123.684,-13.142C125.667,-13.659 128.177,-14.556 131.212,-15.832L135.351,-5.174C132.902,-3.38 129.737,-1.889 125.857,-0.698C121.976,0.492 117.811,1.087 113.362,1.087ZM112.12,-43.565C109.602,-43.565 107.714,-42.668 106.455,-40.874C105.196,-39.081 104.428,-36.683 104.152,-33.683L104.307,-33.424L119.364,-33.424L119.364,-34.769C119.364,-37.598 118.777,-39.771 117.604,-41.288C116.432,-42.806 114.604,-43.565 112.12,-43.565Z" style="fill:white;fill-rule:nonzero;"/>
                </g>
            </g>
            <g>
                <g transform="matrix(1,0,0,1,701.658,99.452)">
                    <path d="M8.75,-10.778L8.75,0L2.202,0L2.202,-28.124L13.019,-28.124C16.277,-28.124 18.859,-27.371 20.765,-25.864C22.67,-24.357 23.623,-22.297 23.623,-19.683C23.623,-18.228 23.24,-16.979 22.474,-15.936C21.708,-14.893 20.578,-14.043 19.084,-13.386C20.81,-12.897 22.049,-12.082 22.802,-10.942C23.556,-9.803 23.932,-8.383 23.932,-6.683L23.932,-4.906C23.932,-4.172 24.042,-3.335 24.261,-2.395C24.48,-1.455 24.86,-0.786 25.4,-0.386L25.4,0L18.678,0C18.163,-0.399 17.825,-1.107 17.664,-2.125C17.503,-3.142 17.423,-4.082 17.423,-4.945L17.423,-6.645C17.423,-7.984 17.069,-9.008 16.361,-9.716C15.652,-10.424 14.616,-10.778 13.251,-10.778L8.75,-10.778ZM8.75,-15.8L13.058,-15.8C14.371,-15.8 15.375,-16.1 16.071,-16.699C16.766,-17.297 17.114,-18.157 17.114,-19.277C17.114,-20.423 16.757,-21.347 16.042,-22.049C15.327,-22.751 14.32,-23.102 13.019,-23.102L8.75,-23.102L8.75,-15.8Z" style="fill:white;fill-rule:nonzero;"/>
                </g>
                <g transform="matrix(1,0,0,1,727.669,99.452)">
                    <path d="M19.78,-12.034L8.75,-12.034L8.75,-5.022L21.75,-5.022L21.75,0L2.202,0L2.202,-28.124L21.788,-28.124L21.788,-23.102L8.75,-23.102L8.75,-17.056L19.78,-17.056L19.78,-12.034Z" style="fill:white;fill-rule:nonzero;"/>
                    <path d="M46.609,-9.87L46.648,-9.755C46.519,-6.458 45.544,-3.94 43.722,-2.202C41.899,-0.464 39.256,0.406 35.792,0.406C32.316,0.406 29.489,-0.663 27.313,-2.801C25.136,-4.938 24.048,-7.713 24.048,-11.126L24.048,-16.998C24.048,-20.398 25.095,-23.169 27.187,-25.314C29.28,-27.458 32,-28.53 35.348,-28.53C38.902,-28.53 41.619,-27.635 43.499,-25.845C45.38,-24.055 46.442,-21.511 46.687,-18.215L46.648,-18.099L40.293,-18.099C40.203,-19.928 39.794,-21.286 39.066,-22.175C38.339,-23.063 37.099,-23.507 35.348,-23.507C33.867,-23.507 32.702,-22.912 31.852,-21.721C31.002,-20.53 30.577,-18.968 30.577,-17.037L30.577,-11.126C30.577,-9.181 31.041,-7.61 31.968,-6.413C32.895,-5.215 34.17,-4.617 35.792,-4.617C37.363,-4.617 38.477,-5.035 39.134,-5.872C39.791,-6.709 40.164,-8.042 40.254,-9.87L46.609,-9.87Z" style="fill:white;fill-rule:nonzero;"/>
                </g>
            </g>
            <g id="Professional.-Conference.-Recording.-.-.-">
                <g transform="matrix(1,0,0,1,145.027,236.947)">
                    <path d="M7.58,-9.044L7.58,0L2.292,0L2.292,-25.668L12.305,-25.668C14.232,-25.668 15.928,-25.315 17.391,-24.61C18.854,-23.905 19.979,-22.903 20.767,-21.604C21.554,-20.306 21.948,-18.828 21.948,-17.171C21.948,-14.655 21.087,-12.672 19.365,-11.221C17.644,-9.769 15.261,-9.044 12.217,-9.044L7.58,-9.044ZM7.58,-13.327L12.305,-13.327C13.704,-13.327 14.77,-13.657 15.505,-14.315C16.239,-14.973 16.606,-15.913 16.606,-17.135C16.606,-18.393 16.236,-19.409 15.496,-20.185C14.755,-20.961 13.733,-21.36 12.428,-21.384L7.58,-21.384L7.58,-13.327Z" style="fill:white;fill-rule:nonzero;"/>
                </g>
                <g transform="matrix(1,0,0,1,145.027,236.947)">
                    <path d="M35.963,-14.297C35.27,-14.391 34.658,-14.438 34.13,-14.438C32.202,-14.438 30.939,-13.786 30.339,-12.481L30.339,0L25.245,0L25.245,-19.074L30.057,-19.074L30.198,-16.8C31.221,-18.551 32.637,-19.427 34.447,-19.427C35.011,-19.427 35.54,-19.351 36.033,-19.198L35.963,-14.297Z" style="fill:white;fill-rule:nonzero;"/>
                </g>
                <g transform="matrix(1,0,0,1,180.836,236.947)">
                    <path d="M1.164,-9.714C1.164,-11.606 1.528,-13.292 2.257,-14.773C2.985,-16.254 4.034,-17.4 5.403,-18.211C6.772,-19.022 8.362,-19.427 10.172,-19.427C12.746,-19.427 14.846,-18.64 16.474,-17.065C18.102,-15.49 19.01,-13.351 19.198,-10.648L19.233,-9.343C19.233,-6.417 18.416,-4.069 16.783,-2.301C15.149,-0.532 12.957,0.353 10.207,0.353C7.457,0.353 5.262,-0.529 3.623,-2.292C1.983,-4.055 1.164,-6.452 1.164,-9.484L1.164,-9.714ZM6.258,-9.343C6.258,-7.533 6.599,-6.15 7.281,-5.192C7.962,-4.234 8.938,-3.755 10.207,-3.755C11.441,-3.755 12.405,-4.228 13.098,-5.174C13.792,-6.12 14.138,-7.633 14.138,-9.714C14.138,-11.488 13.792,-12.863 13.098,-13.839C12.405,-14.814 11.429,-15.302 10.172,-15.302C8.926,-15.302 7.962,-14.817 7.281,-13.848C6.599,-12.878 6.258,-11.377 6.258,-9.343Z" style="fill:white;fill-rule:nonzero;"/>
                </g>
                <g transform="matrix(1,0,0,1,180.836,236.947)">
                    <path d="M23.764,0L23.764,-15.337L20.926,-15.337L20.926,-19.074L23.764,-19.074L23.764,-20.696C23.764,-22.835 24.378,-24.495 25.606,-25.677C26.834,-26.858 28.553,-27.448 30.762,-27.448C31.468,-27.448 32.331,-27.331 33.354,-27.096L33.301,-23.147C32.878,-23.253 32.361,-23.305 31.75,-23.305C29.834,-23.305 28.876,-22.406 28.876,-20.608L28.876,-19.074L32.666,-19.074L32.666,-15.337L28.876,-15.337L28.876,0L23.764,0Z" style="fill:white;fill-rule:nonzero;"/>
                </g>
                <g transform="matrix(1,0,0,1,180.836,236.947)">
                    <path d="M43.667,0.353C40.87,0.353 38.593,-0.505 36.836,-2.221C35.079,-3.937 34.2,-6.223 34.2,-9.079L34.2,-9.572C34.2,-11.488 34.57,-13.201 35.311,-14.711C36.051,-16.222 37.1,-17.385 38.457,-18.202C39.815,-19.019 41.363,-19.427 43.103,-19.427C45.712,-19.427 47.766,-18.604 49.264,-16.959C50.762,-15.314 51.512,-12.981 51.512,-9.96L51.512,-7.88L39.365,-7.88C39.53,-6.634 40.026,-5.635 40.855,-4.883C41.684,-4.131 42.732,-3.755 44.002,-3.755C45.964,-3.755 47.498,-4.466 48.603,-5.888L51.106,-3.085C50.342,-2.004 49.308,-1.161 48.004,-0.555C46.699,0.05 45.253,0.353 43.667,0.353ZM43.085,-15.302C42.074,-15.302 41.255,-14.961 40.626,-14.279C39.997,-13.598 39.595,-12.622 39.418,-11.353L46.505,-11.353L46.505,-11.758C46.482,-12.887 46.176,-13.759 45.588,-14.376C45.001,-14.993 44.166,-15.302 43.085,-15.302Z" style="fill:white;fill-rule:nonzero;"/>
                </g>
                <g transform="matrix(1,0,0,1,180.836,236.947)">
                    <path d="M64.733,-5.271C64.733,-5.894 64.425,-6.385 63.808,-6.743C63.191,-7.102 62.201,-7.422 60.837,-7.704C56.301,-8.656 54.033,-10.583 54.033,-13.486C54.033,-15.178 54.735,-16.592 56.139,-17.726C57.544,-18.86 59.38,-19.427 61.648,-19.427C64.069,-19.427 66.006,-18.857 67.457,-17.717C68.908,-16.577 69.634,-15.096 69.634,-13.275L64.539,-13.275C64.539,-14.003 64.304,-14.606 63.834,-15.082C63.364,-15.558 62.63,-15.796 61.631,-15.796C60.773,-15.796 60.109,-15.602 59.639,-15.214C59.168,-14.826 58.933,-14.332 58.933,-13.733C58.933,-13.169 59.201,-12.713 59.736,-12.367C60.27,-12.02 61.172,-11.72 62.442,-11.468C63.711,-11.215 64.78,-10.93 65.65,-10.613C68.341,-9.625 69.687,-7.915 69.687,-5.483C69.687,-3.743 68.941,-2.336 67.448,-1.26C65.956,-0.185 64.028,0.353 61.666,0.353C60.068,0.353 58.648,0.068 57.409,-0.502C56.169,-1.072 55.196,-1.854 54.491,-2.847C53.786,-3.84 53.433,-4.913 53.433,-6.064L58.264,-6.064C58.311,-5.159 58.645,-4.466 59.268,-3.984C59.891,-3.502 60.726,-3.261 61.772,-3.261C62.747,-3.261 63.485,-3.446 63.984,-3.817C64.484,-4.187 64.733,-4.672 64.733,-5.271Z" style="fill:white;fill-rule:nonzero;"/>
                </g>
                <g transform="matrix(1,0,0,1,180.836,236.947)">
                    <path d="M83.297,-5.271C83.297,-5.894 82.988,-6.385 82.371,-6.743C81.754,-7.102 80.764,-7.422 79.401,-7.704C74.864,-8.656 72.596,-10.583 72.596,-13.486C72.596,-15.178 73.298,-16.592 74.702,-17.726C76.107,-18.86 77.943,-19.427 80.212,-19.427C82.633,-19.427 84.569,-18.857 86.02,-17.717C87.472,-16.577 88.197,-15.096 88.197,-13.275L83.103,-13.275C83.103,-14.003 82.868,-14.606 82.398,-15.082C81.927,-15.558 81.193,-15.796 80.194,-15.796C79.336,-15.796 78.672,-15.602 78.202,-15.214C77.732,-14.826 77.497,-14.332 77.497,-13.733C77.497,-13.169 77.764,-12.713 78.299,-12.367C78.834,-12.02 79.736,-11.72 81.005,-11.468C82.274,-11.215 83.344,-10.93 84.213,-10.613C86.905,-9.625 88.25,-7.915 88.25,-5.483C88.25,-3.743 87.504,-2.336 86.011,-1.26C84.519,-0.185 82.591,0.353 80.229,0.353C78.631,0.353 77.212,0.068 75.972,-0.502C74.732,-1.072 73.759,-1.854 73.054,-2.847C72.349,-3.84 71.996,-4.913 71.996,-6.064L76.827,-6.064C76.874,-5.159 77.209,-4.466 77.832,-3.984C78.455,-3.502 79.289,-3.261 80.335,-3.261C81.31,-3.261 82.048,-3.446 82.547,-3.817C83.047,-4.187 83.297,-4.672 83.297,-5.271Z" style="fill:white;fill-rule:nonzero;"/>
                </g>
                <g transform="matrix(1,0,0,1,180.836,236.947)">
                    <path d="M96.906,0L91.794,0L91.794,-19.074L96.906,-19.074L96.906,0ZM91.494,-24.011C91.494,-24.774 91.75,-25.403 92.261,-25.897C92.772,-26.39 93.468,-26.637 94.35,-26.637C95.22,-26.637 95.913,-26.39 96.43,-25.897C96.947,-25.403 97.206,-24.774 97.206,-24.011C97.206,-23.235 96.944,-22.6 96.421,-22.107C95.898,-21.613 95.208,-21.366 94.35,-21.366C93.492,-21.366 92.802,-21.613 92.279,-22.107C91.756,-22.6 91.494,-23.235 91.494,-24.011Z" style="fill:white;fill-rule:nonzero;"/>
                </g>
                <g transform="matrix(1,0,0,1,180.836,236.947)">
                    <path d="M100.308,-9.714C100.308,-11.606 100.673,-13.292 101.401,-14.773C102.13,-16.254 103.179,-17.4 104.548,-18.211C105.917,-19.022 107.507,-19.427 109.317,-19.427C111.891,-19.427 113.991,-18.64 115.619,-17.065C117.247,-15.49 118.155,-13.351 118.343,-10.648L118.378,-9.343C118.378,-6.417 117.561,-4.069 115.928,-2.301C114.294,-0.532 112.102,0.353 109.352,0.353C106.602,0.353 104.407,-0.529 102.768,-2.292C101.128,-4.055 100.308,-6.452 100.308,-9.484L100.308,-9.714ZM105.403,-9.343C105.403,-7.533 105.744,-6.15 106.426,-5.192C107.107,-4.234 108.083,-3.755 109.352,-3.755C110.586,-3.755 111.55,-4.228 112.243,-5.174C112.937,-6.12 113.283,-7.633 113.283,-9.714C113.283,-11.488 112.937,-12.863 112.243,-13.839C111.55,-14.814 110.574,-15.302 109.317,-15.302C108.071,-15.302 107.107,-14.817 106.426,-13.848C105.744,-12.878 105.403,-11.377 105.403,-9.343Z" style="fill:white;fill-rule:nonzero;"/>
                </g>
                <g transform="matrix(1,0,0,1,180.836,236.947)">
                    <path d="M126.205,-19.074L126.364,-16.871C127.727,-18.575 129.555,-19.427 131.847,-19.427C133.868,-19.427 135.372,-18.834 136.36,-17.647C137.347,-16.46 137.852,-14.685 137.876,-12.323L137.876,0L132.781,0L132.781,-12.199C132.781,-13.28 132.546,-14.065 132.076,-14.553C131.606,-15.04 130.824,-15.284 129.731,-15.284C128.297,-15.284 127.222,-14.673 126.505,-13.451L126.505,0L121.41,0L121.41,-19.074L126.205,-19.074Z" style="fill:white;fill-rule:nonzero;"/>
                </g>
                <g transform="matrix(1,0,0,1,180.836,236.947)">
                    <path d="M152.79,0C152.555,-0.458 152.384,-1.028 152.278,-1.71C151.044,-0.335 149.44,0.353 147.466,0.353C145.597,0.353 144.049,-0.188 142.821,-1.269C141.592,-2.351 140.978,-3.714 140.978,-5.359C140.978,-7.381 141.728,-8.932 143.226,-10.013C144.725,-11.094 146.89,-11.641 149.722,-11.653L152.067,-11.653L152.067,-12.746C152.067,-13.627 151.841,-14.332 151.388,-14.861C150.936,-15.39 150.222,-15.654 149.246,-15.654C148.388,-15.654 147.716,-15.449 147.228,-15.037C146.74,-14.626 146.496,-14.062 146.496,-13.345L141.401,-13.345C141.401,-14.45 141.742,-15.472 142.424,-16.413C143.106,-17.353 144.069,-18.09 145.315,-18.625C146.561,-19.16 147.959,-19.427 149.511,-19.427C151.861,-19.427 153.727,-18.836 155.108,-17.655C156.489,-16.474 157.179,-14.814 157.179,-12.675L157.179,-4.407C157.191,-2.597 157.444,-1.228 157.937,-0.3L157.937,0L152.79,0ZM148.576,-3.543C149.329,-3.543 150.022,-3.711 150.657,-4.046C151.291,-4.381 151.761,-4.83 152.067,-5.394L152.067,-8.673L150.163,-8.673C147.613,-8.673 146.255,-7.792 146.091,-6.029L146.073,-5.729C146.073,-5.095 146.296,-4.572 146.743,-4.16C147.19,-3.749 147.801,-3.543 148.576,-3.543Z" style="fill:white;fill-rule:nonzero;"/>
                </g>
                <g transform="matrix(1,0,0,1,180.836,236.947)">
                    <rect x="161.357" y="-27.078" width="5.112" height="27.078" style="fill:white;fill-rule:nonzero;"/>
                </g>
                <g transform="matrix(1,0,0,1,180.836,236.947)">
                    <path d="M200.141,-8.55C199.941,-5.788 198.922,-3.614 197.082,-2.027C195.243,-0.441 192.819,0.353 189.81,0.353C186.52,0.353 183.931,-0.755 182.045,-2.97C180.159,-5.186 179.215,-8.227 179.215,-12.093L179.215,-13.662C179.215,-16.13 179.65,-18.305 180.52,-20.185C181.39,-22.066 182.633,-23.508 184.249,-24.513C185.864,-25.518 187.742,-26.02 189.881,-26.02C192.843,-26.02 195.228,-25.227 197.038,-23.64C198.848,-22.054 199.894,-19.827 200.176,-16.959L194.888,-16.959C194.758,-18.616 194.297,-19.818 193.504,-20.564C192.71,-21.31 191.503,-21.684 189.881,-21.684C188.118,-21.684 186.799,-21.052 185.923,-19.788C185.048,-18.525 184.598,-16.565 184.575,-13.909L184.575,-11.97C184.575,-9.196 184.995,-7.169 185.835,-5.888C186.675,-4.607 188.001,-3.967 189.81,-3.967C191.444,-3.967 192.663,-4.34 193.468,-5.086C194.273,-5.832 194.735,-6.987 194.852,-8.55L200.141,-8.55Z" style="fill:white;fill-rule:nonzero;"/>
                </g>
                <g transform="matrix(1,0,0,1,180.836,236.947)">
                    <path d="M202.486,-9.714C202.486,-11.606 202.85,-13.292 203.579,-14.773C204.307,-16.254 205.356,-17.4 206.725,-18.211C208.095,-19.022 209.684,-19.427 211.494,-19.427C214.068,-19.427 216.169,-18.64 217.796,-17.065C219.424,-15.49 220.332,-13.351 220.52,-10.648L220.555,-9.343C220.555,-6.417 219.738,-4.069 218.105,-2.301C216.471,-0.532 214.279,0.353 211.529,0.353C208.779,0.353 206.584,-0.529 204.945,-2.292C203.305,-4.055 202.486,-6.452 202.486,-9.484L202.486,-9.714ZM207.58,-9.343C207.58,-7.533 207.921,-6.15 208.603,-5.192C209.284,-4.234 210.26,-3.755 211.529,-3.755C212.763,-3.755 213.727,-4.228 214.42,-5.174C215.114,-6.12 215.46,-7.633 215.46,-9.714C215.46,-11.488 215.114,-12.863 214.42,-13.839C213.727,-14.814 212.752,-15.302 211.494,-15.302C210.248,-15.302 209.284,-14.817 208.603,-13.848C207.921,-12.878 207.58,-11.377 207.58,-9.343Z" style="fill:white;fill-rule:nonzero;"/>
                </g>
                <g transform="matrix(1,0,0,1,180.836,236.947)">
                    <path d="M228.382,-19.074L228.541,-16.871C229.904,-18.575 231.732,-19.427 234.024,-19.427C236.045,-19.427 237.55,-18.834 238.537,-17.647C239.524,-16.46 240.029,-14.685 240.053,-12.323L240.053,0L234.958,0L234.958,-12.199C234.958,-13.28 234.723,-14.065 234.253,-14.553C233.783,-15.04 233.001,-15.284 231.908,-15.284C230.474,-15.284 229.399,-14.673 228.682,-13.451L228.682,0L223.587,0L223.587,-19.074L228.382,-19.074Z" style="fill:white;fill-rule:nonzero;"/>
                </g>
                <g transform="matrix(1,0,0,1,180.836,236.947)">
                    <path d="M245.306,0L245.306,-15.337L242.468,-15.337L242.468,-19.074L245.306,-19.074L245.306,-20.696C245.306,-22.835 245.92,-24.495 247.148,-25.677C248.377,-26.858 250.095,-27.448 252.305,-27.448C253.01,-27.448 253.874,-27.331 254.896,-27.096L254.843,-23.147C254.42,-23.253 253.903,-23.305 253.292,-23.305C251.376,-23.305 250.419,-22.406 250.419,-20.608L250.419,-19.074L254.209,-19.074L254.209,-15.337L250.419,-15.337L250.419,0L245.306,0Z" style="fill:white;fill-rule:nonzero;"/>
                </g>
                <g transform="matrix(1,0,0,1,435.223,236.947)">
                    <path d="M10.736,0.353C7.939,0.353 5.662,-0.505 3.905,-2.221C2.148,-3.937 1.269,-6.223 1.269,-9.079L1.269,-9.572C1.269,-11.488 1.639,-13.201 2.38,-14.711C3.12,-16.222 4.169,-17.385 5.527,-18.202C6.884,-19.019 8.432,-19.427 10.172,-19.427C12.781,-19.427 14.835,-18.604 16.333,-16.959C17.832,-15.314 18.581,-12.981 18.581,-9.96L18.581,-7.88L6.435,-7.88C6.599,-6.634 7.096,-5.635 7.924,-4.883C8.753,-4.131 9.802,-3.755 11.071,-3.755C13.034,-3.755 14.567,-4.466 15.672,-5.888L18.175,-3.085C17.411,-2.004 16.377,-1.161 15.073,-0.555C13.768,0.05 12.323,0.353 10.736,0.353ZM10.154,-15.302C9.144,-15.302 8.324,-14.961 7.695,-14.279C7.066,-13.598 6.664,-12.622 6.487,-11.353L13.574,-11.353L13.574,-11.758C13.551,-12.887 13.245,-13.759 12.658,-14.376C12.07,-14.993 11.235,-15.302 10.154,-15.302Z" style="fill:white;fill-rule:nonzero;"/>
                </g>
                <g transform="matrix(1,0,0,1,435.223,236.947)">
                    <path d="M32.19,-14.297C31.497,-14.391 30.886,-14.438 30.357,-14.438C28.43,-14.438 27.166,-13.786 26.567,-12.481L26.567,0L21.472,0L21.472,-19.074L26.285,-19.074L26.426,-16.8C27.448,-18.551 28.864,-19.427 30.674,-19.427C31.238,-19.427 31.767,-19.351 32.261,-19.198L32.19,-14.297Z" style="fill:white;fill-rule:nonzero;"/>
                </g>
                <g transform="matrix(1,0,0,1,435.223,236.947)">
                    <path d="M43.085,0.353C40.288,0.353 38.011,-0.505 36.254,-2.221C34.497,-3.937 33.618,-6.223 33.618,-9.079L33.618,-9.572C33.618,-11.488 33.989,-13.201 34.729,-14.711C35.469,-16.222 36.518,-17.385 37.876,-18.202C39.233,-19.019 40.782,-19.427 42.521,-19.427C45.13,-19.427 47.184,-18.604 48.682,-16.959C50.181,-15.314 50.93,-12.981 50.93,-9.96L50.93,-7.88L38.784,-7.88C38.948,-6.634 39.445,-5.635 40.273,-4.883C41.102,-4.131 42.151,-3.755 43.42,-3.755C45.383,-3.755 46.916,-4.466 48.021,-5.888L50.524,-3.085C49.761,-2.004 48.726,-1.161 47.422,-0.555C46.117,0.05 44.672,0.353 43.085,0.353ZM42.503,-15.302C41.493,-15.302 40.673,-14.961 40.044,-14.279C39.415,-13.598 39.013,-12.622 38.836,-11.353L45.923,-11.353L45.923,-11.758C45.9,-12.887 45.594,-13.759 45.007,-14.376C44.419,-14.993 43.585,-15.302 42.503,-15.302Z" style="fill:white;fill-rule:nonzero;"/>
                </g>
                <g transform="matrix(1,0,0,1,435.223,236.947)">
                    <path d="M58.51,-19.074L58.669,-16.871C60.032,-18.575 61.86,-19.427 64.152,-19.427C66.173,-19.427 67.677,-18.834 68.665,-17.647C69.652,-16.46 70.157,-14.685 70.181,-12.323L70.181,0L65.086,0L65.086,-12.199C65.086,-13.28 64.851,-14.065 64.381,-14.553C63.911,-15.04 63.129,-15.284 62.036,-15.284C60.602,-15.284 59.527,-14.673 58.81,-13.451L58.81,0L53.715,0L53.715,-19.074L58.51,-19.074Z" style="fill:white;fill-rule:nonzero;"/>
                </g>
                <g transform="matrix(1,0,0,1,435.223,236.947)">
                    <path d="M81.974,-3.755C82.915,-3.755 83.679,-4.014 84.266,-4.531C84.854,-5.048 85.159,-5.735 85.183,-6.593L89.96,-6.593C89.949,-5.3 89.596,-4.116 88.903,-3.041C88.209,-1.966 87.26,-1.131 86.056,-0.538C84.851,0.056 83.52,0.353 82.063,0.353C79.336,0.353 77.185,-0.514 75.61,-2.248C74.036,-3.981 73.248,-6.376 73.248,-9.431L73.248,-9.766C73.248,-12.705 74.03,-15.049 75.593,-16.8C77.156,-18.551 79.301,-19.427 82.027,-19.427C84.413,-19.427 86.326,-18.748 87.766,-17.391C89.205,-16.033 89.937,-14.227 89.96,-11.97L85.183,-11.97C85.159,-12.957 84.854,-13.759 84.266,-14.376C83.679,-14.993 82.903,-15.302 81.939,-15.302C80.752,-15.302 79.856,-14.87 79.251,-14.006C78.645,-13.142 78.343,-11.741 78.343,-9.802L78.343,-9.273C78.343,-7.31 78.643,-5.9 79.242,-5.042C79.841,-4.184 80.752,-3.755 81.974,-3.755Z" style="fill:white;fill-rule:nonzero;"/>
                </g>
                <g transform="matrix(1,0,0,1,435.223,236.947)">
                    <path d="M101.648,0.353C98.851,0.353 96.574,-0.505 94.817,-2.221C93.06,-3.937 92.182,-6.223 92.182,-9.079L92.182,-9.572C92.182,-11.488 92.552,-13.201 93.292,-14.711C94.033,-16.222 95.082,-17.385 96.439,-18.202C97.796,-19.019 99.345,-19.427 101.084,-19.427C103.693,-19.427 105.747,-18.604 107.245,-16.959C108.744,-15.314 109.493,-12.981 109.493,-9.96L109.493,-7.88L97.347,-7.88C97.511,-6.634 98.008,-5.635 98.836,-4.883C99.665,-4.131 100.714,-3.755 101.983,-3.755C103.946,-3.755 105.48,-4.466 106.584,-5.888L109.088,-3.085C108.324,-2.004 107.29,-1.161 105.985,-0.555C104.68,0.05 103.235,0.353 101.648,0.353ZM101.067,-15.302C100.056,-15.302 99.236,-14.961 98.607,-14.279C97.979,-13.598 97.576,-12.622 97.4,-11.353L104.487,-11.353L104.487,-11.758C104.463,-12.887 104.157,-13.759 103.57,-14.376C102.982,-14.993 102.148,-15.302 101.067,-15.302Z" style="fill:white;fill-rule:nonzero;"/>
                </g>
                <g transform="matrix(1,0,0,1,435.223,236.947)">
                    <path d="M131.212,-9.396L126.999,-9.396L126.999,0L121.71,0L121.71,-25.668L131.247,-25.668C134.279,-25.668 136.618,-24.992 138.264,-23.64C139.909,-22.289 140.732,-20.379 140.732,-17.911C140.732,-16.16 140.353,-14.7 139.594,-13.53C138.836,-12.361 137.688,-11.429 136.148,-10.736L141.701,-0.247L141.701,0L136.025,0L131.212,-9.396ZM126.999,-13.68L131.265,-13.68C132.593,-13.68 133.621,-14.018 134.35,-14.694C135.079,-15.369 135.443,-16.301 135.443,-17.488C135.443,-18.698 135.099,-19.65 134.412,-20.344C133.724,-21.037 132.669,-21.384 131.247,-21.384L126.999,-21.384L126.999,-13.68Z" style="fill:white;fill-rule:nonzero;"/>
                </g>
                <g transform="matrix(1,0,0,1,435.223,236.947)">
                    <path d="M153.195,0.353C150.398,0.353 148.121,-0.505 146.364,-2.221C144.607,-3.937 143.728,-6.223 143.728,-9.079L143.728,-9.572C143.728,-11.488 144.099,-13.201 144.839,-14.711C145.58,-16.222 146.628,-17.385 147.986,-18.202C149.343,-19.019 150.892,-19.427 152.631,-19.427C155.24,-19.427 157.294,-18.604 158.792,-16.959C160.291,-15.314 161.04,-12.981 161.04,-9.96L161.04,-7.88L148.894,-7.88C149.058,-6.634 149.555,-5.635 150.383,-4.883C151.212,-4.131 152.261,-3.755 153.53,-3.755C155.493,-3.755 157.027,-4.466 158.131,-5.888L160.635,-3.085C159.871,-2.004 158.836,-1.161 157.532,-0.555C156.227,0.05 154.782,0.353 153.195,0.353ZM152.613,-15.302C151.603,-15.302 150.783,-14.961 150.154,-14.279C149.525,-13.598 149.123,-12.622 148.947,-11.353L156.033,-11.353L156.033,-11.758C156.01,-12.887 155.704,-13.759 155.117,-14.376C154.529,-14.993 153.695,-15.302 152.613,-15.302Z" style="fill:white;fill-rule:nonzero;"/>
                </g>
                <g transform="matrix(1,0,0,1,435.223,236.947)">
                    <path d="M171.864,-3.755C172.804,-3.755 173.568,-4.014 174.156,-4.531C174.744,-5.048 175.049,-5.735 175.073,-6.593L179.85,-6.593C179.838,-5.3 179.486,-4.116 178.792,-3.041C178.099,-1.966 177.15,-1.131 175.945,-0.538C174.741,0.056 173.41,0.353 171.952,0.353C169.226,0.353 167.075,-0.514 165.5,-2.248C163.925,-3.981 163.138,-6.376 163.138,-9.431L163.138,-9.766C163.138,-12.705 163.919,-15.049 165.483,-16.8C167.046,-18.551 169.19,-19.427 171.917,-19.427C174.303,-19.427 176.216,-18.748 177.655,-17.391C179.095,-16.033 179.827,-14.227 179.85,-11.97L175.073,-11.97C175.049,-12.957 174.744,-13.759 174.156,-14.376C173.568,-14.993 172.793,-15.302 171.829,-15.302C170.642,-15.302 169.746,-14.87 169.141,-14.006C168.535,-13.142 168.233,-11.741 168.233,-9.802L168.233,-9.273C168.233,-7.31 168.532,-5.9 169.132,-5.042C169.731,-4.184 170.642,-3.755 171.864,-3.755Z" style="fill:white;fill-rule:nonzero;"/>
                </g>
                <g transform="matrix(1,0,0,1,435.223,236.947)">
                    <path d="M181.966,-9.714C181.966,-11.606 182.33,-13.292 183.059,-14.773C183.787,-16.254 184.836,-17.4 186.205,-18.211C187.575,-19.022 189.164,-19.427 190.974,-19.427C193.548,-19.427 195.649,-18.64 197.276,-17.065C198.904,-15.49 199.812,-13.351 200,-10.648L200.035,-9.343C200.035,-6.417 199.218,-4.069 197.585,-2.301C195.951,-0.532 193.759,0.353 191.009,0.353C188.259,0.353 186.064,-0.529 184.425,-2.292C182.785,-4.055 181.966,-6.452 181.966,-9.484L181.966,-9.714ZM187.06,-9.343C187.06,-7.533 187.401,-6.15 188.083,-5.192C188.764,-4.234 189.74,-3.755 191.009,-3.755C192.243,-3.755 193.207,-4.228 193.9,-5.174C194.594,-6.12 194.94,-7.633 194.94,-9.714C194.94,-11.488 194.594,-12.863 193.9,-13.839C193.207,-14.814 192.231,-15.302 190.974,-15.302C189.728,-15.302 188.764,-14.817 188.083,-13.848C187.401,-12.878 187.06,-11.377 187.06,-9.343Z" style="fill:white;fill-rule:nonzero;"/>
                </g>
                <g transform="matrix(1,0,0,1,435.223,236.947)">
                    <path d="M213.892,-14.297C213.198,-14.391 212.587,-14.438 212.058,-14.438C210.131,-14.438 208.867,-13.786 208.268,-12.481L208.268,0L203.173,0L203.173,-19.074L207.986,-19.074L208.127,-16.8C209.149,-18.551 210.566,-19.427 212.375,-19.427C212.94,-19.427 213.468,-19.351 213.962,-19.198L213.892,-14.297Z" style="fill:white;fill-rule:nonzero;"/>
                </g>
                <g transform="matrix(1,0,0,1,649.2,236.947)">
                    <path d="M1.164,-9.678C1.164,-12.652 1.83,-15.02 3.164,-16.783C4.498,-18.546 6.323,-19.427 8.638,-19.427C10.495,-19.427 12.029,-18.734 13.239,-17.347L13.239,-27.078L18.352,-27.078L18.352,0L13.751,0L13.504,-2.027C12.234,-0.441 10.601,0.353 8.603,0.353C6.358,0.353 4.557,-0.532 3.2,-2.301C1.842,-4.069 1.164,-6.529 1.164,-9.678ZM6.258,-9.308C6.258,-7.522 6.57,-6.152 7.193,-5.201C7.815,-4.249 8.72,-3.773 9.907,-3.773C11.482,-3.773 12.593,-4.437 13.239,-5.765L13.239,-13.292C12.605,-14.62 11.506,-15.284 9.943,-15.284C7.486,-15.284 6.258,-13.292 6.258,-9.308Z" style="fill:white;fill-rule:nonzero;"/>
                </g>
                <g transform="matrix(1,0,0,1,649.2,236.947)">
                    <path d="M27.677,0L22.565,0L22.565,-19.074L27.677,-19.074L27.677,0ZM22.265,-24.011C22.265,-24.774 22.521,-25.403 23.032,-25.897C23.543,-26.39 24.24,-26.637 25.121,-26.637C25.991,-26.637 26.684,-26.39 27.201,-25.897C27.719,-25.403 27.977,-24.774 27.977,-24.011C27.977,-23.235 27.716,-22.6 27.193,-22.107C26.67,-21.613 25.979,-21.366 25.121,-21.366C24.263,-21.366 23.573,-21.613 23.05,-22.107C22.527,-22.6 22.265,-23.235 22.265,-24.011Z" style="fill:white;fill-rule:nonzero;"/>
                </g>
                <g transform="matrix(1,0,0,1,649.2,236.947)">
                    <path d="M36.562,-19.074L36.721,-16.871C38.084,-18.575 39.912,-19.427 42.204,-19.427C44.225,-19.427 45.729,-18.834 46.717,-17.647C47.704,-16.46 48.209,-14.685 48.233,-12.323L48.233,0L43.138,0L43.138,-12.199C43.138,-13.28 42.903,-14.065 42.433,-14.553C41.963,-15.04 41.181,-15.284 40.088,-15.284C38.654,-15.284 37.579,-14.673 36.862,-13.451L36.862,0L31.767,0L31.767,-19.074L36.562,-19.074Z" style="fill:white;fill-rule:nonzero;"/>
                </g>
                <g transform="matrix(1,0,0,1,649.2,236.947)">
                    <path d="M51.353,-9.678C51.353,-12.605 52.049,-14.961 53.442,-16.747C54.835,-18.534 56.712,-19.427 59.074,-19.427C61.166,-19.427 62.794,-18.71 63.958,-17.276L64.169,-19.074L68.788,-19.074L68.788,-0.635C68.788,1.034 68.409,2.486 67.651,3.72C66.893,4.954 65.826,5.894 64.451,6.54C63.076,7.187 61.466,7.51 59.621,7.51C58.222,7.51 56.859,7.231 55.531,6.673C54.203,6.114 53.198,5.394 52.517,4.513L54.773,1.41C56.042,2.832 57.582,3.543 59.392,3.543C60.743,3.543 61.795,3.182 62.547,2.459C63.3,1.736 63.676,0.711 63.676,-0.617L63.676,-1.639C62.5,-0.311 60.955,0.353 59.039,0.353C56.747,0.353 54.893,-0.544 53.477,-2.336C52.061,-4.128 51.353,-6.505 51.353,-9.467L51.353,-9.678ZM56.448,-9.308C56.448,-7.58 56.794,-6.226 57.488,-5.245C58.181,-4.263 59.133,-3.773 60.344,-3.773C61.895,-3.773 63.006,-4.354 63.676,-5.518L63.676,-13.539C62.994,-14.703 61.895,-15.284 60.379,-15.284C59.157,-15.284 58.196,-14.785 57.497,-13.786C56.797,-12.787 56.448,-11.294 56.448,-9.308Z" style="fill:white;fill-rule:nonzero;"/>
                </g>
            </g>
            <path id="Ellipse.-1" d="M672.215,69.987C680.785,69.987 687.732,76.934 687.732,85.504C687.732,94.074 680.785,101.021 672.215,101.021C663.645,101.021 656.698,94.074 656.698,85.504C656.698,76.934 663.645,69.987 672.215,69.987Z" style="fill:rgb(219,19,47);"/>
        </g>
    </g>
</svg>
