<?xml version="1.0" encoding="UTF-8" standalone="no"?><!DOCTYPE svg PUBLIC "-//W3C//DTD SVG 1.1//EN" "http://www.w3.org/Graphics/SVG/1.1/DTD/svg11.dtd"><svg width="100%" height="100%" viewBox="0 0 900 325" version="1.1" xmlns="http://www.w3.org/2000/svg" xmlns:xlink="http://www.w3.org/1999/xlink" xml:space="preserve" style="fill-rule:evenodd;clip-rule:evenodd;stroke-linejoin:round;stroke-miterlimit:1.41421;"><g><path id="Rounded-Rectangle-2" d="M105.637,27.016l688.726,0c16.921,0 30.637,13.716 30.637,30.637l0,208.885c0,16.921 -13.716,30.637 -30.637,30.637l-688.726,0c-16.921,0 -30.637,-13.716 -30.637,-30.637l0,-208.885c0,-16.921 13.716,-30.637 30.637,-30.637Z"/><g id="logo-SlidesLive"><text id="SlidesLive" x="186.406px" y="184.507px" style="font-family:'Roboto-Black', 'Roboto';font-weight:900;font-size:105.963px;fill:#fff;">Slid<tspan x="370.793px " y="184.507px ">e</tspan>sL<tspan x="538.324px 567.332px 621.107px " y="184.507px 184.507px 184.507px ">ive</tspan></text><text id="REC" x="701.658px" y="99.452px" style="font-family:'Roboto-Black', 'Roboto';font-weight:900;font-size:39.559px;fill:#fff;">R<tspan x="727.669px " y="99.452px ">E</tspan>C</text><text id="Professional-Conference-Recording---" x="145.027px" y="236.947px" style="font-family:'Roboto-Bold', 'Roboto';font-weight:700;font-size:36.104px;fill:#fff;">Pr<tspan x="180.836px 201.244px 213.756px " y="236.947px 236.947px 236.947px ">ofe</tspan>ssional Conf<tspan x="435.223px 454.732px 467.561px " y="236.947px 236.947px 236.947px ">ere</tspan>nce Recor<tspan x="649.2px " y="236.947px ">d</tspan>ing</text><path id="Ellipse-1" d="M672.215,69.987c8.57,0 15.517,6.947 15.517,15.517c0,8.57 -6.947,15.517 -15.517,15.517c-8.57,0 -15.517,-6.947 -15.517,-15.517c0,-8.57 6.947,-15.517 15.517,-15.517Z" style="fill:#db132f;"/></g></g></svg>