<?xml version="1.0" encoding="UTF-8" standalone="no"?><!DOCTYPE svg PUBLIC "-//W3C//DTD SVG 1.1//EN" "http://www.w3.org/Graphics/SVG/1.1/DTD/svg11.dtd"><svg width="100%" height="100%" viewBox="0 0 737 479" version="1.1" xmlns="http://www.w3.org/2000/svg" xmlns:xlink="http://www.w3.org/1999/xlink" xml:space="preserve" style="fill-rule:evenodd;clip-rule:evenodd;stroke-linejoin:round;stroke-miterlimit:1.41421;"><g><path d="M371.266,6.628c10.256,-1.015 119.381,120.453 119.381,120.453l-40.319,50.769l-79.062,-171.222Z" style="fill:#82c341;fill-rule:nonzero;"/><path d="M483.291,250.397l27.853,-47.394l-47.138,6.103l19.285,41.291Z" style="fill:#a8d15d;fill-rule:nonzero;"/><path d="M516.45,205.65l12.188,51.953l-42.772,-0.181l30.584,-51.772Z" style="fill:#82c341;fill-rule:nonzero;"/><path d="M524.616,274.244l36.378,44.428l-96.619,-3.294l-14.312,-27.931l57.293,0.519l17.26,-13.722Z" style="fill:#82c341;fill-rule:nonzero;"/><path d="M448.575,281.728l56.438,-0.281l23.368,-18.759l-45.369,0.171l-34.437,18.869Z" style="fill:#529535;fill-rule:nonzero;"/><path d="M494.259,120.809l-45.175,-48.012l39.638,-4.872l5.537,52.884Z" style="fill:#a8d15d;fill-rule:nonzero;"/><path d="M487.253,61.422l21.863,-47.628l-32.382,35.094l10.519,12.534Z" style="fill:#a8d15d;fill-rule:nonzero;"/><path d="M481.984,63.675l-33.425,-36.534l15,38.631l18.425,-2.097Z" style="fill:#a8d15d;fill-rule:nonzero;"/><path d="M472.956,44.844l13.05,-13.941l-6.206,-30.903l-15.497,35.466l8.653,9.378Z" style="fill:#a8d15d;fill-rule:nonzero;"/><path d="M480.134,257.131l-101.437,-222.518l0,280.659l101.437,-58.141Z" style="fill:#82c341;fill-rule:nonzero;"/><path d="M371.016,6.628c-10.253,-1.015 -119.382,120.453 -119.382,120.453l40.319,50.769l79.063,-171.222Z" style="fill:#82c341;fill-rule:nonzero;"/><path d="M258.991,250.397l-27.854,-47.394l47.138,6.103l-19.284,41.291Z" style="fill:#a8d15d;fill-rule:nonzero;"/><path d="M225.834,205.65l-12.19,51.953l42.772,-0.181l-30.582,-51.772Z" style="fill:#82c341;fill-rule:nonzero;"/><path d="M217.666,274.244l-36.375,44.428l96.618,-3.294l14.31,-27.931l-57.294,0.519l-17.259,-13.722Z" style="fill:#82c341;fill-rule:nonzero;"/><path d="M293.709,281.728l-56.437,-0.281l-23.369,-18.759l45.366,0.171l34.44,18.869Z" style="fill:#529535;fill-rule:nonzero;"/><path d="M248.025,120.809l45.175,-48.012l-39.638,-4.872l-5.537,52.884Z" style="fill:#a8d15d;fill-rule:nonzero;"/><path d="M255.031,61.422l-21.862,-47.628l32.381,35.094l-10.519,12.534Z" style="fill:#a8d15d;fill-rule:nonzero;"/><path d="M260.297,63.675l33.425,-36.534l-15,38.631l-18.425,-2.097Z" style="fill:#a8d15d;fill-rule:nonzero;"/><path d="M269.328,44.844l-13.053,-13.941l6.206,-30.903l15.497,35.466l-8.65,9.378Z" style="fill:#a8d15d;fill-rule:nonzero;"/><path d="M262.147,257.131l101.44,-222.518l0,280.659l-101.44,-58.141Z" style="fill:#82c341;fill-rule:nonzero;"/><path d="M371.1,319.541l-0.631,-0.319l-6.882,-3.95l0,-280.659l4.757,-10.447l1.387,-2.81l2.822,0l1.388,2.81l4.756,10.447l0,280.659l-6.881,3.95l-0.632,0.319l-0.084,0Z" style="fill:#529535;fill-rule:nonzero;"/><path d="M43.231,412.469l-5.984,6.184c-4.981,-4.834 -9.847,-7.25 -14.603,-7.25c-3.025,0 -5.616,0.997 -7.772,2.994c-2.156,1.994 -3.231,4.322 -3.231,6.981c0,2.35 0.887,4.591 2.665,6.719c1.775,2.175 5.51,4.722 11.197,7.65c6.931,3.591 11.641,7.05 14.131,10.375c2.441,3.369 3.663,7.162 3.663,11.375c0,5.941 -2.088,10.975 -6.259,15.097c-4.176,4.125 -9.394,6.187 -15.657,6.187c-4.175,0 -8.159,-0.912 -11.956,-2.728c-3.797,-1.819 -6.941,-4.322 -9.425,-7.515l5.853,-6.654c4.756,5.369 9.8,8.05 15.131,8.05c3.735,0 6.913,-1.196 9.535,-3.59c2.622,-2.397 3.934,-5.213 3.934,-8.447c0,-2.663 -0.865,-5.031 -2.6,-7.119c-1.734,-2.04 -5.644,-4.609 -11.731,-7.715c-6.531,-3.369 -10.975,-6.694 -13.331,-9.979c-2.357,-3.278 -3.535,-7.028 -3.535,-11.237c0,-5.5 1.878,-10.069 5.632,-13.703c3.753,-3.635 8.493,-5.453 14.224,-5.453c6.663,0 13.369,3.262 20.119,9.778Z" style="fill:#82c341;fill-rule:nonzero;"/><path d="M93.947,411.803c-7.741,0 -14.394,2.86 -19.956,8.578c-5.563,5.722 -8.344,12.638 -8.344,20.753c0,5.232 1.269,10.11 3.806,14.632c2.534,4.522 5.963,8.015 10.278,10.478c4.316,2.459 9.057,3.69 14.216,3.69c5.162,0 9.9,-1.231 14.219,-3.69c4.315,-2.463 7.743,-5.956 10.278,-10.478c2.537,-4.522 3.806,-9.4 3.806,-14.632c0,-8.115 -2.791,-15.031 -8.378,-20.753c-5.584,-5.718 -12.225,-8.578 -19.925,-8.578Zm0.034,-9.112c11.15,0 20.391,4.034 27.719,12.103c6.663,7.362 9.997,16.075 9.997,26.14c0,10.113 -3.522,18.947 -10.563,26.507c-7.04,7.562 -16.093,11.34 -27.153,11.34c-11.103,0 -20.178,-3.778 -27.218,-11.34c-7.041,-7.56 -10.56,-16.394 -10.56,-26.507c0,-10.021 3.331,-18.712 9.994,-26.075c7.328,-8.112 16.591,-12.168 27.784,-12.168Z" style="fill:#82c341;fill-rule:nonzero;"/><path d="M147.722,404.55l9.312,0l0,33.791c0,8.247 0.447,13.925 1.335,17.025c1.331,4.437 3.872,7.94 7.628,10.512c3.75,2.572 8.225,3.856 13.422,3.856c5.194,0 9.6,-1.25 13.222,-3.756c3.618,-2.506 6.118,-5.8 7.493,-9.878c0.932,-2.794 1.4,-8.712 1.4,-17.759l0,-33.791l9.51,0l0,35.522c0,9.975 -1.163,17.491 -3.491,22.547c-2.328,5.053 -5.831,9.009 -10.509,11.869c-4.678,2.862 -10.544,4.293 -17.594,4.293c-7.05,0 -12.934,-1.431 -17.659,-4.293c-4.722,-2.86 -8.247,-6.847 -10.575,-11.972c-2.328,-5.119 -3.494,-12.822 -3.494,-23.11l0,-34.856Z" style="fill:#82c341;fill-rule:nonzero;"/><path d="M228.206,404.55l9.51,0l0,10.575c2.84,-4.166 5.831,-7.281 8.981,-9.341c3.147,-2.062 6.428,-3.093 9.844,-3.093c2.572,0 5.318,0.822 8.247,2.459l-4.857,7.85c-1.95,-0.844 -3.59,-1.266 -4.919,-1.266c-3.106,0 -6.099,1.279 -8.981,3.825c-2.881,2.55 -5.078,6.51 -6.584,11.872c-1.156,4.125 -1.731,12.463 -1.731,25.01l0,24.478l-9.51,0l0,-72.369Z" style="fill:#82c341;fill-rule:nonzero;"/><path d="M342.013,419.584l-7.385,4.591c-6.378,-8.472 -15.081,-12.706 -26.109,-12.706c-8.816,0 -16.135,2.837 -21.957,8.503c-5.825,5.672 -8.737,12.559 -8.737,20.662c0,5.272 1.341,10.235 4.019,14.882c2.678,4.65 6.356,8.262 11.028,10.831c4.675,2.569 9.912,3.853 15.712,3.853c10.632,0 19.313,-4.234 26.044,-12.703l7.385,4.856c-3.46,5.21 -8.107,9.25 -13.935,12.119c-5.831,2.875 -12.472,4.309 -19.922,4.309c-11.44,0 -20.931,-3.637 -28.469,-10.909c-7.537,-7.272 -11.306,-16.119 -11.306,-26.538c0,-7.006 1.763,-13.512 5.288,-19.521c3.525,-6.01 8.368,-10.697 14.534,-14.069c6.163,-3.369 13.056,-5.053 20.685,-5.053c4.79,0 9.412,0.728 13.868,2.193c4.457,1.466 8.238,3.372 11.341,5.719c3.103,2.353 5.741,5.344 7.916,8.981Z" style="fill:#82c341;fill-rule:nonzero;"/><path d="M420.828,433.419c-1.24,-4.966 -3.053,-8.935 -5.425,-11.906c-2.375,-2.972 -5.519,-5.366 -9.428,-7.185c-3.906,-1.819 -8.009,-2.728 -12.312,-2.728c-7.107,0 -13.21,2.288 -18.319,6.853c-3.728,3.325 -6.547,8.316 -8.457,14.966l53.941,0Zm0,19.487l7.85,4.122c-2.572,5.06 -5.55,9.138 -8.919,12.244c-3.375,3.103 -7.172,5.462 -11.387,7.081c-4.216,1.619 -8.984,2.428 -14.313,2.428c-11.806,0 -21.034,-3.868 -27.693,-11.606c-6.66,-7.737 -9.988,-16.484 -9.988,-26.241c0,-9.178 2.819,-17.362 8.453,-24.543c7.147,-9.132 16.716,-13.7 28.697,-13.7c12.335,0 22.191,4.678 29.56,14.031c5.234,6.609 7.896,14.856 7.987,24.744l-65.119,0c0.178,8.409 2.863,15.297 8.056,20.672c5.197,5.375 11.61,8.062 19.247,8.062c3.685,0 7.269,-0.641 10.753,-1.922c3.485,-1.281 6.454,-2.981 8.894,-5.103c2.441,-2.116 5.085,-5.541 7.922,-10.269Z" style="fill:#82c341;fill-rule:nonzero;"/><path d="M449.428,377.878l18.16,0l0,26.672l10.775,0l0,15.631l-10.775,0l0,56.738l-18.16,0l0,-56.738l-9.309,0l0,-15.631l9.309,0l0,-26.672Z" style="fill:#82c341;fill-rule:nonzero;"/><path d="M522.359,419.784c-5.64,0 -10.337,1.96 -14.09,5.885c-3.753,3.925 -5.628,8.947 -5.628,15.065c0,6.297 1.853,11.397 5.562,15.297c3.706,3.903 8.403,5.853 14.091,5.853c5.684,0 10.415,-1.971 14.19,-5.915c3.775,-3.95 5.663,-9.025 5.663,-15.235c0,-6.209 -1.856,-11.25 -5.563,-15.131c-3.709,-3.878 -8.45,-5.819 -14.225,-5.819Zm-0.3,-17.093c6.829,0 13.25,1.706 19.26,5.118c6.003,3.416 10.697,8.05 14.065,13.904c3.369,5.853 5.057,12.171 5.057,18.956c0,6.828 -1.697,13.215 -5.091,19.156c-3.391,5.941 -8.016,10.588 -13.869,13.934c-5.853,3.347 -12.303,5.022 -19.353,5.022c-10.375,0 -19.234,-3.69 -26.572,-11.078c-7.34,-7.381 -11.006,-16.347 -11.006,-26.903c0,-11.306 4.144,-20.728 12.434,-28.269c7.272,-6.559 15.632,-9.84 25.075,-9.84Z" style="fill:#82c341;fill-rule:nonzero;"/><path d="M609.591,419.45c-5.613,0 -10.275,1.988 -13.985,5.953c-3.715,3.969 -5.572,9.06 -5.572,15.266c0,6.25 1.891,11.397 5.669,15.431c3.778,4.034 8.428,6.05 13.956,6.05c5.7,0 10.432,-1.984 14.185,-5.95c3.756,-3.969 5.634,-9.169 5.634,-15.597c0,-6.297 -1.878,-11.397 -5.634,-15.3c-3.753,-3.9 -8.506,-5.853 -14.253,-5.853Zm19.09,-14.9l18.157,0l0,72.369l-18.157,0l0,-7.647c-3.543,3.369 -7.1,5.794 -10.662,7.281c-3.566,1.485 -7.428,2.228 -11.594,2.228c-9.347,0 -17.428,-3.628 -24.25,-10.875c-6.822,-7.25 -10.231,-16.262 -10.231,-27.037c0,-11.175 3.3,-20.331 9.9,-27.469c6.6,-7.144 14.615,-10.709 24.05,-10.709c4.337,0 8.412,0.822 12.222,2.459c3.812,1.644 7.331,4.103 10.565,7.381l0,-7.981Z" style="fill:#82c341;fill-rule:nonzero;"/><path d="M699.519,419.45c-5.613,0 -10.275,1.988 -13.988,5.953c-3.712,3.969 -5.569,9.06 -5.569,15.266c0,6.25 1.888,11.397 5.666,15.431c3.778,4.034 8.431,6.05 13.956,6.05c5.7,0 10.432,-1.984 14.185,-5.95c3.756,-3.969 5.637,-9.169 5.637,-15.597c0,-6.297 -1.881,-11.397 -5.637,-15.3c-3.753,-3.9 -8.506,-5.853 -14.25,-5.853Zm19.087,-42.834l18.16,0l0,100.303l-18.16,0l0,-7.647c-3.543,3.369 -7.097,5.794 -10.662,7.281c-3.566,1.485 -7.428,2.228 -11.594,2.228c-9.344,0 -17.428,-3.628 -24.25,-10.875c-6.819,-7.25 -10.228,-16.262 -10.228,-27.037c0,-11.175 3.297,-20.331 9.9,-27.469c6.597,-7.144 14.612,-10.709 24.047,-10.709c4.34,0 8.412,0.822 12.222,2.459c3.812,1.644 7.331,4.103 10.565,7.381l0,-35.915Z" style="fill:#82c341;fill-rule:nonzero;"/></g></svg>