<?xml version="1.0" encoding="UTF-8" standalone="no"?><!DOCTYPE svg PUBLIC "-//W3C//DTD SVG 1.1//EN" "http://www.w3.org/Graphics/SVG/1.1/DTD/svg11.dtd"><svg width="100%" height="100%" viewBox="0 0 336 60" version="1.1" xmlns="http://www.w3.org/2000/svg" xmlns:xlink="http://www.w3.org/1999/xlink" xml:space="preserve" style="fill-rule:evenodd;clip-rule:evenodd;stroke-linejoin:round;stroke-miterlimit:1.41421;"><path d="M70.146,26.013l14.1,0l0,17.6c-3.8,1.3 -8,2 -12.6,2c-5,0 -8.9,-1.5 -11.6,-4.4c-2.7,-2.9 -4.1,-7.1 -4.1,-12.5c0,-5.3 1.5,-9.4 4.5,-12.3c3,-2.9 7.2,-4.4 12.6,-4.4c2.1,0 4,0.2 5.8,0.6c1.8,0.4 3.4,0.9 4.8,1.5l-2.8,6.9c-2.3,-1.2 -4.9,-1.7 -7.7,-1.7c-2.6,0 -4.6,0.8 -6,2.5c-1.4,1.7 -2.1,4.1 -2.1,7.2c0,3 0.6,5.4 1.9,7c1.3,1.6 3.1,2.4 5.5,2.4c1.3,0 2.5,-0.1 3.6,-0.4l0,-5.1l-5.8,0l-0.1,-6.9ZM115.746,28.113c0,5.4 -1.5,9.6 -4.5,12.6c-3,3 -7.2,4.4 -12.6,4.4l-10.5,0l0,-32.6l11.3,0c5.2,0 9.3,1.3 12.1,4c2.8,2.7 4.2,6.6 4.2,11.6ZM106.646,28.413c0,-3 -0.6,-5.2 -1.8,-6.6c-1.2,-1.4 -3,-2.2 -5.4,-2.2l-2.6,0l0,18.3l2,0c2.7,0 4.6,-0.8 5.9,-2.3c1.3,-1.5 1.9,-4 1.9,-7.2ZM132.046,26.013l14.1,0l0,17.6c-3.8,1.3 -8,2 -12.6,2c-5,0 -8.9,-1.5 -11.6,-4.4c-2.7,-2.9 -4.1,-7.1 -4.1,-12.5c0,-5.3 1.5,-9.4 4.5,-12.3c3,-2.9 7.2,-4.4 12.6,-4.4c2.1,0 4,0.2 5.8,0.6c1.8,0.4 3.4,0.9 4.8,1.5l-2.8,6.9c-2.3,-1.2 -4.9,-1.7 -7.7,-1.7c-2.6,0 -4.6,0.8 -6,2.5c-1.4,1.7 -2.1,4.1 -2.1,7.2c0,3 0.6,5.4 1.9,7c1.3,1.6 3.1,2.4 5.5,2.4c1.3,0 2.5,-0.1 3.6,-0.4l0,-5.1l-5.8,0l-0.1,-6.9Z" style="fill:#4e4e4e;fill-rule:nonzero;"/><text x="167.637px" y="44.334px" style="font-family:'ProductSans-Regular', 'Product Sans', sans-serif;font-size:36px;fill:#4e4e4e;">S<tspan x="187.005px " y="44.334px ">u</tspan>n <tspan x="233.229px 258.753px 278.913px 297.165px 313.365px " y="44.334px 44.334px 44.334px 44.334px 44.334px ">Coast</tspan></text><g><path d="M9.95,59.8l6.8,0c1.6,0 3.6,-1.1 4.4,-2.5l5.7,-9.5c0.7,-1.4 0.7,-3.4 -0.1,-4.7l-3.4,-5.6l-13.4,22.3Z" style="fill:#f6c25b;fill-rule:nonzero;"/><path d="M17.25,32.3l-15.1,25.3c-0.6,1.2 0,2.2 1.5,2.2l6.3,0l13.4,-22.3l-6.1,-10.2c0.8,1.4 0.8,3.6 0,5" style="fill:#0a985c;fill-rule:nonzero;"/><path d="M3.65,-0.2c-1.6,0 -2.3,1.1 -1.4,2.5l24.5,40.7c0.8,1.3 0.8,3.3 0.1,4.7l6,-9.9l-22.9,-38l-6.3,0Z" style="fill:#5586c5;fill-rule:nonzero;"/><path d="M9.95,-0.2l22.9,38l3.3,-5.5c0.8,-1.4 0.8,-3.6 0,-5l-15,-25c-0.8,-1.4 -2.8,-2.5 -4.4,-2.5l-6.8,0Z" style="fill:#d9423e;fill-rule:nonzero;"/></g><path d="M17.25,32.3l-3.6,6l6.5,4.6l3.3,-5.5l-6.1,-10.2c0.7,1.5 0.7,3.7 -0.1,5.1Z" style="fill:#168b58;fill-rule:nonzero;"/><path d="M23.35,37.5l-3.3,5.5l6.8,4.8c0.7,-1.4 0.7,-3.4 -0.1,-4.7l-3.4,-5.6Z" style="fill:#d7ab56;fill-rule:nonzero;"/></svg>