<?xml version="1.0" encoding="UTF-8" standalone="no"?><!DOCTYPE svg PUBLIC "-//W3C//DTD SVG 1.1//EN" "http://www.w3.org/Graphics/SVG/1.1/DTD/svg11.dtd"><svg width="100%" height="100%" viewBox="0 0 6116 1155" version="1.1" xmlns="http://www.w3.org/2000/svg" xmlns:xlink="http://www.w3.org/1999/xlink" xml:space="preserve" style="fill-rule:evenodd;clip-rule:evenodd;stroke-linejoin:round;stroke-miterlimit:1.41421;"><path d="M2700.3,574.128l342.201,418.541l-222.396,0l-319.323,-390.117l0,390.117l-201.054,0l0,-831.471l201.054,0l0,376.732l2.383,0l254.245,-376.732l221.159,0l-278.269,412.93Z" style="fill:#002e56;fill-rule:nonzero;"/><path d="M1152.7,992.487l0,-658.216l-260.82,0l0,-173.151l724.557,0l0,173.151l-260.82,0l0,658.216l-202.917,0Z" style="fill:#002e56;fill-rule:nonzero;"/><path d="M1658.37,992.487l0,-831.367l592.019,0l0,166.927l-392.787,0l0,169.648l374.388,0l0,152.045l-374.388,0l0,175.833l399.01,0l0,166.914l-598.242,0Z" style="fill:#002e56;fill-rule:nonzero;"/><path d="M6082.85,545.547l3.073,0c3.555,0 6.485,-1.211 6.485,-4.128c0,-2.578 -1.888,-4.297 -6.003,-4.297c-1.706,0 -2.903,0.183 -3.555,0.339l0,8.086Zm-0.234,15.82l-6.51,0l0,-28.203c2.565,-0.351 6.211,-0.859 10.833,-0.859c5.338,0 7.735,0.859 9.609,2.252c1.732,1.211 2.93,3.256 2.93,6.003c0,3.45 -2.539,5.677 -5.82,6.706l0,0.338c2.747,0.873 4.114,3.099 4.974,6.875c0.846,4.31 1.536,5.847 2.07,6.888l-6.901,0c-0.86,-1.041 -1.393,-3.424 -2.188,-6.888c-0.559,-2.916 -2.278,-4.297 -5.898,-4.297l-3.099,0l0,11.185Zm-17.318,-14.596c0,12.526 9.414,22.487 21.967,22.487c12.213,0.182 21.497,-9.961 21.497,-22.331c0,-12.552 -9.284,-22.695 -21.823,-22.695c-12.227,0 -21.641,10.143 -21.641,22.539Zm50.691,0c0,15.781 -12.722,28.346 -28.894,28.346c-16.146,0 -29.075,-12.565 -29.075,-28.346c0,-15.833 12.929,-28.203 29.245,-28.203c16.002,0 28.724,12.37 28.724,28.203Z" style="fill:#002e56;fill-rule:nonzero;"/><path d="M3248.19,997.188c-2.813,0 -5.586,-0.066 -8.359,-0.157l-0.026,0c-26.628,0 -53.047,-3.945 -76.172,-11.406c-74.597,-21.862 -119.245,-74.753 -119.245,-141.458l0,-6.589l30.351,0l0,6.589c0,52.07 36.276,94.166 97.084,112.578c21.341,6.549 45.221,10.013 69.075,10.013c2.435,0.091 4.623,0.117 6.81,0.117c19.922,0 40.847,-3.19 60.534,-9.271c56.862,-16.471 89.414,-52.825 89.414,-99.726c0,-76.042 -79.114,-85.717 -162.864,-96.003l-2.696,-0.325c-88.476,-11.068 -179.974,-22.513 -179.974,-116.68c0,-58.229 40.17,-104.427 107.474,-123.568c20.677,-6.367 45.183,-9.622 72.761,-9.622c24.362,0 49.479,3.32 72.708,9.609c71.641,21.198 112.656,66.862 112.656,125.3l0,6.64l-30.26,0l0,-6.64c0,-62.409 -63.125,-87.566 -90.26,-95.456c-45.599,-12.682 -93.529,-11.211 -128.855,-0.794c-54.075,15.572 -85.039,50.039 -85.039,94.531c0,63.737 63.88,76.107 154.102,86.653c94.153,11.459 190.638,23.23 190.638,126.355c0,61.341 -40.716,108.541 -111.719,129.505c-21.615,6.406 -45.195,9.805 -68.138,9.805Z" style="fill:#002e56;fill-rule:nonzero;"/><path d="M3563.32,1154.45l-33.216,0l71.302,-165.716l-198.659,-471.953l33.229,0l182.214,435.508l192.239,-435.508l33.295,0l-280.404,637.669Z" style="fill:#002e56;fill-rule:nonzero;"/><path d="M4026.42,997.188c-2.799,0 -5.599,-0.066 -8.398,-0.157l-0.013,0c-26.576,0 -53.008,-3.945 -76.198,-11.406c-74.571,-21.862 -119.193,-74.753 -119.193,-141.458l0,-6.589l30.339,0l0,6.589c0,52.096 36.289,94.166 97.07,112.578c21.328,6.549 45.208,10.013 69.115,10.013c2.421,0.091 4.609,0.117 6.796,0.117c19.909,0 40.847,-3.19 60.495,-9.271c56.901,-16.484 89.453,-52.825 89.453,-99.726c0,-76.042 -79.127,-85.717 -162.864,-96.003l-2.67,-0.325c-88.528,-11.068 -180.039,-22.513 -180.039,-116.68c0,-58.203 40.157,-104.427 107.422,-123.568c20.755,-6.367 45.326,-9.622 72.865,-9.622c24.284,0 49.414,3.32 72.708,9.596c71.667,21.211 112.656,66.875 112.656,125.313l0,6.64l-30.377,0l0,-6.64c0,-62.448 -63.047,-87.566 -90.13,-95.456c-45.756,-12.735 -93.672,-11.172 -128.893,-0.794c-54.063,15.572 -85.04,50.039 -85.04,94.531c0,63.737 63.854,76.107 154.089,86.653c94.14,11.459 190.612,23.23 190.612,126.355c0,61.341 -40.716,108.541 -111.628,129.505c-21.692,6.406 -45.26,9.805 -68.177,9.805Z" style="fill:#002e56;fill-rule:nonzero;"/><path d="M4401.2,995.143c-101.849,0 -121.758,-59.726 -121.758,-162.916l0,-283.373l-87.265,0l0,-29.479l87.265,0l0,-96.667l30.365,0l0,96.667l127.461,0l0,29.479l-127.461,0l0,283.373c0,104.349 16.679,143.502 127.76,131.106l6.614,-0.755l3.099,29.466l-6.536,0.716c-14.362,1.576 -27.669,2.383 -39.544,2.383Z" style="fill:#002e56;fill-rule:nonzero;"/><path d="M4459.21,732.331l403.932,0c-10.325,-112.097 -90.508,-186.862 -201.524,-186.862c-88.216,0 -156.419,44.896 -187.174,123.177c-7.982,19.622 -13.073,41.015 -15.234,63.685Zm202.408,263.893c-101.184,0 -179.817,-52.018 -215.729,-142.76c-11.653,-29.18 -17.604,-62.227 -17.604,-98.23c0,-35.455 5.951,-68.242 17.604,-97.421c35.886,-90.704 114.493,-142.761 215.729,-142.761c65.873,0 123.165,22.604 165.612,65.313c43.516,43.802 67.214,105.911 66.784,174.908l-0.052,6.602l-435.234,0c0.69,28.88 5.977,56.029 15.716,80.729c30.768,78.347 99.01,123.268 187.174,123.268c84.467,0 149.154,-39.934 182.123,-112.487l1.771,-3.867l32.148,0l-3.763,9.141c-36.042,87.448 -113.398,137.565 -212.279,137.565Z" style="fill:#002e56;fill-rule:nonzero;"/><path d="M5639.94,992.786l-30.313,0l0,-264.075c-0.846,-60.26 -15.898,-108.151 -43.62,-138.385c-26.744,-29.245 -63.671,-44.063 -109.713,-44.063l-1.745,0c-32.916,0 -79.075,8.49 -111.979,48.893c-26.68,32.292 -39.648,77.344 -39.648,137.826l0,259.804l-30.313,0l0,-259.804c0,-62.331 -14.974,-110.339 -44.453,-142.656c-25.664,-28.855 -63.294,-44.063 -108.893,-44.063l-1.732,0c-32.93,0 -79.114,8.49 -112.005,48.893c-25.508,29.831 -38.776,73.594 -39.597,130.196l0,267.434l-30.312,0l0,-476.002l30.312,0l0,82.812c4.61,-8.854 9.844,-16.875 15.639,-23.919c41.158,-49.401 96.64,-59.779 135.963,-59.779l1.732,0c54.57,0 100.065,18.516 131.497,53.581c15.065,16.836 28.177,41.432 36.419,67.24c7.657,-25.143 20.547,-46.94 32.253,-61.055c40.208,-49.388 95.69,-59.766 135.117,-59.766l1.745,0c54.531,0 100,18.516 131.51,53.542c33.776,37.461 51.303,90.99 52.136,159.193l0,264.153Z" style="fill:#002e56;fill-rule:nonzero;"/><path d="M5890.48,997.188c-2.774,0 -5.573,-0.066 -8.334,-0.157l-0.052,0c-26.575,0 -53.034,-3.945 -76.224,-11.406c-74.557,-21.875 -119.192,-74.753 -119.192,-141.458l0,-6.589l30.364,0l0,6.589c0,52.096 36.263,94.166 97.07,112.578c21.368,6.549 45.248,10.013 69.102,10.013c2.409,0.091 4.596,0.117 6.784,0.117c19.935,0 40.872,-3.19 60.521,-9.271c56.849,-16.484 89.427,-52.825 89.427,-99.726c0,-76.042 -79.102,-85.743 -162.865,-96.003l-2.643,-0.325c-88.503,-11.068 -180,-22.513 -180,-116.68c0,-58.216 40.13,-104.427 107.396,-123.568c20.716,-6.367 45.26,-9.622 72.826,-9.622c24.322,0 49.465,3.32 72.682,9.596c71.692,21.237 112.747,66.901 112.747,125.313l0,6.64l-30.391,0l0,-6.64c0,-62.435 -63.072,-87.566 -90.182,-95.456c-45.729,-12.682 -93.568,-11.172 -128.867,-0.794c-54.063,15.572 -85.039,50.039 -85.039,94.531c0,63.737 63.854,76.107 154.088,86.653c94.154,11.459 190.613,23.23 190.613,126.355c0,61.341 -40.691,108.528 -111.654,129.505c-21.615,6.406 -45.183,9.805 -68.177,9.805Z" style="fill:#002e56;fill-rule:nonzero;"/><path d="M229.156,217.995c-63.256,0 -108.985,3.528 -132.227,10.182c-0.703,0.182 -1.719,0.43 -3.06,0.716c-41.029,8.893 -66.003,33.229 -74.219,72.305c-10.612,50.443 48.581,109.375 49.18,109.961c3.294,2.786 357.135,304.375 389.609,332.682c34.284,29.831 81.498,44.922 108.269,33.529c10.937,-4.662 19.44,-10.235 25.859,-15.443c-10.091,3.086 -20.534,4.688 -30.716,4.688c-22.07,0 -42.292,-7.136 -60.104,-21.172c-66.407,-52.344 -143.568,-208.776 -156.016,-237.383l-5.065,-11.51c-20.898,-47.227 -49.544,-111.902 -32.747,-195.925c7.708,-38.45 20.026,-67.148 26.197,-80c-17.226,-0.833 -59.713,-2.63 -104.96,-2.63Z" style="fill:#0990d0;fill-rule:nonzero;"/><path d="M240.549,195.13c43.307,0 83.281,2.266 103.698,4.492l12.578,1.329c51.354,5.273 121.706,12.513 186.263,68.75c29.596,25.768 48.398,50.703 56.484,62.434c19.466,-30.572 97.956,-155.95 111.107,-209.674c0.156,-0.716 0.482,-1.758 0.898,-3.099c12.579,-40.039 3.829,-73.763 -25.95,-100.221c-14.297,-12.709 -35.912,-19.141 -64.245,-19.141c-29.401,0 -55.391,7.214 -55.664,7.279c-4.049,1.484 -441.419,159.075 -482.122,173.255c-38.256,13.307 -78.985,44.193 -82.852,77.383c-1.328,11.744 -0.729,21.888 0.625,30.065c6.341,-27.891 24.128,-56.419 59.375,-70.651c45.352,-18.347 122.826,-22.201 179.805,-22.201Z" style="fill:#f7931d;fill-rule:nonzero;"/><path d="M366.994,507.331c16.589,32.2 85.274,163.242 125.052,201.679c0.508,0.534 1.237,1.276 2.149,2.292c7.487,8.294 30.338,33.464 68.489,33.464c10.039,0 20.534,-1.784 31.224,-5.261c48.985,-15.976 70.443,-96.732 70.677,-97.526c0.755,-4.297 85.274,-461.458 93.581,-503.75c7.76,-39.726 1.667,-90.455 -25.039,-110.521c-9.466,-7.109 -18.568,-11.705 -26.302,-14.661c20.885,19.583 36.562,49.31 31.081,86.875c-12.162,83.789 -109.128,228.711 -127.722,253.763l-7.448,10.169c-30.468,41.68 -72.187,98.789 -153.307,126.198c-37.174,12.539 -68.203,16.211 -82.435,17.279Z" style="fill:#002e56;fill-rule:nonzero;"/></svg>