<?xml version="1.0" encoding="UTF-8" standalone="no"?><!DOCTYPE svg PUBLIC "-//W3C//DTD SVG 1.1//EN" "http://www.w3.org/Graphics/SVG/1.1/DTD/svg11.dtd"><svg width="100%" height="100%" viewBox="0 0 724 118" version="1.1" xmlns="http://www.w3.org/2000/svg" xmlns:xlink="http://www.w3.org/1999/xlink" xml:space="preserve" style="fill-rule:evenodd;clip-rule:evenodd;stroke-linejoin:round;stroke-miterlimit:1.41421;"><g><g><path d="M51.637,114.086c-2.588,0.683 -5.407,1.245 -8.459,1.684c-3.052,0.44 -5.774,0.659 -8.167,0.659c-8.349,0 -14.697,-2.246 -19.043,-6.738c-4.345,-4.492 -6.518,-11.694 -6.518,-21.606l0,-43.506l-9.302,0l0,-11.573l9.302,0l0,-23.51l13.769,0l0,23.51l28.418,0l0,11.573l-28.418,0l0,37.28c0,4.297 0.098,7.654 0.293,10.071c0.196,2.417 0.879,4.675 2.051,6.775c1.074,1.953 2.551,3.381 4.431,4.284c1.88,0.904 4.749,1.355 8.606,1.355c2.246,0 4.59,-0.329 7.031,-0.988c2.442,-0.66 4.2,-1.209 5.274,-1.648l0.732,0l0,12.378Z" style="fill:#31859c;fill-rule:nonzero;"/><path d="M119.313,48.021l-0.732,0c-2.051,-0.488 -4.041,-0.842 -5.97,-1.062c-1.928,-0.22 -4.211,-0.329 -6.848,-0.329c-4.248,0 -8.349,0.939 -12.304,2.819c-3.956,1.88 -7.764,4.309 -11.426,7.288l0,58.081l-13.77,0l0,-81.812l13.77,0l0,12.085c5.469,-4.394 10.29,-7.507 14.465,-9.338c4.175,-1.831 8.435,-2.747 12.781,-2.747c2.392,0 4.126,0.062 5.2,0.184c1.074,0.122 2.686,0.354 4.834,0.695l0,14.136Z" style="fill:#31859c;fill-rule:nonzero;"/></g><g><path d="M193.214,114.818l-13.696,0l0,-8.716c-1.221,0.83 -2.869,1.99 -4.944,3.479c-2.075,1.489 -4.089,2.674 -6.043,3.552c-2.295,1.123 -4.931,2.063 -7.91,2.82c-2.978,0.757 -6.469,1.136 -10.473,1.136c-7.373,0 -13.623,-2.442 -18.75,-7.325c-5.127,-4.883 -7.691,-11.108 -7.691,-18.676c0,-6.202 1.331,-11.219 3.992,-15.052c2.661,-3.833 6.457,-6.848 11.389,-9.045c4.981,-2.197 10.962,-3.687 17.944,-4.468c6.983,-0.781 14.478,-1.367 22.486,-1.758l0,-2.124c0,-3.125 -0.55,-5.713 -1.648,-7.763c-1.099,-2.051 -2.674,-3.663 -4.724,-4.834c-1.953,-1.123 -4.297,-1.88 -7.032,-2.271c-2.734,-0.391 -5.59,-0.586 -8.569,-0.586c-3.613,0 -7.642,0.476 -12.085,1.428c-4.443,0.953 -9.033,2.332 -13.769,4.139l-0.733,0l0,-13.99c2.686,-0.732 6.568,-1.538 11.646,-2.417c5.078,-0.879 10.083,-1.318 15.014,-1.318c5.762,0 10.779,0.476 15.052,1.428c4.272,0.952 7.971,2.576 11.096,4.871c3.076,2.246 5.42,5.151 7.031,8.716c1.611,3.564 2.417,7.983 2.417,13.256l0,55.518Zm-13.696,-20.142l0,-22.778c-4.199,0.244 -9.143,0.61 -14.832,1.099c-5.688,0.488 -10.193,1.196 -13.513,2.124c-3.955,1.123 -7.153,2.868 -9.595,5.237c-2.441,2.368 -3.662,5.627 -3.662,9.777c0,4.688 1.416,8.216 4.248,10.584c2.832,2.368 7.154,3.552 12.964,3.552c4.834,0 9.253,-0.94 13.257,-2.82c4.004,-1.88 7.715,-4.138 11.133,-6.775Z" style="fill:#31859c;fill-rule:nonzero;"/><path d="M289.308,33.006l-33.106,81.812l-13.842,0l-32.886,-81.812l14.941,0l25.342,65.113l25.122,-65.113l14.429,0Z" style="fill:#31859c;fill-rule:nonzero;"/><path d="M374.488,75.34l-60.278,0c0,5.03 0.757,9.412 2.271,13.147c1.513,3.736 3.588,6.8 6.225,9.192c2.539,2.344 5.554,4.102 9.046,5.274c3.491,1.172 7.336,1.758 11.535,1.758c5.567,0 11.17,-1.111 16.809,-3.333c5.64,-2.222 9.656,-4.407 12.049,-6.555l0.732,0l0,15.015c-4.639,1.953 -9.375,3.588 -14.209,4.907c-4.834,1.318 -9.912,1.977 -15.234,1.977c-13.574,0 -24.17,-3.674 -31.787,-11.023c-7.618,-7.348 -11.426,-17.785 -11.426,-31.311c0,-13.379 3.65,-23.999 10.95,-31.86c7.299,-7.861 16.906,-11.792 28.82,-11.792c11.036,0 19.544,3.223 25.525,9.668c5.982,6.445 8.972,15.601 8.972,27.466l0,7.47Zm-13.403,-10.546c-0.049,-7.227 -1.868,-12.818 -5.456,-16.773c-3.589,-3.955 -9.046,-5.932 -16.37,-5.932c-7.373,0 -13.245,2.172 -17.615,6.518c-4.37,4.346 -6.848,9.741 -7.434,16.187l46.875,0Z" style="fill:#31859c;fill-rule:nonzero;"/><path d="M446.412,48.021l-0.732,0c-2.051,-0.488 -4.041,-0.842 -5.969,-1.062c-1.929,-0.22 -4.212,-0.329 -6.849,-0.329c-4.248,0 -8.349,0.939 -12.304,2.819c-3.955,1.88 -7.764,4.309 -11.426,7.288l0,58.081l-13.77,0l0,-81.812l13.77,0l0,12.085c5.469,-4.394 10.291,-7.507 14.465,-9.338c4.175,-1.831 8.435,-2.747 12.781,-2.747c2.393,0 4.126,0.062 5.2,0.184c1.075,0.122 2.686,0.354 4.834,0.695l0,14.136Z" style="fill:#31859c;fill-rule:nonzero;"/><path d="M517.823,91.234c0,7.471 -3.088,13.599 -9.265,18.384c-6.176,4.785 -14.612,7.178 -25.305,7.178c-6.055,0 -11.609,-0.721 -16.663,-2.161c-5.053,-1.441 -9.289,-3.015 -12.707,-4.724l0,-15.454l0.732,0c4.346,3.271 9.18,5.871 14.502,7.8c5.323,1.929 10.425,2.893 15.308,2.893c6.055,0 10.791,-0.977 14.209,-2.93c3.418,-1.953 5.127,-5.029 5.127,-9.228c0,-3.223 -0.928,-5.664 -2.783,-7.324c-1.856,-1.661 -5.42,-3.077 -10.694,-4.248c-1.953,-0.44 -4.504,-0.953 -7.653,-1.539c-3.15,-0.585 -6.019,-1.22 -8.606,-1.904c-7.178,-1.904 -12.268,-4.7 -15.271,-8.386c-3.003,-3.687 -4.505,-8.215 -4.505,-13.586c0,-3.37 0.696,-6.543 2.088,-9.522c1.391,-2.978 3.503,-5.64 6.335,-7.983c2.734,-2.295 6.213,-4.114 10.437,-5.457c4.224,-1.343 8.948,-2.014 14.172,-2.014c4.883,0 9.827,0.598 14.832,1.794c5.005,1.197 9.167,2.649 12.488,4.358l0,14.722l-0.733,0c-3.515,-2.588 -7.788,-4.773 -12.817,-6.555c-5.029,-1.782 -9.961,-2.674 -14.795,-2.674c-5.029,0 -9.277,0.965 -12.744,2.894c-3.467,1.928 -5.2,4.797 -5.2,8.605c0,3.37 1.049,5.909 3.149,7.618c2.051,1.709 5.371,3.1 9.961,4.174c2.539,0.586 5.383,1.172 8.533,1.758c3.149,0.586 5.774,1.123 7.873,1.612c6.397,1.464 11.328,3.979 14.795,7.544c3.467,3.613 5.2,8.398 5.2,14.355Z" style="fill:#31859c;fill-rule:nonzero;"/><path d="M607.252,73.949c0,13.33 -3.418,23.852 -10.254,31.567c-6.836,7.715 -15.991,11.573 -27.466,11.573c-11.572,0 -20.764,-3.858 -27.575,-11.573c-6.812,-7.715 -10.218,-18.237 -10.218,-31.567c0,-13.33 3.406,-23.865 10.218,-31.604c6.811,-7.739 16.003,-11.609 27.575,-11.609c11.475,0 20.63,3.87 27.466,11.609c6.836,7.739 10.254,18.274 10.254,31.604Zm-14.209,0c0,-10.596 -2.075,-18.469 -6.225,-23.621c-4.151,-5.151 -9.913,-7.727 -17.286,-7.727c-7.47,0 -13.269,2.576 -17.395,7.727c-4.126,5.152 -6.189,13.025 -6.189,23.621c0,10.254 2.076,18.03 6.226,23.327c4.15,5.298 9.937,7.947 17.358,7.947c7.325,0 13.074,-2.624 17.249,-7.873c4.175,-5.249 6.262,-13.05 6.262,-23.401Z" style="fill:#31859c;fill-rule:nonzero;"/><path d="M672.584,14.183l-0.732,0c-1.514,-0.439 -3.491,-0.891 -5.933,-1.355c-2.441,-0.464 -4.59,-0.696 -6.445,-0.696c-5.908,0 -10.193,1.307 -12.854,3.919c-2.661,2.612 -3.992,7.336 -3.992,14.172l0,2.783l24.829,0l0,11.573l-24.389,0l0,70.239l-13.77,0l0,-70.239l-9.302,0l0,-11.573l9.302,0l0,-2.709c0,-9.717 2.417,-17.176 7.251,-22.376c4.834,-5.2 11.816,-7.8 20.947,-7.8c3.076,0 5.847,0.146 8.313,0.439c2.466,0.293 4.724,0.635 6.775,1.026l0,12.597Z" style="fill:#31859c;fill-rule:nonzero;"/><path d="M723.78,114.086c-2.587,0.683 -5.407,1.245 -8.459,1.684c-3.052,0.44 -5.774,0.659 -8.167,0.659c-8.349,0 -14.697,-2.246 -19.043,-6.738c-4.345,-4.492 -6.518,-11.694 -6.518,-21.606l0,-43.506l-9.302,0l0,-11.573l9.302,0l0,-23.51l13.769,0l0,23.51l28.418,0l0,11.573l-28.418,0l0,37.28c0,4.297 0.098,7.654 0.293,10.071c0.196,2.417 0.879,4.675 2.051,6.775c1.074,1.953 2.551,3.381 4.431,4.284c1.88,0.904 4.749,1.355 8.606,1.355c2.246,0 4.59,-0.329 7.032,-0.988c2.441,-0.66 4.199,-1.209 5.273,-1.648l0.732,0l0,12.378Z" style="fill:#31859c;fill-rule:nonzero;"/></g></g></svg>