<?xml version="1.0" encoding="UTF-8" standalone="no"?>
<!DOCTYPE svg PUBLIC "-//W3C//DTD SVG 1.1//EN" "http://www.w3.org/Graphics/SVG/1.1/DTD/svg11.dtd">
<svg width="100%" height="100%" viewBox="0 0 600 600" version="1.1" xmlns="http://www.w3.org/2000/svg" xmlns:xlink="http://www.w3.org/1999/xlink" xml:space="preserve" style="fill-rule:evenodd;clip-rule:evenodd;stroke-linejoin:round;stroke-miterlimit:1.41421;">
    <g transform="matrix(1.92308,0,0,1.92308,-154.1,-89.5625)">
        <path d="M116.268,333.572L114.914,333.572L109.742,315.396C109.312,313.902 108.989,312.677 108.775,311.722C108.603,312.656 108.358,313.73 108.042,314.945C107.725,316.158 105.992,322.367 102.846,333.572L101.459,333.572L94.982,310.013L96.706,310.013L100.831,325.193C100.992,325.804 101.143,326.371 101.282,326.892C101.422,327.414 101.548,327.902 101.661,328.359C101.773,328.816 101.876,329.255 101.967,329.679C102.059,330.105 102.142,330.531 102.217,330.96C102.475,329.5 103.022,327.283 103.86,324.306L107.889,310.013L109.709,310.013L114.431,326.417C114.979,328.308 115.37,329.834 115.607,330.994C115.746,330.22 115.927,329.398 116.146,328.529C116.367,327.658 118.023,321.486 121.117,310.013L122.777,310.013L116.268,333.572Z" style="fill-rule:nonzero;"/>
    </g>
    <g transform="matrix(1.92308,0,0,1.92308,-154.1,-89.5625)">
        <path d="M125.213,324.791C125.213,327.197 125.741,329.074 126.8,330.421C127.857,331.769 129.354,332.443 131.287,332.443C133.221,332.443 134.717,331.769 135.774,330.421C136.833,329.074 137.361,327.197 137.361,324.791C137.361,322.373 136.827,320.498 135.759,319.166C134.689,317.834 133.188,317.167 131.255,317.167C129.321,317.167 127.831,317.832 126.783,319.158C125.736,320.484 125.213,322.363 125.213,324.791ZM139.037,324.791C139.037,327.648 138.345,329.878 136.959,331.484C135.573,333.091 133.661,333.894 131.223,333.894C129.687,333.894 128.332,333.523 127.162,332.783C125.991,332.041 125.094,330.978 124.471,329.591C123.848,328.207 123.537,326.605 123.537,324.791C123.537,321.933 124.229,319.707 125.615,318.111C127.001,316.515 128.901,315.718 131.319,315.718C133.726,315.718 135.613,316.527 136.983,318.142C138.353,319.759 139.037,321.976 139.037,324.791Z" style="fill-rule:nonzero;"/>
    </g>
    <g transform="matrix(1.92308,0,0,1.92308,-154.1,-89.5625)">
        <path d="M164.119,333.572L164.119,322.084C164.119,320.375 163.786,319.128 163.12,318.345C162.454,317.56 161.434,317.167 160.059,317.167C158.265,317.167 156.938,317.662 156.078,318.65C155.219,319.638 154.789,321.191 154.789,323.308L154.789,333.572L153.162,333.572L153.162,321.599C153.162,318.646 151.809,317.167 149.102,317.167C147.265,317.167 145.928,317.703 145.09,318.771C144.252,319.839 143.832,321.55 143.832,323.904L143.832,333.572L142.237,333.572L142.237,316.056L143.559,316.056L143.896,318.457L143.994,318.457C144.477,317.587 145.164,316.914 146.057,316.435C146.947,315.957 147.931,315.718 149.005,315.718C151.766,315.718 153.538,316.755 154.322,318.828L154.387,318.828C154.956,317.83 155.722,317.06 156.683,316.523C157.645,315.986 158.737,315.718 159.962,315.718C161.874,315.718 163.308,316.228 164.264,317.25C165.22,318.269 165.698,319.892 165.698,322.115L165.698,333.572L164.119,333.572Z" style="fill-rule:nonzero;"/>
    </g>
    <g transform="matrix(1.92308,0,0,1.92308,-154.1,-89.5625)">
        <path d="M176.327,317.136C174.641,317.136 173.287,317.691 172.267,318.804C171.246,319.916 170.649,321.519 170.478,323.613L181.306,323.613C181.306,321.584 180.865,319.996 179.985,318.851C179.104,317.709 177.885,317.136 176.327,317.136ZM176.794,333.894C174.249,333.894 172.264,333.109 170.841,331.541C169.417,329.972 168.706,327.777 168.706,324.951C168.706,322.158 169.393,319.921 170.769,318.24C172.143,316.558 173.996,315.718 176.327,315.718C178.39,315.718 180.017,316.437 181.21,317.876C182.401,319.316 182.998,321.271 182.998,323.742L182.998,325.031L170.382,325.031C170.402,327.437 170.964,329.275 172.065,330.542C173.166,331.81 174.742,332.443 176.794,332.443C177.794,332.443 178.672,332.375 179.429,332.234C180.187,332.095 181.146,331.794 182.306,331.332L182.306,332.783C181.316,333.212 180.403,333.503 179.565,333.66C178.728,333.816 177.804,333.894 176.794,333.894Z" style="fill-rule:nonzero;"/>
    </g>
    <g transform="matrix(1.92308,0,0,1.92308,-154.1,-89.5625)">
        <path d="M198.726,333.572L198.726,322.212C198.726,320.451 198.354,319.169 197.614,318.369C196.872,317.568 195.723,317.167 194.165,317.167C192.071,317.167 190.537,317.697 189.565,318.755C188.593,319.814 188.106,321.529 188.106,323.904L188.106,333.572L186.512,333.572L186.512,316.056L187.865,316.056L188.171,318.457L188.269,318.457C189.406,316.63 191.432,315.718 194.343,315.718C198.317,315.718 200.305,317.851 200.305,322.115L200.305,333.572L198.726,333.572Z" style="fill-rule:nonzero;"/>
    </g>
    <g transform="matrix(1.92308,0,0,1.92308,-154.1,-89.5625)">
        <path d="M219.111,333.572L217.451,333.572L217.451,311.56L209.798,311.56L209.798,310.013L226.766,310.013L226.766,311.56L219.111,311.56L219.111,333.572Z" style="fill-rule:nonzero;"/>
    </g>
    <g transform="matrix(1.92308,0,0,1.92308,-154.1,-89.5625)">
        <path d="M234.485,317.136C232.799,317.136 231.445,317.691 230.425,318.804C229.404,319.916 228.808,321.519 228.636,323.613L239.463,323.613C239.463,321.584 239.024,319.996 238.143,318.851C237.262,317.709 236.043,317.136 234.485,317.136ZM234.952,333.894C232.407,333.894 230.422,333.109 228.999,331.541C227.575,329.972 226.864,327.777 226.864,324.951C226.864,322.158 227.551,319.921 228.927,318.24C230.301,316.558 232.154,315.718 234.485,315.718C236.548,315.718 238.174,316.437 239.368,317.876C240.559,319.316 241.157,321.271 241.157,323.742L241.157,325.031L228.54,325.031C228.561,327.437 229.122,329.275 230.224,330.542C231.324,331.81 232.9,332.443 234.952,332.443C235.952,332.443 236.831,332.375 237.586,332.234C238.344,332.095 239.303,331.794 240.463,331.332L240.463,332.783C239.475,333.212 238.561,333.503 237.723,333.66C236.885,333.816 235.962,333.894 234.952,333.894Z" style="fill-rule:nonzero;"/>
    </g>
    <g transform="matrix(1.92308,0,0,1.92308,-154.1,-89.5625)">
        <path d="M251.993,333.894C249.491,333.894 247.53,333.105 246.112,331.525C244.694,329.947 243.985,327.744 243.985,324.919C243.985,322.019 244.721,319.759 246.192,318.142C247.665,316.527 249.678,315.718 252.235,315.718C253.749,315.718 255.2,315.982 256.584,316.507L256.151,317.925C254.635,317.421 253.319,317.167 252.202,317.167C250.053,317.167 248.426,317.832 247.321,319.158C246.213,320.484 245.661,322.394 245.661,324.886C245.661,327.25 246.213,329.099 247.321,330.437C248.426,331.775 249.973,332.443 251.961,332.443C253.551,332.443 255.028,332.16 256.39,331.589L256.39,333.072C255.274,333.621 253.809,333.894 251.993,333.894Z" style="fill-rule:nonzero;"/>
    </g>
    <g transform="matrix(1.92308,0,0,1.92308,-154.1,-89.5625)">
        <path d="M272.561,333.572L272.561,322.212C272.561,320.451 272.19,319.169 271.45,318.369C270.708,317.568 269.559,317.167 268,317.167C265.907,317.167 264.374,317.697 263.401,318.755C262.428,319.814 261.941,321.529 261.941,323.904L261.941,333.572L260.347,333.572L260.347,308.5L261.941,308.5L261.941,316.476L261.862,318.714L261.975,318.714C262.629,317.662 263.458,316.9 264.456,316.427C265.456,315.955 266.696,315.718 268.178,315.718C272.153,315.718 274.141,317.851 274.141,322.115L274.141,333.572L272.561,333.572Z" style="fill-rule:nonzero;"/>
    </g>
    <g transform="matrix(1.92308,0,0,1.92308,-154.1,-89.5625)">
        <path d="M300.375,333.572L300.375,322.084C300.375,320.375 300.042,319.128 299.375,318.345C298.709,317.56 297.69,317.167 296.315,317.167C294.52,317.167 293.194,317.662 292.334,318.65C291.475,319.638 291.045,321.191 291.045,323.308L291.045,333.572L289.418,333.572L289.418,321.599C289.418,318.646 288.065,317.167 285.358,317.167C283.52,317.167 282.184,317.703 281.346,318.771C280.508,319.839 280.088,321.55 280.088,323.904L280.088,333.572L278.493,333.572L278.493,316.056L279.815,316.056L280.153,318.457L280.25,318.457C280.733,317.587 281.42,316.914 282.313,316.435C283.204,315.957 284.186,315.718 285.26,315.718C288.022,315.718 289.793,316.755 290.579,318.828L290.643,318.828C291.211,317.83 291.977,317.06 292.938,316.523C293.901,315.986 294.993,315.718 296.217,315.718C298.129,315.718 299.563,316.228 300.52,317.25C301.475,318.269 301.954,319.892 301.954,322.115L301.954,333.572L300.375,333.572Z" style="fill-rule:nonzero;"/>
    </g>
    <g transform="matrix(1.92308,0,0,1.92308,-154.1,-89.5625)">
        <path d="M310.495,332.443C312.364,332.443 313.838,331.91 314.918,330.839C315.999,329.771 316.538,328.287 316.538,326.384L316.538,324.662L313.477,324.791C311.016,324.908 309.262,325.292 308.215,325.941C307.168,326.591 306.645,327.605 306.645,328.98C306.645,330.076 306.979,330.925 307.651,331.533C308.323,332.14 309.27,332.443 310.495,332.443ZM316.94,333.572L316.538,330.8L316.409,330.8C315.528,331.927 314.624,332.726 313.694,333.193C312.764,333.66 311.667,333.894 310.399,333.894C308.68,333.894 307.342,333.453 306.387,332.572C305.43,331.691 304.952,330.472 304.952,328.916C304.952,327.207 305.665,325.88 307.086,324.935C308.51,323.99 310.571,323.49 313.266,323.437L316.602,323.339L316.602,322.179C316.602,320.515 316.264,319.257 315.586,318.41C314.911,317.56 313.819,317.136 312.317,317.136C310.694,317.136 309.012,317.587 307.272,318.49L306.676,317.103C308.598,316.201 310.5,315.75 312.381,315.75C314.303,315.75 315.741,316.25 316.69,317.25C317.641,318.248 318.118,319.806 318.118,321.921L318.118,333.572L316.94,333.572Z" style="fill-rule:nonzero;"/>
    </g>
    <g transform="matrix(1.92308,0,0,1.92308,-154.1,-89.5625)">
        <path d="M324.362,325.886L333.305,316.056L335.239,316.056L328.342,323.533L335.834,333.572L333.917,333.572L327.262,324.726L324.393,327.335L324.393,333.572L322.799,333.572L322.799,308.5L324.393,308.5L324.393,321.068L324.282,325.886L324.362,325.886Z" style="fill-rule:nonzero;"/>
    </g>
    <g transform="matrix(1.92308,0,0,1.92308,-154.1,-89.5625)">
        <path d="M344.053,317.136C342.368,317.136 341.014,317.691 339.993,318.804C338.973,319.916 338.375,321.519 338.204,323.613L349.032,323.613C349.032,321.584 348.592,319.996 347.711,318.851C346.831,317.709 345.612,317.136 344.053,317.136ZM344.52,333.894C341.975,333.894 339.991,333.109 338.567,331.541C337.143,329.972 336.432,327.777 336.432,324.951C336.432,322.158 337.12,319.921 338.495,318.24C339.87,316.558 341.723,315.718 344.053,315.718C346.116,315.718 347.743,316.437 348.936,317.876C350.127,319.316 350.725,321.271 350.725,323.742L350.725,325.031L338.108,325.031C338.129,327.437 338.69,329.275 339.792,330.542C340.893,331.81 342.469,332.443 344.52,332.443C345.52,332.443 346.399,332.375 347.155,332.234C347.913,332.095 348.872,331.794 350.032,331.332L350.032,332.783C349.043,333.212 348.129,333.503 347.292,333.66C346.454,333.816 345.53,333.894 344.52,333.894Z" style="fill-rule:nonzero;"/>
    </g>
    <g transform="matrix(1.92308,0,0,1.92308,-154.1,-89.5625)">
        <path d="M361.465,315.718C362.206,315.718 363,315.792 363.85,315.943L363.543,317.474C362.813,317.292 362.055,317.201 361.272,317.201C359.778,317.201 358.553,317.834 357.598,319.101C356.641,320.369 356.163,321.97 356.163,323.904L356.163,333.572L354.569,333.572L354.569,316.056L355.922,316.056L356.083,319.214L356.196,319.214C356.915,317.925 357.684,317.021 358.5,316.5C359.317,315.978 360.305,315.718 361.465,315.718Z" style="fill-rule:nonzero;"/>
    </g>
    <g transform="matrix(1.92308,0,0,1.92308,-154.1,-89.5625)">
        <path d="M377.282,329.011C377.282,330.58 376.686,331.785 375.493,332.628C374.301,333.472 372.608,333.894 370.417,333.894C368.075,333.894 366.217,333.535 364.842,332.814L364.842,331.089C366.604,331.97 368.461,332.412 370.417,332.412C372.147,332.412 373.459,332.125 374.356,331.548C375.254,330.974 375.702,330.209 375.702,329.253C375.702,328.373 375.344,327.63 374.631,327.029C373.917,326.427 372.743,325.837 371.11,325.257C369.358,324.623 368.129,324.078 367.42,323.621C366.711,323.166 366.176,322.65 365.817,322.074C365.458,321.5 365.278,320.798 365.278,319.972C365.278,318.662 365.827,317.625 366.928,316.863C368.03,316.099 369.569,315.718 371.545,315.718C373.436,315.718 375.229,316.072 376.926,316.781L376.331,318.232C374.612,317.523 373.016,317.167 371.545,317.167C370.116,317.167 368.983,317.404 368.145,317.876C367.307,318.349 366.889,319.005 366.889,319.843C366.889,320.755 367.213,321.486 367.864,322.035C368.512,322.582 369.784,323.195 371.674,323.871C373.252,324.441 374.403,324.953 375.122,325.41C375.842,325.867 376.381,326.384 376.741,326.964C377.102,327.544 377.282,328.228 377.282,329.011Z" style="fill-rule:nonzero;"/>
    </g>
    <g transform="matrix(1.92308,0,0,1.92308,-154.1,-89.5625)">
        <rect x="160.738" y="113.45" width="37.65" height="122.249" style="fill:rgb(75,123,184);fill-rule:nonzero;"/>
    </g>
    <g transform="matrix(1.92308,0,0,1.92308,-154.1,-89.5625)">
        <rect x="273.387" y="113.45" width="37.875" height="122.249" style="fill:rgb(0,141,161);fill-rule:nonzero;"/>
    </g>
    <g transform="matrix(1.92308,0,0,1.92308,-154.1,-89.5625)">
        <path d="M273.612,235.699L311.262,235.699L254.942,131.97L217.292,131.97L273.612,235.699Z" style="fill:rgb(0,165,184);fill-rule:nonzero;"/>
    </g>
    <g transform="matrix(1.92308,0,0,1.92308,-154.1,-89.5625)">
        <path d="M198.388,235.699L160.737,235.699L217.058,131.97L254.708,131.97L198.388,235.699Z" style="fill:rgb(65,159,211);fill-rule:nonzero;"/>
    </g>
    <g transform="matrix(1.92308,0,0,1.92308,-154.1,-89.5625)">
        <path d="M138.599,254.25L138.599,95.332L179.81,95.332L179.81,71.251L123.977,71.251C118.753,71.251 114.477,75.528 114.477,80.751L114.477,267.4C114.477,272.625 118.753,277.9 123.977,277.9L179.81,277.9L179.81,254.25L138.599,254.25Z" style="fill:rgb(75,123,184);fill-rule:nonzero;"/>
    </g>
    <g transform="matrix(1.92308,0,0,1.92308,-154.1,-89.5625)">
        <path d="M333.401,254.25L333.401,95.332L292.19,95.332L292.19,71.251L348.024,71.251C353.247,71.251 357.523,75.528 357.523,80.751L357.523,267.4C357.523,272.625 353.247,277.9 348.024,277.9L292.19,277.9L292.19,254.25L333.401,254.25Z" style="fill:rgb(0,141,161);fill-rule:nonzero;"/>
    </g>
</svg>
