<?xml version="1.0" encoding="UTF-8" standalone="no"?><!DOCTYPE svg PUBLIC "-//W3C//DTD SVG 1.1//EN" "http://www.w3.org/Graphics/SVG/1.1/DTD/svg11.dtd"><svg width="100%" height="100%" viewBox="0 0 600 175" version="1.1" xmlns="http://www.w3.org/2000/svg" xmlns:xlink="http://www.w3.org/1999/xlink" xml:space="preserve" style="fill-rule:evenodd;clip-rule:evenodd;stroke-linejoin:round;stroke-miterlimit:1.41421;"><path d="M156.028,28.822c-20.37,0.416 -45.035,18.29 -71.085,18.29c-11.224,0 -21.617,-3.602 -20.924,-7.205c0.83,-3.61 11.08,-4.85 20.23,-4.16c10.94,0.83 15.24,3.18 20.92,3.46c4.85,0.27 5.54,-2.08 2.49,-2.36c-5.96,-0.56 -17.19,-4.99 -29.52,-5.13c-12.47,-0.14 -20.09,3.05 -20.79,8.73c-0.56,4.57 7.9,11.22 26.6,11.36c24.53,0.28 51.69,-18.43 72.06,-18.57c10.25,-0.14 20.37,1.94 19.53,6.79c-0.83,4.99 -9.01,6.23 -18.29,6.37c-10.81,0.14 -17.6,-4.44 -23.97,-4.3c-5.41,0.14 -4.16,2.21 -3.05,2.21c7.62,0.14 18.29,6.37 30.76,6.23c13.16,-0.14 19.67,-4.71 20.09,-10.81c0.41,-5.82 -7.21,-11.22 -25.08,-10.95l0.029,0.045Z" style="fill:#ffb819;fill-rule:nonzero;"/><path d="M230.023,125.681c-6.74,-11.027 -28.33,-17.057 -60.446,-4.8c-0.67,-5.76 -3.084,-21.615 -3.572,-25.27c-0.554,-4.02 -2.632,-11.362 -4.85,-13.996c-2.218,-2.633 -5.543,-5.266 -11.5,-5.958c-9.285,-1.25 -27.022,5.95 -33.673,8.17c-14.965,4.99 -16.905,2.08 -11.5,-2.64c2.91,-2.5 1.94,-5.82 -7.068,-0.97c-3.88,2.08 -5.958,6.37 -5.266,8.73c1.247,4.15 5.404,4.99 13.302,3.46c8.87,-1.66 16.35,-5.13 25.497,-8.59c6.374,-2.5 10.254,-3.61 14.272,-4.16c3.74,-0.56 10.11,0.14 12.47,6.09c2.91,7.62 2.63,14.69 3.05,27.57c0.16,5.22 0.06,8.89 0.26,11.13c-1.5,0.69 -3.02,1.4 -4.56,2.16c-19.26,9.28 -50.86,33.67 -81.62,35.33c-27.3,1.52 -64.3,-9.42 -66.1,-25.64c-1.67,-15.1 20.78,-20.37 35.47,-20.37c11.17,0 21.92,2.74 28.69,3.53c-1.53,12.21 -5.31,22.48 -18.44,25.57c-8.18,1.94 -1.94,5.13 4.85,3.88c21.75,-4.02 18.43,-30.9 21.89,-56.54c0.55,-4.02 4.57,-13.03 15.38,-17.19c6.27,-2.45 11.91,-4.4 21.44,-4.8l0.03,0.5c0.27,3.46 0.41,5.4 1.66,5.96c1.94,0.69 3.6,-0.28 4.02,-2.08c0.25,-1 0.19,-3 0.11,-4.44c1.29,0.02 2.61,0.06 4.04,0.14c8.31,0.41 14.82,3.88 17.59,2.63c2.91,-1.38 -3.33,-3.05 -3.33,-3.05c0,0 -6.3,-2.5 -18.5,-2.63c-0.26,-4.24 -1.1,-18.02 -1.45,-20.24c-0.28,-2.49 -5.27,0.28 -5.13,3.05c0,0.93 0.39,10.74 0.76,17.31c-3.38,0.17 -7.09,0.52 -11.15,1.12c-23.28,3.47 -30.07,16.22 -31.18,22.17c-1.43,8.18 -1.49,17.25 -2.3,25.64c-6.43,-0.92 -15.79,-3.88 -29.02,-3.88c-18.02,0 -46.01,4.99 -44.21,23.98c2.08,22.58 46.28,33.53 76.77,30.76c43.09,-3.88 75.24,-32.7 96.72,-41.99c10.95,-4.72 38.66,-11.92 48.64,1.24c10.39,13.72 -8.18,32.43 -44.9,32.43c-13.16,0 -23.42,-0.42 -33.53,-1.94c-10.12,-1.8 -13.86,-1.66 -14.14,0c-0.42,1.8 17.04,7.62 43.51,7.62c62.21,0 62.63,-29.51 56.95,-39.07l0.064,0.074Zm-15.658,-113.21l-3.465,0c-1.246,0 -1.662,-0.554 -1.662,-1.8l0,-4.158c0,-1.524 0.416,-1.8 1.94,-1.8l26.19,0c16.35,0 25.496,4.294 25.496,17.18c0,10.117 -6.097,14.69 -12.194,15.66l0,0.138c9.56,1.108 16.212,7.206 16.212,17.875c0,17.32 -12.887,19.815 -28.684,19.815l-27.16,0c-1.247,0 -1.8,-0.277 -1.8,-1.8l0,-3.88c0,-1.525 0.553,-1.94 1.662,-1.94c5.404,0 6.513,-0.694 6.513,-4.574l0,-46.84c-0.138,-2.64 -0.83,-3.61 -3.048,-3.88l0,0.004Zm13.995,21.478l10.53,0c8.73,0 12.472,-3.46 12.472,-11.36c0,-8.45 -5.404,-10.11 -12.61,-10.11l-10.254,0c-0.138,7.21 -0.138,14.28 -0.138,21.48l0,-0.01Zm0,33.95l11.085,0c7.344,0 15.658,-1.52 15.658,-12.19c0,-10.25 -6.236,-13.72 -16.49,-13.72l-10.115,0c-0.138,8.73 -0.138,17.32 -0.138,25.91l0,0Zm65.127,0.14l2.355,0c1.524,0 1.802,0.42 1.802,1.53l0,4.3c0,1.39 -0.555,1.8 -1.802,1.8l-23.695,0c-1.386,0 -1.802,-0.41 -1.802,-1.8l0,-4.29c0,-1.11 0.14,-1.52 1.802,-1.52l2.355,0c3.187,0 4.295,-0.55 4.295,-4.16l0,-28.55c0,-2.49 -0.692,-3.46 -2.77,-3.46c-1.11,0 -2.218,0 -3.327,-0.14c-1.524,-0.13 -1.8,-0.83 -1.8,-2.07l0,-3.61c0,-1.52 0.415,-1.8 1.8,-1.8c4.71,-0.28 9.56,-0.55 14.272,-0.83c1.8,0 2.217,0.83 2.217,2.77l0,37.83c0,3.33 1.11,4.02 4.29,4.02l0.008,-0.02Zm-9.423,-64.99c3.464,0 6.513,2.91 6.513,7.07c0,4.58 -3.464,7.21 -7.344,7.21c-3.464,0 -6.236,-2.49 -6.236,-6.65c-0.138,-4.57 3.05,-7.62 7.067,-7.62l0,-0.01Zm38.662,96.86c-10.81,0 -20.786,-3.88 -20.786,-15.52c0,-3.88 3.05,-6.65 6.236,-6.65c3.188,0 5.958,2.5 5.958,6.24c0,2.22 -1.107,4.16 -2.494,5.13c2.494,1.81 6.514,2.77 10.81,2.77c9.423,0 15.52,-5.26 15.52,-20.09l0,-5.82c-3.464,6.24 -8.313,10.53 -17.6,10.53c-12.47,0 -19.676,-7.9 -19.676,-23.55c0,-15.52 7.482,-30.62 24.11,-30.62c5.82,0 10.254,1.8 13.164,5.55l0,-1.94c0,-1.94 0.555,-2.77 2.217,-2.77l13.72,0.84c1.386,0.14 1.8,0.42 1.8,1.8l0,4.16c0,1.11 -0.553,1.39 -1.8,1.8l-2.77,0c-2.22,0.42 -2.772,1.11 -2.91,3.47l0,35.47c0.135,20.51 -10.12,29.24 -25.5,29.24l0.001,-0.04Zm15.242,-53.62c0,-12.47 -4.85,-16.21 -11.086,-16.21c-10.393,0 -15.38,10.4 -15.38,22.17c0,9.56 3.325,16.08 11.36,16.08c8.87,0 15.106,-8.04 15.106,-22.03l0,-0.01Zm96.72,30.07l-2.77,0c-1.11,0 -2.08,-0.14 -2.772,-1.25c-12.888,-17.32 -25.636,-34.78 -38.52,-52.1l0,41.289c0,3.186 1.107,3.74 4.294,3.74l2.08,0c1.522,0 1.8,0.137 1.8,1.523l0,4.296c0,1.52 -0.415,1.8 -1.8,1.8l-21.48,0c-1.386,0 -1.8,-0.28 -1.8,-1.8l0,-4.16c0,-1.25 0.275,-1.53 1.8,-1.53l2.08,0c3.187,0 4.434,-0.7 4.434,-3.74l0,-48.5c-0.14,-2.77 -1.386,-3.47 -4.02,-3.47l-2.217,0c-1.523,0 -1.802,-0.28 -1.802,-1.39l0,-4.44c0,0 0.416,-1.66 1.802,-1.66l12.887,0c1.524,0 2.494,0.55 3.188,1.52c12.193,16.9 24.25,33.81 36.443,50.85l0,-41.01c0,-3.19 -1.11,-3.74 -4.297,-3.74l-2.078,0c-1.523,0 -1.802,-0.14 -1.802,-1.53l0,-4.16c0,-1.53 0.416,-1.8 1.802,-1.8l21.48,0c1.385,0 1.8,0.27 1.8,1.8l0,4.15c0,1.24 -0.275,1.52 -1.8,1.52l-1.94,0c-3.187,0 -4.435,0.69 -4.435,3.74l0,58.61c-0.278,0.97 -0.694,1.38 -2.357,1.38l0,0.062Zm56.952,-37.13c0,9.84 -6.234,16.49 -20.646,16.49c-4.436,0 -8.868,-0.55 -12.887,-1.8c0.97,10.12 5.68,14.28 15.52,14.28c5.682,0 10.67,-1.39 13.164,-2.35c2.22,-0.83 3.33,-1.52 4.16,-1.52c0.69,0 0.83,0.42 0.83,1.11l0,4.57c0,1.11 -0.27,1.8 -1.94,2.63c-3.18,1.67 -10.11,3.33 -17.04,3.33c-18.15,0 -25.63,-10.67 -25.63,-26.46c0,-16.49 8.04,-27.57 23.84,-27.57c13.3,0.41 20.65,6.51 20.65,17.32l-0.021,-0.03Zm-33.672,7.48c4.157,1.11 8.59,1.8 12.194,1.8c7.76,0 11.777,-3.18 11.777,-9.56c0,-6.38 -3.89,-9.14 -11.23,-9.14c-7.9,-0.14 -12.06,6.1 -12.75,16.91l0.009,-0.01Zm41.847,-15.1c-1.247,0 -1.663,-0.55 -1.663,-1.8l0,-4.02c0,-1.38 0.416,-1.8 1.802,-1.8l14.134,-0.83c1.8,0 2.217,0.83 2.217,2.77l0,10.26c1.387,-4.85 5.82,-13.99 16.49,-13.99c7.205,0 10.115,3.88 10.115,9.56c0,3.88 -3.05,6.52 -6.374,6.52c-3.188,0 -5.82,-2.35 -5.82,-6.1c0,-0.83 0.14,-1.52 0.416,-2.22c-9.423,0.28 -14.688,14.14 -14.688,24.53l0,9.42c0,3.6 1.107,4.16 4.296,4.16l4.295,0c1.523,0 1.802,0.42 1.802,1.53l0,4.44c0,1.24 -0.416,1.66 -1.802,1.66l-25.635,0c-1.387,0 -1.803,-0.42 -1.803,-1.8l0,-4.3c0,-1.11 0.277,-1.52 1.803,-1.52l2.217,0c3.188,0 4.435,-0.83 4.435,-4.15l0,-28.55c0,-3.05 -0.832,-3.74 -6.237,-3.74l0,-0.03Zm81.895,-5.12l0,-13.591c0,-2.636 -0.832,-3.467 -2.91,-3.606l-3.326,0c-1.523,-0.14 -1.663,-0.83 -1.663,-2.08l0,-3.6c0,-1.664 0.28,-1.8 1.67,-1.94c4.71,-0.278 9.56,-0.555 14.27,-0.83c1.8,0 2.36,0.83 2.36,2.77l0,60.276c0,2.91 0.97,4.295 2.91,4.295c1.8,0 2.22,-0.416 3.33,-0.554c0.83,-0.13 1.11,0 1.11,0.97l0,4.44c0,0.83 -0.14,1.66 -1.24,2.08c-1.66,0.55 -3.19,0.83 -6.79,0.83c-4.02,0 -8.45,-1.38 -9.56,-7.21c-4.16,5.82 -10.26,8.04 -16.91,8.04c-11.5,0 -19.67,-7.2 -19.67,-24.8c0,-18.57 8.59,-29.51 23.42,-29.51c5.83,0.01 9.57,1.81 13.03,4.02l-0.031,0Zm0,23.56l0,-15.66c-2.218,-2.08 -6.514,-3.74 -11.087,-3.74c-10.393,0 -14.55,9.42 -14.55,20.65c0,9.84 3.326,17.32 11.64,17.32c8.453,0.14 12.888,-6.37 13.996,-18.57l0.001,0Zm-304.85,93.949l0,16.49c0,4.02 1.107,4.57 4.156,4.57l2.217,0c1.663,0 1.8,0.28 1.8,1.524l0,4.29c0,1.247 -0.415,1.8 -1.8,1.8l-23.695,0c-1.386,0 -1.8,-0.414 -1.8,-1.8l0,-4.296c0,-1.11 0.276,-1.526 1.8,-1.526l2.217,0c3.187,0 4.157,-0.83 4.157,-4.57l0,-46.84c0,-2.77 -0.83,-3.88 -3.048,-4.153l-3.464,0c-1.247,0 -1.663,-0.56 -1.663,-1.8l0,-4.16c0,-1.53 0.416,-1.8 1.94,-1.8l23.14,0c18.71,0 27.854,5.54 27.854,20.78c0,10.81 -5.54,17.32 -14.13,19.95c4.44,2.77 7.21,8.31 11.64,19.39c1.11,2.77 2.36,3.46 4.16,3.46c1.11,0 2.5,-0.27 3.88,-0.83c1.11,-0.55 1.53,-0.13 1.53,0.84l0,4.15c0,1.38 -0.41,1.8 -1.8,2.49c-1.66,0.83 -4.43,1.52 -7.34,1.52c-3.74,0 -7.62,-0.55 -10.8,-7.9c-3.18,-7.63 -6.79,-21.9 -16.49,-21.9c-1.52,0.28 -3.04,0.28 -4.43,0.28l-0.031,0.041Zm7.204,-7.484c10.116,0 14.827,-4.43 14.827,-13.85c0,-9.563 -5.4,-13.304 -15.52,-13.304l-6.51,0l0,27.16l7.21,0l-0.007,-0.006Zm60.832,-17.18c13.44,0 20.784,4.02 20.784,19.54l0,22.03c0,2.91 0.97,4.295 2.91,4.295c1.8,0 2.217,-0.42 3.325,-0.55c0.83,-0.14 1.247,0 1.247,0.97l0,4.44c0,0.83 -0.277,1.67 -1.386,2.08c-1.524,0.56 -3.05,0.83 -6.79,0.83c-3.88,0 -8.177,-1.24 -9.423,-6.51c-3.325,3.88 -9.008,6.65 -17.045,6.65c-10.808,0 -16.212,-4.71 -16.212,-14.13c0,-13.44 11.225,-17.18 28.685,-17.18l4.16,0l0,-3.19c0,-8.59 -2.91,-11.5 -10.53,-11.5c-3.05,0 -6.1,0.42 -8.45,1.53c0.56,0.84 0.97,2.08 0.97,3.47c0,3.88 -3.05,6.51 -6.51,6.51c-3.18,0 -5.82,-2.35 -5.82,-6.1c0.28,-9.56 7.35,-13.16 20.1,-13.16l-0.015,-0.025Zm-3.88,46.28c8.314,0 14.412,-5.26 14.412,-14.55l0,-2.213l-4.156,0c-11.778,0 -18.43,2.49 -18.43,9.84c-0.14,4.293 2.077,6.926 8.175,6.926l-0.001,-0.003Zm39.354,-37c-1.248,0 -1.663,-0.553 -1.663,-1.8l0,-4.02c0,-1.386 0.415,-1.802 1.8,-1.802c4.574,-0.274 9.147,-0.553 13.72,-0.83c1.802,0 2.218,0.83 2.218,2.77l0,6.654c2.77,-7.21 9.562,-10.4 17.46,-10.4c9.146,0 15.935,4.85 15.935,17.18l0,24.53c0,2.91 0.97,4.295 2.91,4.295c1.802,0 2.354,-0.416 3.465,-0.554c0.83,-0.14 1.108,0 1.108,0.97l0,4.43c0,0.83 -0.277,1.66 -1.387,2.07c-1.523,0.56 -3.05,0.83 -6.79,0.83c-4.435,0 -9.7,-1.8 -9.7,-9.98l0,-25.059c0,-5.82 -2.493,-9.98 -9.145,-9.98c-8.86,0 -13.43,7.76 -13.43,21.062l0,11.776c0,3.6 1.11,4.157 4.3,4.157l2.36,0c1.53,0 1.8,0.417 1.8,1.525l0,4.294c0,0 -0.55,1.806 -1.8,1.806l-23.7,0c-1.38,0 -1.8,-0.42 -1.8,-1.805l0,-4.294c0,-1.11 0.14,-1.52 1.81,-1.52l2.35,0c3.19,0 4.29,-0.55 4.29,-4.15l0,-29.271c0,-2.352 -0.97,-2.768 -6.1,-2.907l-0.011,0.023Zm88.82,36.028c7.483,0 12.334,-2.215 14.827,-3.186c2.218,-0.83 2.77,-0.83 2.77,1.1l0,4.577c0,1.387 -0.276,1.8 -1.385,2.355c-2.08,1.11 -8.593,3.603 -17.875,3.603c-18.847,0 -27.16,-9.98 -27.16,-26.19c0,-17.736 10.393,-27.854 26.467,-27.854c14.134,0 19.122,7.62 19.122,13.72c0,4.02 -2.494,6.93 -6.65,6.93c-3.88,0 -6.79,-2.64 -6.79,-6.65c0,-1.94 0.692,-3.61 1.802,-4.85c-1.94,-0.7 -4.435,-1.11 -7.482,-1.11c-11.5,0 -15.52,8.73 -15.52,19.12c0.278,11.78 5.266,18.43 17.875,18.43l-0.001,0.005Zm41.71,-16.63l0,13.58c0.14,2.91 1.246,3.467 4.296,3.467l2.354,0c1.524,0 1.802,0.42 1.802,1.53l0,4.3c0,1.39 -0.416,1.8 -1.802,1.8l-23.695,0c-1.522,0 -1.8,-0.41 -1.8,-1.8l0,-4.29c0,-1.11 0.276,-1.52 1.8,-1.52l2.356,0c2.91,0 4.16,-0.55 4.3,-3.46l0,-51.821c0,-2.493 -0.83,-3.46 -2.91,-3.46c-1.1,0 -2.21,0 -3.32,-0.14c-1.52,-0.14 -1.66,-0.83 -1.66,-2.08l0,-3.6c0,-1.528 0.28,-1.806 1.66,-1.806c4.72,-0.28 9.57,-0.56 14.28,-0.84c1.8,0 2.36,0.83 2.36,2.77l0,27.58c3.05,-6.093 9.43,-8.864 16.91,-8.864c9.28,0 16.07,4.85 16.07,17.18l0,24.53c0,2.91 0.97,4.29 2.91,4.29c1.8,0 2.22,-0.416 3.33,-0.555c0.84,-0.14 1.11,0 1.11,0.97l0,4.436c0,0.83 -0.14,1.67 -1.24,2.08c-1.66,0.56 -3.19,0.83 -6.79,0.83c-4.57,0 -9.7,-1.8 -9.7,-9.98l0,-25.08c0,-5.82 -2.49,-9.98 -9.14,-9.98c-8.86,0.01 -13.16,7.35 -13.43,19.96l-0.051,-0.027Z" style="fill-rule:nonzero;"/></svg>