<svg version="1" xmlns="http://www.w3.org/2000/svg" width="2269.333" height="2269.333" viewBox="0 0 1702.000000 1702.000000"><path d="M688.8 39.8c-3.9.3-4.6.6-4.1 2 .4.9.9 1.9 1.2 2.2.7.6 2.1 3 6.4 11 1.6 3 3.6 6.2 4.3 7.1.8.8 1.4 1.8 1.4 2.1 0 .4 2.7 5.2 6 10.8 3.3 5.6 6 10.4 6 10.6 0 .3.8 1.7 1.9 3.2 1 1.5 7 11.7 13.4 22.7 6.3 11 12.4 21.4 13.4 23.2 1 1.7 4.7 8.2 8.3 14.4 10.6 18.3 10.9 18.8 20.3 34.9 10.3 17.8 22.8 39.3 25.5 44.2 1.1 1.8 6.8 11.6 12.7 21.8 6 10.2 11.7 20.1 12.8 22 1 1.9 3.4 6 5.2 9 1.8 3 8.2 13.8 14.1 24s11.5 19.8 12.5 21.5c1 1.6 2.4 4.1 3.2 5.5 1.6 3 15.3 26.7 36.7 63.5 26.2 45.1 59.2 101.8 61.3 105.5 1.1 1.9 16.6 28.7 34.5 59.5 40.4 69.7 42 72.4 50.2 86.5 10.1 17.2 38.9 66.8 41.8 72 1.4 2.5 4.5 7.8 6.9 11.8 2.4 4.1 4.3 7.5 4.3 7.7 0 .1 3.2 5.5 7 11.9 3.9 6.5 7 11.9 7 12 0 .3 17.4 30.5 20 34.6 1.5 2.5 13.9 23.9 18.8 32.4 4.3 7.6 4.5 8.1 3 10.5-3.4 5.8-48.2 82.8-49.8 85.6-.9 1.6-6.8 11.8-13 22.5s-13.8 23.8-16.8 29c-3 5.2-14.8 25.5-26.2 45-11.3 19.5-20.9 36.2-21.3 37-.4.8-1.6 2.8-2.6 4.5-1.1 1.6-3.2 5.2-4.6 8-1.5 2.7-3.3 5.7-3.9 6.5-.7.8-1.8 2.8-2.6 4.3l-1.4 2.8-5.5-6.3c-15.6-17.7-41.8-41.6-58.9-53.6-11.5-8.1-25.3-16.8-36-22.7l-12.4-6.9-7-10.5c-3.9-5.8-10.7-15.4-15.1-21.3-4.4-5.8-7.8-11-7.6-11.5.2-.4 4.7-2.4 9.9-4.4 29.7-11.4 64.8-30.8 106.5-58.8 14.1-9.4 48.2-34.4 58.3-42.6 13.8-11.2 26-21.5 27-22.7 1.1-1.4.6-1.9-3.2-4.2-2.5-1.4-4.7-2.6-4.9-2.6-.3 0-3.8-1.5-7.9-3.4-16.2-7.6-58.4-22.7-77.8-28-3-.8-8.2-2.3-11.5-3.2-3.3-.9-6.9-1.8-8-2-1.1-.2-5.4-1-9.5-1.8-14.5-2.9-20.6-3.3-31-2.1-1.9.2-6 .6-9 1-9.7 1-15.8 2-25.5 3.9-43.2 8.7-85.9 34.8-109.9 67.3-3.8 5.1-7 9.3-7.2 9.3-.2 0-4.3-2.6-9.1-5.7-4.8-3.2-10.8-6.9-13.3-8.3-15.4-8.6-15.1-8.4-14.6-11 .3-1.4 2.8-6.8 5.6-12 6.2-11.7 6.4-12.5 2.5-12.6-1.6-.1-5.5-.4-8.5-.8-3-.3-10.3-.7-16.2-.7-11.8-.2-13.2.3-18.9 6.5l-3.1 3.4-10.6-4.4c-15.8-6.7-46.6-16.8-65-21.3-9-2.3-17.1-4.1-18-4.1-4.2-.1-4.2-1.1-1.1-16 1.6-8 3.2-16.1 3.5-18 .5-3.4 5.1-26.9 5.9-30 .2-.8.8-3.8 1.5-6.5 1.4-6.3 5.2-19.8 9.5-34 9.9-32.4 12.2-45.7 10.2-59.5-1.4-9.4-9.3-20.8-15.9-22.8-4.7-1.5-16.8-2.8-35.2-3.7-11.2-.6-11.8-.5-11.1 1.2.3 1 3.3 9.8 6.6 19.5 8.2 24.6 13.8 48.7 15.7 68.2 1.4 14.5.5 56.7-1.3 59.6-.2.3-.7 2.9-1 5.6-.9 6.4-6.3 29.5-7.4 31.3-.6.9-1.8 1.1-3.3.8-2-.5-2.8-1.8-4.3-6.9-9.5-33-24.7-77.6-31.5-92.3-.5-1.1-2.3-5.4-4.1-9.5-5.6-13.2-16.8-35.3-21-41.2-1.1-1.4-1.9-2.9-1.9-3.3 0-2.3-16.1-22.5-25-31.4-29.1-28.9-62.1-48.9-102-61.7-9.8-3.2-33.9-9.5-42-11-9.6-1.8-34.5-.8-56 2.1-2.5.4-5.8.8-7.5 1.1-35.3 4.5-110.3 22.1-123.8 29.1l-2.8 1.4 3.7 4.2c20.5 23.1 67.1 69.7 84.9 84.8 2.2 1.9 4.7 4.1 5.5 5 2.8 3 25.5 22.3 37 31.6 12.4 10 26.2 20.7 29.6 23.1 1.1.7 7.5 5.3 14.4 10.2 32.6 23.2 69.3 42.1 95.1 48.8 12.4 3.3 20.4 4.1 45.4 4.7 13.2.3 25.4.7 27 .9 1.7.3 6 .7 9.7 1 3.6.3 8.1.8 10 1 1.8.3 5.9.8 9 1.1 8.4.9 7.9 2.1-.5 1.4-8.3-.6-64.5-.3-72.7.5-21.5 2.1-28.1 2.8-35.5 4.2-1 .2-3.7.6-6 .9-2.2.3-4.7.8-5.5 1-.8.2-2.8.7-4.5.9-22.5 3.9-56.2 13.8-81.8 24.2-23.5 9.6-50.4 23.6-71 37-5.4 3.5-10 6.4-10.3 6.4-.3 0-1 .5-1.7 1-.7.6-6.6 5-13.2 9.9-18.7 13.8-36.2 28.9-53.4 46-16.6 16.5-19.7 19.8-30.2 32.6-38.3 46.4-66.4 100.5-81.8 157.1-1.6 6.1-3.2 12.2-3.5 13.5-.2 1.3-1.4 6.7-2.5 11.9s-2.3 11.3-2.6 13.5c-.3 2.2-.9 5.8-1.2 8-.4 2.2-.8 4.4-.8 5-.1.5-.5 4.1-1 8-1.4 12-1.4 12.7-2.2 24.5-.9 14.3-.9 35.1 0 49.5 1 15.8 2 25.8 4.3 40 9.6 61.2 33.3 120.7 69.4 174.5 5.7 8.4 23.7 33 24.9 34 .4.3 2.8 3.1 5.4 6.3 14.6 18.1 40 43.4 60.2 59.8 46.2 37.6 95.7 63.5 157 82.2 13.1 4 17.3 5.2 25.8 7.2 1 .2 2.7.7 3.7 1 1 .3 2.9.8 4.2 1.1 4 .9 6.2 1.4 8.6 1.9 3.5.8 5.5 1.2 9.2 1.9 1.9.3 4.6.8 6 1.1 3 .7 4.4.9 17.8 3 5.7.8 12.7 1.8 15.5 2 2.9.3 6.8.7 8.7 1 8.4 1.2 28.1 2 48.5 2 26.8-.1 42.8-1.1 63-3.9 1.7-.3 5-.7 7.5-1 2.5-.3 5.5-.8 6.6-1 1.2-.2 3.7-.7 5.5-1 1.9-.3 4.3-.7 5.4-.9 8.3-1.7 9.4-1.6 19.4 1.3 12.2 3.5 35.8 8.8 42.6 9.5 1.1.1 4 .6 6.5 1s5.9.9 7.5 1.1c1.7.1 4.7.5 6.9.8 19.2 2.6 74.9 2.7 87.1.1 1.1-.2 4.3-.7 7-1 20.1-2.3 53.6-9.4 71-15.1 4.4-1.4 8.5-2.7 9-2.8.6-.2 1.9-.6 3-1 1.1-.5 3.6-1.4 5.7-2.1 3-1.2 34-1.4 179-1.4 96.4 0 183.4-.1 193.3-.1l18-.1 15-26c8.3-14.3 15.7-27.3 16.7-28.8.9-1.6 5.1-8.9 9.3-16.2 10.2-17.7 53.4-92.1 80-137.9 11.7-20.1 29.5-50.7 39.5-68 23.1-39.7 20.1-34.6 32-55 5.6-9.6 11.2-19.1 12.2-21 1.1-1.9 7-12.1 13.1-22.5 6-10.5 11.8-20.4 12.7-22 3.5-6.2 45.4-78.3 49.9-86 2.6-4.4 7.3-12.5 10.5-18s6.2-10.7 6.7-11.5c.8-1.2 7.5-12.8 15.9-27.5 13.3-23.1 24.3-42.2 38.8-67 9.6-16.5 18.5-31.9 19.8-34.2 1.3-2.3 5.4-9.3 9-15.5 3.7-6.2 7.8-13.3 9.2-15.8 1.4-2.5 4.5-7.7 6.9-11.7 2.3-3.9 4.3-7.4 4.3-7.8 0-.4 1.4-2.6 3-5 1.7-2.4 3-4.6 3-4.8 0-.3 2.7-5.2 6.1-10.9 8-13.5 11.4-20.3 15.5-31 14.4-37.1 12.5-81-5.1-117.2-2.4-5-15.9-28.9-29.9-53-14.1-24.1-25.6-44.1-25.6-44.3 0-.2-1.2-2.2-2.7-4.6-3.5-5.6-15.3-25.9-15.3-26.3 0-.3-2.3-4.1-5-8.5s-5-8.2-5-8.4c0-.2-4.5-8-10.1-17.5-5.5-9.4-17.5-30.1-26.6-45.8-9.1-15.8-17.8-30.7-19.3-33.2-1.5-2.5-3.9-6.5-5.2-9-1.4-2.5-13-22.5-25.8-44.5s-24.1-41.5-25.1-43.3c-3-5.1-15.8-27.3-23.6-40.7-16.8-28.9-40.2-69.3-42.1-72.5-1-1.9-9.9-17.2-19.7-34-9.7-16.8-18.7-32.3-20-34.5-1.2-2.2-28-48.3-59.5-102.5s-58.4-100.5-59.7-103c-1.4-2.5-3.1-5.1-3.7-5.8-1-1-54.8-1.3-276.2-1.5-151.2-.1-277-.1-279.6.1zM524.3 777.7c-.7.2-1.9.2-2.5 0-.7-.3-.2-.5 1.2-.5s1.9.2 1.3.5zm630 541.8c-.3.9-.8 1.4-1 1.1-.3-.3-.2-.9.2-1.5.9-1.6 1.5-1.3.8.4z"/></svg>