<?xml version="1.0" encoding="UTF-8" standalone="no"?><!DOCTYPE svg PUBLIC "-//W3C//DTD SVG 1.1//EN" "http://www.w3.org/Graphics/SVG/1.1/DTD/svg11.dtd"><svg width="100%" height="100%" viewBox="0 0 184 25" version="1.1" xmlns="http://www.w3.org/2000/svg" xmlns:xlink="http://www.w3.org/1999/xlink" xml:space="preserve" style="fill-rule:evenodd;clip-rule:evenodd;stroke-linejoin:round;stroke-miterlimit:1.41421;"><g id="small.2e.2e.2e..2e..-logo1"><g id="GDG.2e..-Logo"><path d="M21.764,19.911l-2.077,-3.581l-4.985,8.59l4.268,0l2.85,-4.912l-0.056,-0.097Z" style="fill:#ffc107;fill-rule:nonzero;"/><clipPath id="_clip1"><path d="M21.764,19.911l-2.077,-3.581l-4.985,8.59l4.268,0l2.85,-4.912l-0.056,-0.097Z"/></clipPath><g clip-path="url(#_clip1)"><rect x="9.027" y="4.799" width="15.268" height="21.68" style="fill:#ffc20a;fill-opacity:0.329412;"/></g><path d="M17.44,12.46l2.247,3.87l-4.985,8.59l-4.494,0l7.232,-12.46Z" style="fill:#0f9d58;fill-rule:nonzero;"/><clipPath id="_clip2"><path d="M17.44,12.46l2.247,3.87l-4.985,8.59l-4.494,0l7.232,-12.46Z"/></clipPath><g clip-path="url(#_clip2)"><rect x="9.027" y="4.799" width="15.268" height="21.68" style="fill:#16a05d;fill-opacity:0.329412;"/></g><path d="M10.208,24.92l0.114,0l7.175,-12.363l-0.057,-0.097l-7.232,12.46Z" style="fill:#fff;fill-opacity:0.196078;fill-rule:nonzero;"/><path d="M14.702,0l-4.494,0l11.612,20.008l2.245,-3.869l0.002,-0.003l-9.365,-16.136Z" style="fill:#4285f4;fill-rule:nonzero;"/><path d="M25.522,13.628c0.42,-0.722 0.42,-1.614 0,-2.336l-6.552,-11.292l-4.268,0l9.365,16.136l1.455,-2.508Z" style="fill:#db4437;fill-rule:nonzero;"/><clipPath id="_clip3"><path id="___Image6" d="M12.568,13.947c0.452,-0.76 0.452,-1.7 0,-2.461l-7.061,-11.897l-4.599,0l10.092,17.001l1.568,-2.643Z"/></clipPath><g clip-path="url(#_clip3)"><rect x="14.703" y="0" width="10.058" height="16.114" style="fill:#808080;fill-opacity:0;"/></g><path d="M24.067,16.136l1.455,-2.508c0.227,-0.389 0.326,-0.829 0.309,-1.265c-0.016,0.369 -0.115,0.737 -0.309,1.07l-1.512,2.607l0.057,0.096Z" style="fill:#3e2723;fill-opacity:0.196078;fill-rule:nonzero;"/></g><g><path d="M8.119,11.574c-3.956,-0.523 -7.569,2.09 -8.063,5.83c-0.494,3.741 2.316,7.202 6.272,7.725c3.956,0.523 7.569,-2.09 8.063,-5.83c0.494,-3.741 -2.316,-7.202 -6.272,-7.725Z" style="fill:#e89148;"/><path d="M6.388,25.08c-3.766,-0.292 -6.588,-3.564 -6.298,-7.303c0.29,-3.739 3.582,-6.538 7.347,-6.246c-2.581,0.549 -4.845,3.17 -5.096,6.42c-0.252,3.251 1.581,6.189 4.047,7.129Z" style="fill:#e1823d;"/><path d="M9.433,12.464c-0.087,0.661 -0.769,1.117 -1.522,1.018c-0.752,-0.1 -1.293,-0.717 -1.206,-1.377c0.049,0.51 0.568,0.988 1.246,1.077c0.678,0.09 1.303,-0.237 1.482,-0.718Z" style="fill:#e1823d;"/><path d="M8.175,8.69c0.129,0.017 0.708,0.012 0.801,0.094c0.477,0.417 -0.026,1.149 -0.187,2.089c-0.161,0.947 -0.378,1.859 -0.799,2.091c-0.152,0.084 -0.056,0.031 -0.236,0.008c0.342,-0.461 0.67,-1.215 0.782,-2.066c0.112,-0.85 -0.15,-1.682 -0.361,-2.216Z" style="fill:#794e2e;"/><path d="M8.31,11.653c0,0 -0.523,-2.077 -1.258,-2.841c-0.575,-0.598 -1.228,-1.002 -2.332,-1.221c-0.635,-0.126 -2.677,0.358 -2.977,0.519c-0.025,0.013 2.979,3.349 4.702,3.32c1.088,-0.018 1.865,0.223 1.865,0.223Z" style="fill:#92a843;"/><path d="M7.364,10.934c0,0 -0.357,-1.477 -0.876,-2.017c-0.406,-0.422 -0.869,-0.705 -1.654,-0.852c-0.453,-0.085 -1.914,0.276 -2.13,0.393c-0.017,0.009 2.261,0.912 3.491,0.879c0.777,-0.022 1.169,1.597 1.169,1.597Z" style="fill:#acbd52;"/></g><g><ellipse cx="10.696" cy="19.82" rx="5.816" ry="5.499" style="fill:#f6bd00;"/><path d="M10.653,25.274c3.034,0.164 5.629,-2.148 5.792,-5.16c0.163,-3.012 -2.168,-5.591 -5.201,-5.755c2,0.71 3.53,3.038 3.388,5.657c-0.142,2.618 -1.913,4.768 -3.979,5.258Z" style="fill:#f1a133;"/><path d="M9.554,14.893c0,0.536 0.495,0.971 1.106,0.971c0.611,0 1.107,-0.435 1.107,-0.971c-0.092,0.402 -0.556,0.729 -1.107,0.728c-0.55,0 -1.014,-0.326 -1.106,-0.728Z" style="fill:#e1823d;"/><path d="M7.468,15.89c-0.582,-0.01 -1.411,0.825 -1.916,2.018c-0.504,1.193 -0.526,2.369 -0.114,2.779c-0.05,-0.597 0.124,-1.592 0.549,-2.595c0.424,-1.003 1.016,-1.821 1.481,-2.202Z" style="fill:#fff;"/><path d="M10.955,12.015c-0.104,0 -0.566,-0.065 -0.649,-0.009c-0.424,0.282 -0.1,0.919 -0.071,1.685c0.029,0.772 0.106,1.523 0.417,1.752c0.113,0.083 0.042,0.031 0.188,0.031c-0.225,-0.403 -0.406,-1.039 -0.406,-1.729c0,-0.69 0.297,-1.326 0.521,-1.73Z" style="fill:#794e2e;"/><path d="M10.535,14.364c0,0 0.636,-1.601 1.303,-2.133c0.521,-0.416 1.085,-0.67 1.988,-0.728c0.52,-0.033 2.097,0.568 2.32,0.728c0.018,0.013 -2.729,2.356 -4.1,2.152c-0.866,-0.129 -1.511,-0.019 -1.511,-0.019Z" style="fill:#92a843;"/><path d="M11.366,13.89c0,0 0.44,-1.14 0.91,-1.516c0.368,-0.293 0.768,-0.471 1.41,-0.505c0.369,-0.02 1.497,0.422 1.656,0.538c0.013,0.009 -1.899,0.489 -2.876,0.333c-0.617,-0.099 -1.1,1.15 -1.1,1.15Z" style="fill:#acbd52;"/></g></g><g><path d="M35.267,17.229l2.544,0c0.48,0 0.876,-0.204 1.188,-0.612c0.312,-0.408 0.56,-0.884 0.744,-1.428c0.184,-0.544 0.308,-1.096 0.372,-1.656c0.064,-0.56 0.096,-0.984 0.096,-1.272c0,-0.288 -0.02,-0.704 -0.06,-1.248c-0.04,-0.544 -0.14,-1.088 -0.3,-1.632c-0.16,-0.544 -0.4,-1.02 -0.72,-1.428c-0.32,-0.408 -0.76,-0.612 -1.32,-0.612l-2.544,0l0,9.888Zm-4.32,-13.752l6.96,0c1.456,0 2.628,0.24 3.516,0.72c0.888,0.48 1.572,1.124 2.052,1.932c0.48,0.808 0.8,1.744 0.96,2.808c0.16,1.064 0.256,2.172 0.288,3.324l0,0.048c-0.032,1.152 -0.128,2.26 -0.288,3.324c-0.16,1.064 -0.48,2 -0.96,2.808c-0.48,0.808 -1.164,1.452 -2.052,1.932c-0.888,0.48 -2.06,0.72 -3.516,0.72l-6.96,0l0,-17.616Z" style="fill:#fff;fill-rule:nonzero;"/><path d="M51.851,10.845c0,-0.192 -0.088,-0.388 -0.264,-0.588c-0.176,-0.2 -0.384,-0.3 -0.624,-0.3c-0.288,0 -0.52,0.1 -0.696,0.3c-0.176,0.2 -0.264,0.396 -0.264,0.588l0,1.584l1.848,0l0,-1.584Zm3.84,4.824c0,1.504 -0.376,2.676 -1.128,3.516c-0.752,0.84 -1.92,1.26 -3.504,1.26c-1.664,0 -2.896,-0.404 -3.696,-1.212c-0.8,-0.808 -1.2,-2.076 -1.2,-3.804l0,-2.976c0,-0.784 0.08,-1.5 0.24,-2.148c0.16,-0.648 0.428,-1.2 0.804,-1.656c0.376,-0.456 0.876,-0.808 1.5,-1.056c0.624,-0.248 1.4,-0.372 2.328,-0.372c0.816,0 1.52,0.124 2.112,0.372c0.592,0.248 1.076,0.572 1.452,0.972c0.376,0.4 0.652,0.844 0.828,1.332c0.176,0.488 0.264,0.98 0.264,1.476l0,3.24l-5.688,0l0,2.304c0,0.272 0.116,0.472 0.348,0.6c0.232,0.128 0.444,0.192 0.636,0.192c0.208,0 0.416,-0.064 0.624,-0.192c0.208,-0.128 0.312,-0.328 0.312,-0.6l0,-1.248l3.768,0Z" style="fill:#fff;fill-rule:nonzero;"/><path d="M61.979,15.597l1.704,-8.016l3.744,0l-2.76,12.504l-5.376,0l-2.76,-12.504l3.744,0l1.704,8.016Z" style="fill:#fff;fill-rule:nonzero;"/><path d="M73.187,21.093l-4.32,0l0,-17.616l10.464,0l0,3.864l-6.144,0l0,3.384l6.144,0l0,3.624l-6.144,0l0,6.744Z" style="fill:#fff;fill-rule:nonzero;"/><path d="M86.219,10.845c0,-0.192 -0.088,-0.388 -0.264,-0.588c-0.176,-0.2 -0.384,-0.3 -0.624,-0.3c-0.288,0 -0.52,0.1 -0.696,0.3c-0.176,0.2 -0.264,0.396 -0.264,0.588l0,1.584l1.848,0l0,-1.584Zm3.84,4.824c0,1.504 -0.376,2.676 -1.128,3.516c-0.752,0.84 -1.92,1.26 -3.504,1.26c-1.664,0 -2.896,-0.404 -3.696,-1.212c-0.8,-0.808 -1.2,-2.076 -1.2,-3.804l0,-2.976c0,-0.784 0.08,-1.5 0.24,-2.148c0.16,-0.648 0.428,-1.2 0.804,-1.656c0.376,-0.456 0.876,-0.808 1.5,-1.056c0.624,-0.248 1.4,-0.372 2.328,-0.372c0.816,0 1.52,0.124 2.112,0.372c0.592,0.248 1.076,0.572 1.452,0.972c0.376,0.4 0.652,0.844 0.828,1.332c0.176,0.488 0.264,0.98 0.264,1.476l0,3.24l-5.688,0l0,2.304c0,0.272 0.116,0.472 0.348,0.6c0.232,0.128 0.444,0.192 0.636,0.192c0.208,0 0.416,-0.064 0.624,-0.192c0.208,-0.128 0.312,-0.328 0.312,-0.6l0,-1.248l3.768,0Z" style="fill:#fff;fill-rule:nonzero;"/><path d="M97.307,11.973c0,-0.224 -0.008,-0.456 -0.024,-0.696c-0.016,-0.24 -0.06,-0.456 -0.132,-0.648c-0.072,-0.192 -0.188,-0.348 -0.348,-0.468c-0.16,-0.12 -0.384,-0.18 -0.672,-0.18c-0.32,0 -0.576,0.096 -0.768,0.288c-0.192,0.192 -0.288,0.448 -0.288,0.768c0,0.352 0.144,0.612 0.432,0.78c0.288,0.168 0.652,0.312 1.092,0.432c0.44,0.12 0.916,0.252 1.428,0.396c0.512,0.144 0.988,0.352 1.428,0.624c0.44,0.272 0.804,0.644 1.092,1.116c0.288,0.472 0.432,1.1 0.432,1.884c0,0.736 -0.112,1.368 -0.336,1.896c-0.224,0.528 -0.54,0.96 -0.948,1.296c-0.408,0.336 -0.896,0.584 -1.464,0.744c-0.568,0.16 -1.204,0.24 -1.908,0.24c-1.68,0 -2.932,-0.344 -3.756,-1.032c-0.824,-0.688 -1.236,-1.84 -1.236,-3.456l0,-0.168l3.6,0c0,0.272 0.016,0.524 0.048,0.756c0.032,0.232 0.092,0.436 0.18,0.612c0.088,0.176 0.208,0.316 0.36,0.42c0.152,0.104 0.356,0.156 0.612,0.156c0.4,0 0.684,-0.084 0.852,-0.252c0.168,-0.168 0.252,-0.492 0.252,-0.972c0,-0.352 -0.148,-0.612 -0.444,-0.78c-0.296,-0.168 -0.664,-0.304 -1.104,-0.408c-0.44,-0.104 -0.92,-0.22 -1.44,-0.348c-0.52,-0.128 -1,-0.324 -1.44,-0.588c-0.44,-0.264 -0.808,-0.636 -1.104,-1.116c-0.296,-0.48 -0.444,-1.136 -0.444,-1.968c0,-0.608 0.1,-1.164 0.3,-1.668c0.2,-0.504 0.512,-0.936 0.936,-1.296c0.424,-0.36 0.952,-0.636 1.584,-0.828c0.632,-0.192 1.38,-0.288 2.244,-0.288c0.624,0 1.212,0.076 1.764,0.228c0.552,0.152 1.036,0.4 1.452,0.744c0.416,0.344 0.748,0.784 0.996,1.32c0.248,0.536 0.372,1.188 0.372,1.956l0,0.504l-3.6,0Z" style="fill:#fff;fill-rule:nonzero;"/><path d="M106.907,10.653l0,6.168c0,0.144 0.048,0.252 0.144,0.324c0.096,0.072 0.192,0.108 0.288,0.108c0.08,0 0.172,-0.036 0.276,-0.108c0.104,-0.072 0.156,-0.18 0.156,-0.324l0,-3.264l3.288,0l0,3.408c0,0.576 -0.108,1.08 -0.324,1.512c-0.216,0.432 -0.508,0.796 -0.876,1.092c-0.368,0.296 -0.788,0.516 -1.26,0.66c-0.472,0.144 -0.972,0.216 -1.5,0.216c-0.592,0 -1.132,-0.072 -1.62,-0.216c-0.488,-0.144 -0.912,-0.364 -1.272,-0.66c-0.36,-0.296 -0.64,-0.66 -0.84,-1.092c-0.2,-0.432 -0.3,-0.936 -0.3,-1.512l0,-6.312l-1.32,0l0,-3.072l1.32,0l0,-2.28l3.84,0l0,2.28l4.152,0l0,3.072l-4.152,0Z" style="fill:#fff;fill-rule:nonzero;"/><path d="M124.307,21.093l-4.32,0l0,-17.616l10.464,0l0,3.864l-6.144,0l0,3.384l6.144,0l0,3.624l-6.144,0l0,6.744Z" style="fill:#fff;fill-rule:nonzero;"/><rect x="132.131" y="4.365" width="3.84" height="15.72" style="fill:#fff;"/><path d="M142.187,17.589c0.176,0 0.356,-0.044 0.54,-0.132c0.184,-0.088 0.276,-0.268 0.276,-0.54l0,-6.168c0,-0.272 -0.092,-0.452 -0.276,-0.54c-0.184,-0.088 -0.364,-0.132 -0.54,-0.132c-0.176,0 -0.356,0.044 -0.54,0.132c-0.184,0.088 -0.276,0.268 -0.276,0.54l0,6.168c0,0.272 0.092,0.452 0.276,0.54c0.184,0.088 0.364,0.132 0.54,0.132Zm0,-10.368c0.768,0 1.44,0.108 2.016,0.324c0.576,0.216 1.06,0.508 1.452,0.876c0.392,0.368 0.688,0.796 0.888,1.284c0.2,0.488 0.3,1.012 0.3,1.572l0,5.112c0,0.56 -0.1,1.084 -0.3,1.572c-0.2,0.488 -0.496,0.916 -0.888,1.284c-0.392,0.368 -0.876,0.66 -1.452,0.876c-0.576,0.216 -1.248,0.324 -2.016,0.324c-0.768,0 -1.44,-0.108 -2.016,-0.324c-0.576,-0.216 -1.06,-0.508 -1.452,-0.876c-0.392,-0.368 -0.688,-0.796 -0.888,-1.284c-0.2,-0.488 -0.3,-1.012 -0.3,-1.572l0,-5.112c0,-0.56 0.1,-1.084 0.3,-1.572c0.2,-0.488 0.496,-0.916 0.888,-1.284c0.392,-0.368 0.876,-0.66 1.452,-0.876c0.576,-0.216 1.248,-0.324 2.016,-0.324Z" style="fill:#fff;fill-rule:nonzero;"/><path d="M156.227,14.157l-3,0l0,-3.216c0,-0.128 -0.06,-0.228 -0.18,-0.3c-0.12,-0.072 -0.228,-0.108 -0.324,-0.108c-0.08,0 -0.18,0.036 -0.3,0.108c-0.12,0.072 -0.18,0.172 -0.18,0.3l0,9.144l-3.84,0l0,-12.504l3.336,0l0,0.912c0.32,-0.448 0.636,-0.768 0.948,-0.96c0.312,-0.192 0.764,-0.288 1.356,-0.288c0.432,0 0.788,0.076 1.068,0.228c0.28,0.152 0.504,0.352 0.672,0.6c0.168,0.248 0.284,0.54 0.348,0.876c0.064,0.336 0.096,0.696 0.096,1.08l0,4.128Z" style="fill:#fff;fill-rule:nonzero;"/><path d="M161.627,6.717l-3.84,0l0,-2.112l3.84,0l0,2.112Zm0,13.368l-3.84,0l0,-12.504l3.84,0l0,12.504Z" style="fill:#fff;fill-rule:nonzero;"/><path d="M168.035,10.317c-0.272,0 -0.508,0.072 -0.708,0.216c-0.2,0.144 -0.3,0.36 -0.3,0.648l0,5.304c0,0.224 0.084,0.424 0.252,0.6c0.168,0.176 0.42,0.264 0.756,0.264c0.272,0 0.492,-0.088 0.66,-0.264c0.168,-0.176 0.252,-0.376 0.252,-0.6l0,-5.304c0,-0.288 -0.096,-0.504 -0.288,-0.648c-0.192,-0.144 -0.4,-0.216 -0.624,-0.216Zm4.752,-5.952l0,15.72l-3.888,0l0,-0.984c-0.336,0.448 -0.716,0.772 -1.14,0.972c-0.424,0.2 -0.86,0.3 -1.308,0.3c-0.544,0 -1.02,-0.108 -1.428,-0.324c-0.408,-0.216 -0.748,-0.512 -1.02,-0.888c-0.272,-0.376 -0.476,-0.804 -0.612,-1.284c-0.136,-0.48 -0.204,-0.984 -0.204,-1.512l0,-4.848c0,-0.56 0.052,-1.1 0.156,-1.62c0.104,-0.52 0.284,-0.976 0.54,-1.368c0.256,-0.392 0.596,-0.708 1.02,-0.948c0.424,-0.24 0.956,-0.36 1.596,-0.36c0.464,0 0.924,0.088 1.38,0.264c0.456,0.176 0.804,0.472 1.044,0.888l0,-4.008l3.864,0Z" style="fill:#fff;fill-rule:nonzero;"/><path d="M180.131,15.069c-0.288,0.08 -0.556,0.136 -0.804,0.168c-0.248,0.032 -0.468,0.088 -0.66,0.168c-0.192,0.08 -0.344,0.208 -0.456,0.384c-0.112,0.176 -0.168,0.448 -0.168,0.816c0,0.544 0.264,0.816 0.792,0.816c0.288,0 0.576,-0.096 0.864,-0.288c0.288,-0.192 0.432,-0.48 0.432,-0.864l0,-1.2Zm-5.472,-3.672c0,-1.44 0.42,-2.496 1.26,-3.168c0.84,-0.672 1.964,-1.008 3.372,-1.008c0.576,0 1.132,0.056 1.668,0.168c0.536,0.112 1.012,0.288 1.428,0.528c0.416,0.24 0.752,0.552 1.008,0.936c0.256,0.384 0.384,0.84 0.384,1.368l0,8.04c0,0.144 0.016,0.304 0.048,0.48c0.032,0.176 0.072,0.352 0.12,0.528c0.048,0.176 0.096,0.34 0.144,0.492c0.048,0.152 0.088,0.26 0.12,0.324l-3.624,0c-0.112,-0.144 -0.204,-0.312 -0.276,-0.504c-0.072,-0.192 -0.132,-0.376 -0.18,-0.552c-0.336,0.4 -0.756,0.736 -1.26,1.008c-0.504,0.272 -1.036,0.408 -1.596,0.408c-0.624,0 -1.128,-0.108 -1.512,-0.324c-0.384,-0.216 -0.68,-0.5 -0.888,-0.852c-0.208,-0.352 -0.348,-0.744 -0.42,-1.176c-0.072,-0.432 -0.108,-0.856 -0.108,-1.272c0,-0.736 0.08,-1.332 0.24,-1.788c0.16,-0.456 0.376,-0.812 0.648,-1.068c0.272,-0.256 0.58,-0.436 0.924,-0.54c0.344,-0.104 0.692,-0.176 1.044,-0.216c0.352,-0.04 0.7,-0.068 1.044,-0.084c0.344,-0.016 0.652,-0.064 0.924,-0.144c0.224,-0.08 0.44,-0.2 0.648,-0.36c0.208,-0.16 0.312,-0.352 0.312,-0.576l0,-1.128c0,-0.336 -0.104,-0.584 -0.312,-0.744c-0.208,-0.16 -0.4,-0.24 -0.576,-0.24c-0.176,0 -0.368,0.08 -0.576,0.24c-0.208,0.16 -0.312,0.408 -0.312,0.744l0,1.536l-3.696,0l0,-1.056Z" style="fill:#fff;fill-rule:nonzero;"/></g></svg>