<?xml version="1.0" encoding="UTF-8" standalone="no"?><!DOCTYPE svg PUBLIC "-//W3C//DTD SVG 1.1//EN" "http://www.w3.org/Graphics/SVG/1.1/DTD/svg11.dtd"><svg width="100%" height="100%" viewBox="0 0 1479 502" version="1.1" xmlns="http://www.w3.org/2000/svg" xmlns:xlink="http://www.w3.org/1999/xlink" xml:space="preserve" style="fill-rule:evenodd;clip-rule:evenodd;"><path d="M1478,61c0,-33.115 -26.885,-60 -60,-60l-1357,0c-33.115,0 -60,26.885 -60,60l0,380c0,33.115 26.885,60 60,60l1357,0c33.115,0 60,-26.885 60,-60l0,-380Z" style="stroke:#000;stroke-width:2px;"/><g id="g12"><path id="path20" d="M521.91,143.9c0,9 -2.73,16.22 -8.1,21.6c-6.18,6.38 -14.21,9.577 -24.09,9.59c-9.004,0.156 -17.698,-3.346 -24.08,-9.7c-6.526,-6.3 -10.126,-15.052 -9.92,-24.12c-0.217,-9.056 3.385,-17.797 9.92,-24.07c6.362,-6.389 15.065,-9.913 24.08,-9.75c4.618,0.008 9.188,0.94 13.44,2.74c3.934,1.556 7.442,4.028 10.23,7.21l-5.7,5.69c-4.38,-5.11 -10.34,-7.63 -18,-7.63c-6.678,-0.085 -13.123,2.493 -17.9,7.16c-5.007,4.8 -7.513,11.017 -7.52,18.65c0,7.63 2.51,13.9 7.52,18.7c4.791,4.645 11.227,7.22 17.9,7.16c6.829,0.201 13.451,-2.407 18.31,-7.21c3.19,-3.17 5,-7.54 5.48,-13.12l-23.77,0l0,-7.8l31.71,0c0.347,1.61 0.511,3.253 0.49,4.9l0,0Z" style="fill:#fff;fill-rule:nonzero;stroke:#000;stroke-width:1.74px;stroke-miterlimit:10;"/><path id="path24" d="M572.21,116.87l-29.78,0l0,20.5l26.85,0l0,7.79l-26.85,0l0,20.5l29.78,0l0,7.94l-38.21,0l0,-64.67l38.22,0l0,7.94l-0.01,0Z" style="fill:#fff;fill-rule:nonzero;stroke:#000;stroke-width:1.74px;stroke-miterlimit:10;"/><path id="path28" d="M607.71,173.6l-8.43,0l0,-56.73l-18.28,0l0,-7.94l45,0l0,7.94l-18.29,0l0,56.73Z" style="fill:#fff;fill-rule:nonzero;stroke:#000;stroke-width:1.74px;stroke-miterlimit:10;"/><path id="path32" d="M658.55,173.6l0,-64.67l8.45,0l0,64.67l-8.42,0l-0.03,0Z" style="fill:#fff;fill-rule:nonzero;stroke:#000;stroke-width:1.74px;stroke-miterlimit:10;"/><path id="path36" d="M704.28,173.6l-8.36,0l0,-56.73l-18.34,0l0,-7.94l45,0l0,7.94l-18.3,0l0,56.73Z" style="fill:#fff;fill-rule:nonzero;stroke:#000;stroke-width:1.74px;stroke-miterlimit:10;"/><path id="path40" d="M807.78,165.28c-6.281,6.466 -14.988,10.022 -24,9.8c-9.593,0 -17.593,-3.267 -24,-9.8c-6.358,-6.343 -9.847,-15.021 -9.65,-24c-0.197,-8.979 3.292,-17.657 9.65,-24c6.453,-6.54 14.453,-9.807 24,-9.8c9.001,-0.211 17.69,3.369 23.93,9.86c6.388,6.326 9.898,15.012 9.7,24c0.186,8.955 -3.295,17.608 -9.63,23.94l0,0Zm-41.78,-5.42c9.808,9.624 25.742,9.624 35.55,0c4.84,-4.84 7.3,-11.06 7.3,-18.6c0,-7.54 -2.46,-13.75 -7.3,-18.6c-9.809,-9.63 -25.751,-9.63 -35.56,0c-4.84,4.84 -7.3,11.06 -7.3,18.6c0,7.54 2.45,13.74 7.31,18.6Z" style="fill:#fff;fill-rule:nonzero;stroke:#000;stroke-width:1.74px;stroke-miterlimit:10;"/><path id="path44" d="M829.25,173.6l0,-64.67l10.23,0l31.82,50.3l0.37,0l-0.37,-12.43l0,-37.87l8.42,0l0,64.67l-8.79,0l-33.32,-52.78l-0.37,0l0.37,12.49l0,40.29l-8.36,0l0,0Z" style="fill:#fff;fill-rule:nonzero;stroke:#000;stroke-width:1.74px;stroke-miterlimit:10;"/><path id="path46" d="M748,268.05c-25.64,0 -46.58,19.28 -46.58,45.89c0,26.39 20.94,45.88 46.58,45.88c25.64,0 46.63,-19.49 46.63,-45.88c0.04,-26.61 -20.91,-45.89 -46.63,-45.89Zm0,73.69c-14.07,0 -26.17,-11.48 -26.17,-27.81c0,-16.55 12.1,-27.82 26.17,-27.82c14.07,0 26.22,11.27 26.22,27.82c0.04,16.34 -12.12,27.82 -26.22,27.82l0,-0.01Zm-101.6,-73.69c-25.69,0 -46.58,19.28 -46.58,45.89c0,26.39 20.89,45.88 46.58,45.88c25.69,0 46.6,-19.49 46.6,-45.88c0,-26.61 -20.92,-45.89 -46.6,-45.89Zm0,73.69c-14.08,0 -26.22,-11.48 -26.22,-27.81c0,-16.55 12.14,-27.82 26.22,-27.82c14.08,0 26.17,11.27 26.17,27.82c0,16.34 -12.1,27.82 -26.17,27.82l0,-0.01Zm-120.93,-59.62l0,19.5l47.11,0c-1.38,10.9 -5.06,18.91 -10.71,24.49c-6.88,6.74 -17.59,14.23 -36.4,14.23c-28.406,0 -51.78,-23.374 -51.78,-51.78c0,-28.406 23.374,-51.78 51.78,-51.78c13.194,-0.206 25.954,4.789 35.5,13.9l13.9,-13.74c-11.77,-11.11 -27.44,-19.65 -49.4,-19.65c-39.76,0 -73.17,32 -73.17,71.27c0,39.27 33.41,71.27 73.17,71.27c21.49,0 37.63,-7 50.32,-20c13,-12.85 17.05,-30.92 17.05,-45.51c0.033,-4.084 -0.322,-8.163 -1.06,-12.18l-66.31,0l0,-0.02Zm494.53,15.11c-3.83,-10.26 -15.66,-29.18 -39.76,-29.18c-23.88,0 -43.75,18.6 -43.75,45.89c0,25.7 19.67,45.88 46,45.88c15.478,0.144 30.034,-7.508 38.69,-20.34l-15.83,-10.42c-5.28,7.63 -12.47,12.69 -22.87,12.69c-10.4,0 -17.74,-4.68 -22.48,-13.9l62.09,-25.39l-2.09,-5.23Zm-63.31,15.28c-0.53,-17.69 13.9,-26.75 24.24,-26.75c8.1,0 15,4 17.27,9.74l-41.51,17.01Zm-50.47,44.49l20.41,0l0,-134.82l-20.41,0l0,134.82Zm-33.43,-78.75l-0.68,0c-4.58,-5.37 -13.33,-10.22 -24.41,-10.22c-23.25,0 -44.51,20.17 -44.51,46c0,25.83 21.26,45.73 44.51,45.73c11.08,0 19.82,-4.89 24.41,-10.42l0.68,0l0,6.66c0,17.54 -9.48,27 -24.78,27c-12.47,0 -20.21,-8.9 -23.4,-16.38l-17.75,7.32c6.959,16.481 23.25,27.197 41.14,27.06c23.93,0 44.12,-13.92 44.12,-47.78l0,-82.38l-19.33,0l0,7.43l0,-0.02Zm-23.34,63.47c-14.07,0 -25.84,-11.64 -25.84,-27.66c0,-16.02 11.77,-28 25.84,-28c13.86,0 24.79,11.8 24.79,28c0,16.2 -10.93,27.69 -24.79,27.69l0,-0.03Zm266.1,-119.57l-48.82,0l0,134.85l20.36,0l0,-51.07l28.46,0c22.61,0 44.78,-16.17 44.78,-41.88c0,-25.71 -22.23,-41.87 -44.78,-41.87l0,-0.03Zm0.53,65l-29,0l0,-46.22l29,0c0.227,-0.007 0.453,-0.01 0.68,-0.01c12.689,0 23.13,10.441 23.13,23.13c0,12.689 -10.441,23.13 -23.13,23.13c-0.227,0 -0.453,-0.003 -0.68,-0.01l0,-0.02Zm125.83,-19.38c-14.71,0 -30,6.42 -36.29,20.65l18.06,7.48c3.89,-7.48 11,-9.91 18.6,-9.91c10.56,0 21.27,6.27 21.43,17.34l0,1.42c-6.554,-3.459 -13.859,-5.252 -21.27,-5.22c-19.46,0 -39.28,10.59 -39.28,30.34c0,18.07 15.94,29.71 33.85,29.71c13.7,0 21.26,-6.11 26,-13.22l0.7,0l0,10.42l19.66,0l0,-51.7c0.01,-23.91 -18.06,-37.28 -41.46,-37.28l0,-0.03Zm-2.46,73.9c-6.66,0 -15.94,-3.26 -15.94,-11.42c0,-10.44 11.57,-14.44 21.58,-14.44c9,0 13.17,2 18.61,4.53c-1.618,12.11 -12.022,21.274 -24.24,21.35l-0.01,-0.02Zm115.55,-70.92l-23.4,58.46l-0.7,0l-24.19,-58.46l-22,0l36.35,81.69l-20.74,45.46l21.27,0l56,-127.15l-22.59,0Zm-183.49,86.25l20.41,0l0,-134.82l-20.41,0l0,134.82Z" style="fill:#fff;fill-rule:nonzero;"/><path id="path64" d="M118.25,114.72c-3.21,3.32 -5.06,8.48 -5.06,15.17l0,238.57c0,6.69 1.86,11.85 5.06,15.17l0.79,0.73l135.26,-133.64l0,-3.16l-135.3,-133.63l-0.75,0.79Z" style="fill:url(#_Linear1);fill-rule:nonzero;"/><path id="path78" d="M299.34,295.29l-45,-44.57l0,-3.16l45.05,-44.56l1,0.58l53.4,30c15.24,8.52 15.24,22.55 0,31.12l-53.4,30l-1.05,0.59Z" style="fill:url(#_Linear2);fill-rule:nonzero;"/><path id="path88" d="M300.4,294.71l-46.1,-45.57l-136.05,134.49c5.06,5.26 13.32,5.89 22.7,0.63l159.45,-89.55" style="fill:url(#_Linear3);fill-rule:nonzero;"/><path id="path104" d="M300.4,203.58l-159.4,-89.58c-9.39,-5.21 -17.64,-4.57 -22.7,0.69l136,134.46l46.1,-45.57Z" style="fill:url(#_Linear4);fill-rule:nonzero;"/></g><defs><linearGradient id="_Linear1" x1="0" y1="0" x2="1" y2="0" gradientUnits="userSpaceOnUse" gradientTransform="matrix(-182.74,-182.74,182.74,-182.74,242.68,372.17)"><stop offset="0" style="stop-color:#00a0ff;stop-opacity:1"/><stop offset="0.01" style="stop-color:#00a1ff;stop-opacity:1"/><stop offset="0.26" style="stop-color:#00beff;stop-opacity:1"/><stop offset="0.51" style="stop-color:#00d2ff;stop-opacity:1"/><stop offset="0.76" style="stop-color:#00dfff;stop-opacity:1"/><stop offset="1" style="stop-color:#00e3ff;stop-opacity:1"/></linearGradient><linearGradient id="_Linear2" x1="0" y1="0" x2="1" y2="0" gradientUnits="userSpaceOnUse" gradientTransform="matrix(-263.47,3.22658e-14,-3.22658e-14,-263.47,373.73,249.22)"><stop offset="0" style="stop-color:#ffe000;stop-opacity:1"/><stop offset="0.41" style="stop-color:#ffbd00;stop-opacity:1"/><stop offset="0.78" style="stop-color:#ffa500;stop-opacity:1"/><stop offset="1" style="stop-color:#ff9c00;stop-opacity:1"/></linearGradient><linearGradient id="_Linear3" x1="0" y1="0" x2="1" y2="0" gradientUnits="userSpaceOnUse" gradientTransform="matrix(-247.81,-247.81,247.81,-247.81,184.79,315.08)"><stop offset="0" style="stop-color:#ff3a44;stop-opacity:1"/><stop offset="1" style="stop-color:#c31162;stop-opacity:1"/></linearGradient><linearGradient id="_Linear4" x1="0" y1="0" x2="1" y2="0" gradientUnits="userSpaceOnUse" gradientTransform="matrix(110.66,-110.66,110.66,110.66,-6.06,374.24)"><stop offset="0" style="stop-color:#32a071;stop-opacity:1"/><stop offset="0.07" style="stop-color:#2da771;stop-opacity:1"/><stop offset="0.48" style="stop-color:#15cf74;stop-opacity:1"/><stop offset="0.8" style="stop-color:#06e775;stop-opacity:1"/><stop offset="1" style="stop-color:#00f076;stop-opacity:1"/></linearGradient></defs></svg>